M48
;Layer_Color=6321
;FILE_FORMAT=2:5
INCH,LZ
;TYPE=PLATED
T1F00S00C0.01500
T2F00S00C0.01968
T3F00S00C0.02362
T4F00S00C0.03937
T5F00S00C0.04000
T6F00S00C0.12500
%
T01
X0984Y069625
X1005Y075645
X1021216Y0761
X10796Y074705
X1094598Y0747052
T02
X09406Y064895
X0945521
X0950443
X0955364
X0960285
X0965206
X09944
X0999321
X1004243
X1009164
X1014085
X1019006
X1048
X1052921
X1057843
X1062764
X1067685
X1072606
T03
X1002016Y07245
X1012016
X1022016
X1032016
Y07349
X1022016
X1012016
X1002016
T04
X09667Y066525
Y067525
Y068525
Y069525
Y070525
Y071525
Y072525
Y073525
Y074525
Y075525
X09672Y076525
X09667Y077525
X10467
Y076525
Y075525
Y074525
Y073525
Y072525
Y071525
Y069525
Y068525
Y067525
Y066525
Y078525
Y079525
Y080525
Y081525
T05
X111175Y06941
Y07041
X10245Y0794
X10127
X10009
X09891
Y08058
X10009
X10127
X10245
X10363Y08095
X09773
T06
X09082Y06326
X11051
Y08295
X09082
M30
