G04*
G04 #@! TF.GenerationSoftware,Altium Limited,CircuitStudio,1.5.2 (30)*
G04*
G04 Layer_Color=7318015*
%FSLAX25Y25*%
%MOIN*%
G70*
G01*
G75*
%ADD10R,0.02165X0.02165*%
%ADD11R,0.03150X0.03543*%
%ADD12R,0.03543X0.02756*%
%ADD13R,0.03543X0.03150*%
%ADD14R,0.02200X0.05200*%
%ADD15R,0.02000X0.05200*%
%ADD16R,0.01400X0.05800*%
%ADD17R,0.05900X0.01200*%
%ADD18R,0.01614X0.06181*%
D10*
X1014016Y742300D02*
D03*
X1010473D02*
D03*
X1036116D02*
D03*
X1032573D02*
D03*
X1017816D02*
D03*
X1021360D02*
D03*
X951043Y665250D02*
D03*
X947500D02*
D03*
X951043Y675250D02*
D03*
X947500D02*
D03*
X997933Y668850D02*
D03*
X994390D02*
D03*
D11*
X986244Y717134D02*
D03*
X991756D02*
D03*
X1002656Y742650D02*
D03*
X997144D02*
D03*
X986344Y742650D02*
D03*
X991856D02*
D03*
X1005672Y778000D02*
D03*
X1000161D02*
D03*
X1026161Y778200D02*
D03*
X1031672D02*
D03*
D12*
X1022000Y714803D02*
D03*
Y708897D02*
D03*
X1031900Y712803D02*
D03*
Y706897D02*
D03*
X1012000Y716803D02*
D03*
Y710897D02*
D03*
D13*
X991900Y757506D02*
D03*
Y763018D02*
D03*
X1015916Y777944D02*
D03*
Y783456D02*
D03*
D14*
X985700Y723350D02*
D03*
X993100D02*
D03*
D15*
X989400Y731950D02*
D03*
D16*
X997216Y771800D02*
D03*
X999816D02*
D03*
X1002316D02*
D03*
X1004916D02*
D03*
X1007516D02*
D03*
X1010016D02*
D03*
X1012616D02*
D03*
Y748800D02*
D03*
X1010016D02*
D03*
X1007516D02*
D03*
X1004916D02*
D03*
X1002316D02*
D03*
X999816D02*
D03*
X997216D02*
D03*
X1019216D02*
D03*
X1021816D02*
D03*
X1024316D02*
D03*
X1026916D02*
D03*
X1029516D02*
D03*
X1032016D02*
D03*
X1034616D02*
D03*
Y771800D02*
D03*
X1032016D02*
D03*
X1029516D02*
D03*
X1026916D02*
D03*
X1024316D02*
D03*
X1021816D02*
D03*
X1019216D02*
D03*
D17*
X1003400Y711934D02*
D03*
Y710034D02*
D03*
Y708034D02*
D03*
Y706034D02*
D03*
Y704134D02*
D03*
X987200D02*
D03*
Y706034D02*
D03*
Y708034D02*
D03*
Y710034D02*
D03*
Y711934D02*
D03*
D18*
X992815Y674551D02*
D03*
X995374D02*
D03*
X997933D02*
D03*
X1000492D02*
D03*
X1003052D02*
D03*
X1005611D02*
D03*
X1008170D02*
D03*
X1010729D02*
D03*
X1013288D02*
D03*
X1015847D02*
D03*
X1018406D02*
D03*
X1020965D02*
D03*
Y697149D02*
D03*
X1018406D02*
D03*
X1015847D02*
D03*
X1013288D02*
D03*
X1010729D02*
D03*
X1008170D02*
D03*
X1005611D02*
D03*
X1003052D02*
D03*
X1000492D02*
D03*
X997933D02*
D03*
X995374D02*
D03*
X992815D02*
D03*
M02*
