G04*
G04 #@! TF.GenerationSoftware,Altium Limited,CircuitStudio,1.5.2 (30)*
G04*
G04 Layer_Color=15065295*
%FSLAX25Y25*%
%MOIN*%
G70*
G01*
G75*
%ADD20C,0.01500*%
%ADD21C,0.01000*%
%ADD31C,0.00600*%
%ADD32C,0.00000*%
%ADD33C,0.00500*%
%ADD34C,0.00630*%
%ADD35C,0.00787*%
%ADD36C,0.00900*%
%ADD37C,0.00800*%
%ADD38C,0.00700*%
G36*
X938455Y782211D02*
X940522D01*
Y781867D01*
Y781522D01*
Y781178D01*
Y780833D01*
Y780489D01*
Y780144D01*
Y779800D01*
Y779456D01*
Y779111D01*
X938111D01*
Y779456D01*
Y779800D01*
Y780144D01*
Y780489D01*
Y780833D01*
Y781178D01*
Y781522D01*
Y781867D01*
Y782211D01*
Y782555D01*
X938455D01*
Y782211D01*
D02*
G37*
G36*
X929844Y782555D02*
Y782211D01*
Y781867D01*
Y781522D01*
Y781178D01*
Y780833D01*
Y780489D01*
Y780144D01*
Y779800D01*
Y779456D01*
X927089D01*
Y779800D01*
Y780144D01*
Y780489D01*
Y780833D01*
Y781178D01*
Y781522D01*
Y781867D01*
Y782211D01*
Y782555D01*
X929156D01*
Y782900D01*
X929844D01*
Y782555D01*
D02*
G37*
G36*
X937422Y782211D02*
Y781867D01*
Y781522D01*
Y781178D01*
Y780833D01*
Y780489D01*
Y780144D01*
Y779800D01*
Y779456D01*
X934322D01*
Y779800D01*
Y780144D01*
X934667D01*
Y780489D01*
Y780833D01*
Y781178D01*
Y781522D01*
Y781867D01*
Y782211D01*
Y782555D01*
X937422D01*
Y782211D01*
D02*
G37*
G36*
X926400D02*
Y781867D01*
Y781522D01*
Y781178D01*
Y780833D01*
Y780489D01*
Y780144D01*
Y779800D01*
Y779456D01*
X923989D01*
Y779111D01*
X923645D01*
Y779456D01*
Y779800D01*
Y780144D01*
X923300D01*
Y780489D01*
Y780833D01*
Y781178D01*
Y781522D01*
Y781867D01*
Y782211D01*
X923645D01*
Y782555D01*
X926400D01*
Y782211D01*
D02*
G37*
G36*
X915034Y783244D02*
Y782900D01*
Y782555D01*
Y782211D01*
Y781867D01*
Y781522D01*
X914689D01*
Y781178D01*
Y780833D01*
Y780489D01*
Y780144D01*
X915034D01*
Y780489D01*
X915722D01*
Y780833D01*
X916411D01*
Y781178D01*
X917445D01*
Y780833D01*
Y780489D01*
Y780144D01*
Y779800D01*
Y779456D01*
X917789D01*
Y779800D01*
Y780144D01*
Y780489D01*
Y780833D01*
Y781178D01*
Y781522D01*
X918822D01*
Y781867D01*
X919856D01*
Y781522D01*
Y781178D01*
Y780833D01*
Y780489D01*
Y780144D01*
Y779800D01*
X920200D01*
Y779456D01*
Y779111D01*
Y778767D01*
X919511D01*
Y778422D01*
X918134D01*
Y778767D01*
X917789D01*
Y778422D01*
Y778078D01*
X916756D01*
Y777733D01*
X916067D01*
Y777389D01*
X915378D01*
Y777044D01*
X915034D01*
Y776700D01*
Y776356D01*
X914345D01*
Y776700D01*
Y777044D01*
Y777389D01*
Y777733D01*
Y778078D01*
Y778422D01*
Y778767D01*
Y779111D01*
Y779456D01*
Y779800D01*
X914689D01*
Y780144D01*
X914345D01*
Y780489D01*
Y780833D01*
Y781178D01*
Y781522D01*
Y781867D01*
Y782211D01*
Y782555D01*
Y782900D01*
X914689D01*
Y783244D01*
Y783589D01*
X915034D01*
Y783244D01*
D02*
G37*
G36*
X942933Y781522D02*
X943277D01*
Y781178D01*
Y780833D01*
Y780489D01*
Y780144D01*
Y779800D01*
Y779456D01*
Y779111D01*
Y778767D01*
Y778422D01*
X942589D01*
Y778767D01*
X940866D01*
Y779111D01*
Y779456D01*
Y779800D01*
X941211D01*
Y780144D01*
Y780489D01*
Y780833D01*
Y781178D01*
Y781522D01*
Y781867D01*
X942933D01*
Y781522D01*
D02*
G37*
G36*
X922956Y781867D02*
Y781522D01*
Y781178D01*
Y780833D01*
Y780489D01*
Y780144D01*
Y779800D01*
Y779456D01*
Y779111D01*
X921233D01*
Y778767D01*
X920545D01*
Y779111D01*
Y779456D01*
Y779800D01*
Y780144D01*
Y780489D01*
X920200D01*
Y780833D01*
Y781178D01*
Y781522D01*
Y781867D01*
X920889D01*
Y782211D01*
X922956D01*
Y781867D01*
D02*
G37*
G36*
X943966Y784967D02*
X945000D01*
Y784622D01*
X946033D01*
Y784278D01*
X946377D01*
Y783933D01*
X947066D01*
Y783589D01*
Y783244D01*
X947411D01*
Y782900D01*
Y782555D01*
Y782211D01*
Y781867D01*
Y781522D01*
Y781178D01*
X947755D01*
Y780833D01*
Y780489D01*
Y780144D01*
X947411D01*
Y780489D01*
X947066D01*
Y780833D01*
Y781178D01*
X946377D01*
Y781522D01*
X945689D01*
Y781867D01*
X944655D01*
Y782211D01*
X943622D01*
Y782555D01*
Y782900D01*
Y783244D01*
Y783589D01*
Y783933D01*
Y784278D01*
Y784622D01*
Y784967D01*
Y785311D01*
X943966D01*
Y784967D01*
D02*
G37*
G36*
X926400Y786000D02*
Y785655D01*
Y785311D01*
Y784967D01*
Y784622D01*
Y784278D01*
Y783933D01*
Y783589D01*
Y783244D01*
X923300D01*
Y783589D01*
Y783933D01*
Y784278D01*
Y784622D01*
Y784967D01*
Y785311D01*
X923645D01*
Y785655D01*
Y786000D01*
Y786344D01*
X926400D01*
Y786000D01*
D02*
G37*
G36*
X929844D02*
Y785655D01*
Y785311D01*
Y784967D01*
Y784622D01*
Y784278D01*
Y783933D01*
Y783589D01*
X927778D01*
Y783244D01*
X927089D01*
Y783589D01*
X926744D01*
Y783933D01*
X927089D01*
Y784278D01*
Y784622D01*
Y784967D01*
Y785311D01*
Y785655D01*
Y786000D01*
Y786344D01*
X929844D01*
Y786000D01*
D02*
G37*
G36*
X937422D02*
Y785655D01*
Y785311D01*
Y784967D01*
Y784622D01*
Y784278D01*
Y783933D01*
Y783589D01*
Y783244D01*
X934667D01*
Y783589D01*
Y783933D01*
Y784278D01*
Y784622D01*
Y784967D01*
Y785311D01*
Y785655D01*
X934322D01*
Y786000D01*
Y786344D01*
X937422D01*
Y786000D01*
D02*
G37*
G36*
X940522Y785655D02*
Y785311D01*
Y784967D01*
Y784622D01*
Y784278D01*
Y783933D01*
Y783589D01*
Y783244D01*
Y782900D01*
X938800D01*
Y783244D01*
X938111D01*
Y783589D01*
Y783933D01*
Y784278D01*
Y784622D01*
Y784967D01*
Y785311D01*
Y785655D01*
Y786000D01*
X940522D01*
Y785655D01*
D02*
G37*
G36*
X953955Y792544D02*
Y792200D01*
Y791855D01*
Y791511D01*
Y791166D01*
Y790822D01*
Y790478D01*
Y790133D01*
Y789789D01*
X954299D01*
Y789444D01*
Y789100D01*
X954644D01*
Y788755D01*
Y788411D01*
X955333D01*
Y788066D01*
X957055D01*
Y787722D01*
X959122D01*
Y787378D01*
X956711D01*
Y787033D01*
X955333D01*
Y786689D01*
X954644D01*
Y786344D01*
Y786000D01*
X954299D01*
Y785655D01*
Y785311D01*
X953955D01*
Y784967D01*
Y784622D01*
Y784278D01*
Y783933D01*
Y783589D01*
Y783244D01*
Y782900D01*
Y782555D01*
Y782211D01*
X953611D01*
Y782555D01*
X953266D01*
Y782900D01*
Y783244D01*
Y783589D01*
Y783933D01*
Y784278D01*
Y784622D01*
Y784967D01*
Y785311D01*
Y785655D01*
X952922D01*
Y786000D01*
Y786344D01*
X952577D01*
Y786689D01*
X951888D01*
Y787033D01*
X950511D01*
Y787378D01*
X948444D01*
Y787722D01*
X950166D01*
Y788066D01*
X951888D01*
Y788411D01*
X952577D01*
Y788755D01*
X952922D01*
Y789100D01*
Y789444D01*
Y789789D01*
X953266D01*
Y790133D01*
Y790478D01*
Y790822D01*
Y791166D01*
Y791511D01*
Y791855D01*
Y792200D01*
Y792544D01*
X953611D01*
Y792889D01*
X953955D01*
Y792544D01*
D02*
G37*
G36*
X922956Y785655D02*
Y785311D01*
Y784967D01*
Y784622D01*
Y784278D01*
Y783933D01*
Y783589D01*
Y783244D01*
Y782900D01*
X920545D01*
Y782555D01*
X920200D01*
Y782900D01*
Y783244D01*
Y783589D01*
Y783933D01*
Y784278D01*
X920545D01*
Y784622D01*
Y784967D01*
Y785311D01*
Y785655D01*
X920889D01*
Y786000D01*
X922956D01*
Y785655D01*
D02*
G37*
G36*
X942589Y785311D02*
X943277D01*
Y784967D01*
Y784622D01*
Y784278D01*
Y783933D01*
Y783589D01*
Y783244D01*
Y782900D01*
Y782555D01*
X941211D01*
Y782900D01*
Y783244D01*
Y783589D01*
Y783933D01*
Y784278D01*
Y784622D01*
X940866D01*
Y784967D01*
Y785311D01*
Y785655D01*
X942589D01*
Y785311D01*
D02*
G37*
G36*
X944311Y781178D02*
X945344D01*
Y780833D01*
X946377D01*
Y780489D01*
X946722D01*
Y780144D01*
X947411D01*
Y779800D01*
Y779456D01*
X947755D01*
Y779111D01*
Y778767D01*
X947411D01*
Y778422D01*
Y778078D01*
Y777733D01*
Y777389D01*
Y777044D01*
Y776700D01*
Y776356D01*
Y776011D01*
X947066D01*
Y776356D01*
Y776700D01*
X946722D01*
Y777044D01*
Y777389D01*
X945689D01*
Y777733D01*
X945344D01*
Y778078D01*
X943966D01*
Y778422D01*
X943622D01*
Y778767D01*
Y779111D01*
Y779456D01*
Y779800D01*
Y780144D01*
Y780489D01*
Y780833D01*
Y781178D01*
Y781522D01*
X944311D01*
Y781178D01*
D02*
G37*
G36*
X933289Y774978D02*
X933633D01*
Y774633D01*
Y774289D01*
Y773945D01*
X933289D01*
Y773600D01*
Y773256D01*
Y772911D01*
Y772567D01*
Y772222D01*
X930878D01*
Y772567D01*
Y772911D01*
Y773256D01*
Y773600D01*
Y773945D01*
Y774289D01*
Y774633D01*
Y774978D01*
Y775322D01*
X933289D01*
Y774978D01*
D02*
G37*
G36*
X936733Y774633D02*
Y774289D01*
Y773945D01*
X936389D01*
Y773600D01*
Y773256D01*
Y772911D01*
Y772567D01*
X936044D01*
Y772222D01*
X933633D01*
Y772567D01*
X933978D01*
Y772911D01*
Y773256D01*
Y773600D01*
Y773945D01*
Y774289D01*
Y774633D01*
Y774978D01*
X936733D01*
Y774633D01*
D02*
G37*
G36*
X916411Y776356D02*
Y776011D01*
Y775667D01*
X916756D01*
Y775322D01*
Y774978D01*
Y774633D01*
X917100D01*
Y774289D01*
Y773945D01*
X916756D01*
Y773600D01*
X916067D01*
Y773256D01*
Y772911D01*
Y772567D01*
X915722D01*
Y772911D01*
Y773256D01*
X915378D01*
Y773600D01*
Y773945D01*
X915034D01*
Y774289D01*
Y774633D01*
Y774978D01*
X914689D01*
Y775322D01*
Y775667D01*
X915034D01*
Y776011D01*
X915378D01*
Y776356D01*
X915722D01*
Y776700D01*
X916411D01*
Y776356D01*
D02*
G37*
G36*
X930189Y774978D02*
Y774633D01*
Y774289D01*
Y773945D01*
Y773600D01*
Y773256D01*
Y772911D01*
Y772567D01*
Y772222D01*
X927778D01*
Y772567D01*
Y772911D01*
Y773256D01*
X927433D01*
Y773600D01*
Y773945D01*
Y774289D01*
Y774633D01*
Y774978D01*
X928467D01*
Y775322D01*
X930189D01*
Y774978D01*
D02*
G37*
G36*
X938111Y774633D02*
X939489D01*
Y774289D01*
Y773945D01*
Y773600D01*
X939144D01*
Y773256D01*
Y772911D01*
Y772567D01*
X938800D01*
Y772222D01*
Y771878D01*
X936733D01*
Y772222D01*
Y772567D01*
Y772911D01*
Y773256D01*
Y773600D01*
X937078D01*
Y773945D01*
Y774289D01*
Y774633D01*
Y774978D01*
X938111D01*
Y774633D01*
D02*
G37*
G36*
X926744D02*
Y774289D01*
X927089D01*
Y773945D01*
Y773600D01*
Y773256D01*
Y772911D01*
Y772567D01*
Y772222D01*
X925367D01*
Y771878D01*
X925022D01*
Y772222D01*
Y772567D01*
X924678D01*
Y772911D01*
Y773256D01*
Y773600D01*
X924333D01*
Y773945D01*
Y774289D01*
Y774633D01*
Y774978D01*
X926744D01*
Y774633D01*
D02*
G37*
G36*
X923989Y774289D02*
Y773945D01*
Y773600D01*
X924333D01*
Y773256D01*
Y772911D01*
Y772567D01*
X924678D01*
Y772222D01*
Y771878D01*
X922267D01*
Y771533D01*
X920889D01*
Y771189D01*
X920545D01*
Y771533D01*
X920200D01*
Y771189D01*
X919856D01*
Y770845D01*
X918822D01*
Y770500D01*
X918478D01*
Y770156D01*
X918134D01*
Y769811D01*
Y769467D01*
Y769122D01*
X917789D01*
Y769467D01*
X917445D01*
Y769811D01*
Y770156D01*
X917100D01*
Y770500D01*
X916756D01*
Y770845D01*
Y771189D01*
X916411D01*
Y771533D01*
Y771878D01*
Y772222D01*
Y772567D01*
X916756D01*
Y772911D01*
X917100D01*
Y773256D01*
X917789D01*
Y773600D01*
X918478D01*
Y773945D01*
X919856D01*
Y774289D01*
X921233D01*
Y773945D01*
Y773600D01*
X921578D01*
Y773256D01*
Y772911D01*
X921922D01*
Y772567D01*
Y772222D01*
X922267D01*
Y772567D01*
Y772911D01*
X921922D01*
Y773256D01*
Y773600D01*
X921578D01*
Y773945D01*
Y774289D01*
Y774633D01*
X923989D01*
Y774289D01*
D02*
G37*
G36*
X945689Y776700D02*
X946377D01*
Y776356D01*
X946722D01*
Y776011D01*
X947066D01*
Y775667D01*
Y775322D01*
Y774978D01*
X946722D01*
Y774633D01*
Y774289D01*
Y773945D01*
Y773600D01*
X946377D01*
Y773256D01*
Y772911D01*
Y772567D01*
X945689D01*
Y772911D01*
Y773256D01*
X945344D01*
Y773600D01*
X945000D01*
Y773945D01*
X944311D01*
Y774289D01*
Y774633D01*
X944655D01*
Y774978D01*
Y775322D01*
Y775667D01*
X945000D01*
Y776011D01*
Y776356D01*
Y776700D01*
Y777044D01*
X945689D01*
Y776700D01*
D02*
G37*
G36*
X930189Y778422D02*
Y778078D01*
Y777733D01*
Y777389D01*
Y777044D01*
Y776700D01*
Y776356D01*
Y776011D01*
X929844D01*
Y775667D01*
X927433D01*
Y776011D01*
X927089D01*
Y776356D01*
Y776700D01*
Y777044D01*
Y777389D01*
Y777733D01*
Y778078D01*
Y778422D01*
Y778767D01*
X930189D01*
Y778422D01*
D02*
G37*
G36*
X933633D02*
Y778078D01*
Y777733D01*
Y777389D01*
Y777044D01*
Y776700D01*
Y776356D01*
Y776011D01*
Y775667D01*
X931911D01*
Y776011D01*
X930878D01*
Y776356D01*
Y776700D01*
Y777044D01*
Y777389D01*
Y777733D01*
Y778078D01*
Y778422D01*
Y778767D01*
X933633D01*
Y778422D01*
D02*
G37*
G36*
X937078D02*
X937422D01*
Y778078D01*
X937078D01*
Y777733D01*
Y777389D01*
Y777044D01*
Y776700D01*
Y776356D01*
Y776011D01*
X936733D01*
Y775667D01*
X934322D01*
Y776011D01*
Y776356D01*
Y776700D01*
Y777044D01*
Y777389D01*
Y777733D01*
Y778078D01*
Y778422D01*
Y778767D01*
X937078D01*
Y778422D01*
D02*
G37*
G36*
X926400D02*
Y778078D01*
Y777733D01*
Y777389D01*
Y777044D01*
X926744D01*
Y776700D01*
Y776356D01*
Y776011D01*
Y775667D01*
X923989D01*
Y776011D01*
Y776356D01*
Y776700D01*
Y777044D01*
X923645D01*
Y777389D01*
Y777733D01*
Y778078D01*
Y778422D01*
X923989D01*
Y778767D01*
X926400D01*
Y778422D01*
D02*
G37*
G36*
X920200Y777733D02*
Y777389D01*
X920545D01*
Y777044D01*
Y776700D01*
Y776356D01*
Y776011D01*
X920889D01*
Y775667D01*
Y775322D01*
Y774978D01*
X919856D01*
Y774633D01*
X918822D01*
Y774978D01*
Y775322D01*
Y775667D01*
X918478D01*
Y776011D01*
Y776356D01*
Y776700D01*
Y777044D01*
X918134D01*
Y777389D01*
Y777733D01*
X919511D01*
Y778078D01*
X920200D01*
Y777733D01*
D02*
G37*
G36*
X942244D02*
X942933D01*
Y777389D01*
Y777044D01*
Y776700D01*
X942589D01*
Y776356D01*
Y776011D01*
Y775667D01*
Y775322D01*
X942244D01*
Y774978D01*
X940522D01*
Y775322D01*
X940178D01*
Y775667D01*
X940522D01*
Y776011D01*
Y776356D01*
Y776700D01*
Y777044D01*
Y777389D01*
X940866D01*
Y777733D01*
Y778078D01*
X942244D01*
Y777733D01*
D02*
G37*
G36*
X940178Y778078D02*
Y777733D01*
Y777389D01*
Y777044D01*
Y776700D01*
Y776356D01*
Y776011D01*
X939833D01*
Y775667D01*
Y775322D01*
X938111D01*
Y775667D01*
X937422D01*
Y776011D01*
Y776356D01*
Y776700D01*
Y777044D01*
X937766D01*
Y777389D01*
Y777733D01*
Y778078D01*
Y778422D01*
X940178D01*
Y778078D01*
D02*
G37*
G36*
X931222Y786344D02*
X933978D01*
Y786000D01*
Y785655D01*
Y785311D01*
Y784967D01*
Y784622D01*
Y784278D01*
Y783933D01*
Y783589D01*
X930878D01*
Y783933D01*
Y784278D01*
Y784622D01*
Y784967D01*
Y785311D01*
Y785655D01*
Y786000D01*
Y786344D01*
Y786689D01*
X931222D01*
Y786344D01*
D02*
G37*
G36*
X934667Y768434D02*
Y768089D01*
X935011D01*
Y768434D01*
X936733D01*
Y768089D01*
X937078D01*
Y768434D01*
X937422D01*
Y768089D01*
X938111D01*
Y767745D01*
X938455D01*
Y768089D01*
X938800D01*
Y767745D01*
X939489D01*
Y767400D01*
X940522D01*
Y767056D01*
X940178D01*
Y766711D01*
X941211D01*
Y766367D01*
X940522D01*
Y766022D01*
X940178D01*
Y765678D01*
X939833D01*
Y765334D01*
X939144D01*
Y764989D01*
X938455D01*
Y764645D01*
X937766D01*
Y764989D01*
X938111D01*
Y765334D01*
X937766D01*
Y765678D01*
X937078D01*
Y766022D01*
X935700D01*
Y766367D01*
X933289D01*
Y766022D01*
X933633D01*
Y765678D01*
X933289D01*
Y765334D01*
X932944D01*
Y764989D01*
X932600D01*
Y764645D01*
X928811D01*
Y764989D01*
X928467D01*
Y765334D01*
X928122D01*
Y765678D01*
Y766022D01*
X928467D01*
Y766367D01*
X926056D01*
Y766022D01*
X926744D01*
Y765678D01*
X927089D01*
Y765334D01*
X927778D01*
Y764989D01*
X928122D01*
Y764645D01*
X928467D01*
Y764300D01*
X933289D01*
Y764645D01*
Y764989D01*
X933978D01*
Y765334D01*
X934322D01*
Y765678D01*
X934667D01*
Y766022D01*
X935700D01*
Y765678D01*
X936733D01*
Y765334D01*
X937422D01*
Y764989D01*
Y764645D01*
Y764300D01*
X937078D01*
Y763956D01*
X936044D01*
Y763611D01*
X935011D01*
Y763267D01*
X932600D01*
Y762922D01*
X929156D01*
Y763267D01*
X927089D01*
Y763611D01*
X925711D01*
Y763956D01*
X925022D01*
Y764300D01*
X923989D01*
Y764645D01*
X923300D01*
Y764989D01*
X922611D01*
Y765334D01*
X922267D01*
Y765678D01*
X921578D01*
Y766022D01*
X921233D01*
Y766367D01*
Y766711D01*
Y767056D01*
X921578D01*
Y767400D01*
X922267D01*
Y767745D01*
X923300D01*
Y768089D01*
X924678D01*
Y768434D01*
X927089D01*
Y768778D01*
X928122D01*
Y768434D01*
X928467D01*
Y768778D01*
X930533D01*
Y768434D01*
Y768089D01*
Y767745D01*
Y767400D01*
Y767056D01*
Y766711D01*
X929156D01*
Y767056D01*
X928811D01*
Y766711D01*
Y766367D01*
X929156D01*
Y766022D01*
X929500D01*
Y766367D01*
X930533D01*
Y766022D01*
X930878D01*
Y766367D01*
X932600D01*
Y766711D01*
Y767056D01*
X932255D01*
Y766711D01*
X930878D01*
Y767056D01*
Y767400D01*
Y767745D01*
Y768089D01*
Y768434D01*
Y768778D01*
X932600D01*
Y768434D01*
Y768089D01*
Y767745D01*
X932944D01*
Y768089D01*
Y768434D01*
Y768778D01*
X934667D01*
Y768434D01*
D02*
G37*
G36*
X920889Y770156D02*
X921233D01*
Y769811D01*
X921578D01*
Y769467D01*
X921922D01*
Y769122D01*
Y768778D01*
X922267D01*
Y768434D01*
Y768089D01*
X921233D01*
Y767745D01*
X920889D01*
Y767400D01*
X920545D01*
Y767056D01*
X920889D01*
Y766711D01*
Y766367D01*
X920545D01*
Y766711D01*
X920200D01*
Y767056D01*
X919856D01*
Y767400D01*
X919511D01*
Y767745D01*
X919167D01*
Y768089D01*
X918822D01*
Y768434D01*
X918478D01*
Y768778D01*
Y769122D01*
Y769467D01*
X918822D01*
Y769811D01*
X919167D01*
Y770156D01*
X919511D01*
Y770500D01*
X920889D01*
Y770156D01*
D02*
G37*
G36*
X933978Y795989D02*
X935355D01*
Y795644D01*
X936389D01*
Y795300D01*
X937422D01*
Y794955D01*
X938111D01*
Y794611D01*
X938800D01*
Y794266D01*
X939489D01*
Y793922D01*
X939833D01*
Y793577D01*
X940178D01*
Y793233D01*
X940866D01*
Y792889D01*
X941555D01*
Y792544D01*
X941900D01*
Y792200D01*
X942244D01*
Y791855D01*
X942589D01*
Y791511D01*
X942933D01*
Y791166D01*
X943277D01*
Y790822D01*
Y790478D01*
X943966D01*
Y790133D01*
Y789789D01*
X944311D01*
Y789444D01*
X944655D01*
Y789100D01*
X945000D01*
Y788755D01*
Y788411D01*
X945344D01*
Y788066D01*
Y787722D01*
Y787378D01*
X945689D01*
Y787033D01*
X946033D01*
Y786689D01*
X946377D01*
Y786344D01*
Y786000D01*
Y785655D01*
X946722D01*
Y785311D01*
Y784967D01*
Y784622D01*
X947066D01*
Y784278D01*
X946377D01*
Y784622D01*
Y784967D01*
X945344D01*
Y785311D01*
X944655D01*
Y785655D01*
X943622D01*
Y786000D01*
X943277D01*
Y786344D01*
Y786689D01*
X942933D01*
Y786344D01*
Y786000D01*
X942244D01*
Y786344D01*
X940866D01*
Y786689D01*
Y787033D01*
X940522D01*
Y787378D01*
Y787722D01*
Y788066D01*
Y788411D01*
X940178D01*
Y788755D01*
Y789100D01*
X941211D01*
Y788755D01*
X942244D01*
Y788411D01*
X942589D01*
Y788755D01*
X942933D01*
Y788411D01*
X943966D01*
Y788066D01*
X944655D01*
Y787722D01*
X945000D01*
Y788066D01*
X944655D01*
Y788411D01*
X943966D01*
Y788755D01*
X942933D01*
Y789100D01*
X942244D01*
Y789444D01*
X941900D01*
Y789100D01*
X941555D01*
Y789444D01*
X939833D01*
Y789789D01*
Y790133D01*
Y790478D01*
X939489D01*
Y790822D01*
Y791166D01*
X939144D01*
Y791511D01*
Y791855D01*
X939833D01*
Y792200D01*
X938455D01*
Y792544D01*
Y792889D01*
X938111D01*
Y793233D01*
X937766D01*
Y792889D01*
X938111D01*
Y792544D01*
Y792200D01*
X938455D01*
Y791855D01*
X938800D01*
Y791511D01*
Y791166D01*
X939144D01*
Y790822D01*
Y790478D01*
X939489D01*
Y790133D01*
Y789789D01*
X937422D01*
Y790133D01*
X937078D01*
Y790478D01*
Y790822D01*
X936733D01*
Y791166D01*
Y791511D01*
Y791855D01*
Y792200D01*
X937766D01*
Y792544D01*
X936389D01*
Y792889D01*
X936044D01*
Y793233D01*
Y793577D01*
X935700D01*
Y793922D01*
X935355D01*
Y793577D01*
X935700D01*
Y793233D01*
Y792889D01*
X936044D01*
Y792544D01*
X935011D01*
Y792200D01*
X936044D01*
Y791855D01*
X936389D01*
Y791511D01*
Y791166D01*
Y790822D01*
X936733D01*
Y790478D01*
Y790133D01*
X933978D01*
Y790478D01*
Y790822D01*
Y791166D01*
Y791511D01*
Y791855D01*
Y792200D01*
Y792544D01*
Y792889D01*
X933633D01*
Y793233D01*
Y793577D01*
X933289D01*
Y793922D01*
Y794266D01*
Y794611D01*
X932944D01*
Y794955D01*
Y795300D01*
X932600D01*
Y794955D01*
Y794611D01*
X930878D01*
Y794955D01*
Y795300D01*
Y795644D01*
Y795989D01*
X930533D01*
Y795644D01*
Y795300D01*
Y794955D01*
Y794611D01*
Y794266D01*
Y793922D01*
X930189D01*
Y793577D01*
Y793233D01*
Y792889D01*
X927778D01*
Y793233D01*
X927433D01*
Y792889D01*
Y792544D01*
X927089D01*
Y792200D01*
Y791855D01*
Y791511D01*
Y791166D01*
Y790822D01*
X926744D01*
Y790478D01*
Y790133D01*
X925022D01*
Y789789D01*
X924333D01*
Y790133D01*
Y790478D01*
Y790822D01*
X923989D01*
Y790478D01*
Y790133D01*
Y789789D01*
X922267D01*
Y789444D01*
X921578D01*
Y789789D01*
Y790133D01*
X921233D01*
Y789789D01*
Y789444D01*
X920200D01*
Y789100D01*
X919511D01*
Y789444D01*
X919167D01*
Y789100D01*
X918822D01*
Y788755D01*
X917789D01*
Y788411D01*
X919167D01*
Y788755D01*
X920545D01*
Y789100D01*
X920889D01*
Y788755D01*
Y788411D01*
Y788066D01*
X920545D01*
Y787722D01*
Y787378D01*
Y787033D01*
Y786689D01*
X920200D01*
Y786344D01*
X919856D01*
Y786000D01*
X918134D01*
Y785655D01*
X917100D01*
Y785311D01*
X916411D01*
Y784967D01*
X915722D01*
Y784622D01*
X915378D01*
Y784278D01*
X915034D01*
Y784622D01*
Y784967D01*
Y785311D01*
X915378D01*
Y785655D01*
Y786000D01*
Y786344D01*
X915722D01*
Y786689D01*
Y787033D01*
X916067D01*
Y787378D01*
X916411D01*
Y787722D01*
Y788066D01*
Y788411D01*
X916756D01*
Y788755D01*
X917100D01*
Y789100D01*
X917445D01*
Y789444D01*
Y789789D01*
X917789D01*
Y790133D01*
X918134D01*
Y790478D01*
X918478D01*
Y790822D01*
X918822D01*
Y791166D01*
Y791511D01*
X919167D01*
Y791855D01*
X919511D01*
Y792200D01*
X920200D01*
Y792544D01*
X920545D01*
Y792889D01*
X920889D01*
Y793233D01*
X921578D01*
Y793577D01*
X921922D01*
Y793922D01*
X922267D01*
Y794266D01*
X922956D01*
Y794611D01*
X923645D01*
Y794955D01*
X924678D01*
Y795300D01*
X925711D01*
Y795644D01*
X926400D01*
Y795989D01*
X927778D01*
Y796333D01*
X933978D01*
Y795989D01*
D02*
G37*
G36*
X913656Y794955D02*
Y794611D01*
Y794266D01*
Y793922D01*
Y793577D01*
Y793233D01*
X914000D01*
Y792889D01*
Y792544D01*
X914345D01*
Y792200D01*
X915722D01*
Y791855D01*
X917100D01*
Y791511D01*
X915034D01*
Y791166D01*
X914345D01*
Y790822D01*
X914000D01*
Y790478D01*
Y790133D01*
X913656D01*
Y789789D01*
Y789444D01*
Y789100D01*
Y788755D01*
Y788411D01*
Y788066D01*
X913311D01*
Y788411D01*
Y788755D01*
X912967D01*
Y789100D01*
Y789444D01*
Y789789D01*
Y790133D01*
Y790478D01*
Y790822D01*
X912623D01*
Y791166D01*
X911934D01*
Y791511D01*
X909867D01*
Y791855D01*
X910900D01*
Y792200D01*
X912623D01*
Y792544D01*
X912967D01*
Y792889D01*
Y793233D01*
Y793577D01*
Y793922D01*
Y794266D01*
Y794611D01*
X913311D01*
Y794955D01*
Y795300D01*
X913656D01*
Y794955D01*
D02*
G37*
G36*
X930189Y792200D02*
Y791855D01*
Y791511D01*
Y791166D01*
Y790822D01*
Y790478D01*
Y790133D01*
X927433D01*
Y790478D01*
Y790822D01*
Y791166D01*
Y791511D01*
Y791855D01*
X927778D01*
Y792200D01*
Y792544D01*
X930189D01*
Y792200D01*
D02*
G37*
G36*
X947411Y769811D02*
Y769467D01*
Y769122D01*
X947755D01*
Y768778D01*
X948788D01*
Y768434D01*
Y768089D01*
X947411D01*
Y767745D01*
Y767400D01*
Y767056D01*
Y766711D01*
X947066D01*
Y767056D01*
Y767400D01*
Y767745D01*
Y768089D01*
X945689D01*
Y768434D01*
Y768778D01*
X947066D01*
Y769122D01*
Y769467D01*
Y769811D01*
Y770156D01*
X947411D01*
Y769811D01*
D02*
G37*
G36*
X945689Y794611D02*
Y794266D01*
Y793922D01*
Y793577D01*
Y793233D01*
X946377D01*
Y792889D01*
X947411D01*
Y792544D01*
X946033D01*
Y792200D01*
X945689D01*
Y791855D01*
Y791511D01*
Y791166D01*
Y790822D01*
X945000D01*
Y791166D01*
Y791511D01*
Y791855D01*
Y792200D01*
X944655D01*
Y792544D01*
X943277D01*
Y792889D01*
X944311D01*
Y793233D01*
X945000D01*
Y793577D01*
Y793922D01*
Y794266D01*
Y794611D01*
X945344D01*
Y794955D01*
X945689D01*
Y794611D01*
D02*
G37*
G36*
X933289Y792200D02*
Y791855D01*
Y791511D01*
Y791166D01*
X933633D01*
Y790822D01*
Y790478D01*
Y790133D01*
X930878D01*
Y790478D01*
Y790822D01*
Y791166D01*
Y791511D01*
Y791855D01*
Y792200D01*
Y792544D01*
X933289D01*
Y792200D01*
D02*
G37*
G36*
X911589Y770156D02*
Y769811D01*
Y769467D01*
Y769122D01*
X912967D01*
Y768778D01*
X912623D01*
Y768434D01*
X911589D01*
Y768089D01*
Y767745D01*
Y767400D01*
Y767056D01*
X911245D01*
Y767400D01*
Y767745D01*
Y768089D01*
X910900D01*
Y768434D01*
X910211D01*
Y768778D01*
X909867D01*
Y769122D01*
X910900D01*
Y769467D01*
X911245D01*
Y769811D01*
Y770156D01*
Y770500D01*
X911589D01*
Y770156D01*
D02*
G37*
G36*
X932944Y771533D02*
X933289D01*
Y771189D01*
Y770845D01*
X932944D01*
Y770500D01*
Y770156D01*
Y769811D01*
Y769467D01*
Y769122D01*
X930878D01*
Y769467D01*
Y769811D01*
Y770156D01*
Y770500D01*
Y770845D01*
Y771189D01*
Y771533D01*
Y771878D01*
X932944D01*
Y771533D01*
D02*
G37*
G36*
X926744Y789444D02*
Y789100D01*
Y788755D01*
Y788411D01*
X926400D01*
Y788066D01*
Y787722D01*
Y787378D01*
Y787033D01*
X924678D01*
Y786689D01*
X923645D01*
Y787033D01*
Y787378D01*
Y787722D01*
Y788066D01*
X923989D01*
Y788411D01*
Y788755D01*
Y789100D01*
Y789444D01*
X926056D01*
Y789789D01*
X926744D01*
Y789444D01*
D02*
G37*
G36*
X930189D02*
Y789100D01*
Y788755D01*
Y788411D01*
Y788066D01*
Y787722D01*
Y787378D01*
X929844D01*
Y787033D01*
X927089D01*
Y787378D01*
Y787722D01*
Y788066D01*
Y788411D01*
Y788755D01*
Y789100D01*
Y789444D01*
X927433D01*
Y789789D01*
X930189D01*
Y789444D01*
D02*
G37*
G36*
X933633D02*
Y789100D01*
Y788755D01*
Y788411D01*
Y788066D01*
Y787722D01*
Y787378D01*
Y787033D01*
X930878D01*
Y787378D01*
Y787722D01*
Y788066D01*
Y788411D01*
Y788755D01*
Y789100D01*
Y789444D01*
Y789789D01*
X933633D01*
Y789444D01*
D02*
G37*
G36*
X920200Y785311D02*
Y784967D01*
Y784622D01*
X919856D01*
Y784278D01*
Y783933D01*
Y783589D01*
Y783244D01*
Y782900D01*
Y782555D01*
X918822D01*
Y782211D01*
X917789D01*
Y782555D01*
Y782900D01*
Y783244D01*
Y783589D01*
Y783933D01*
X917445D01*
Y783589D01*
Y783244D01*
Y782900D01*
Y782555D01*
Y782211D01*
Y781867D01*
X916411D01*
Y781522D01*
X915722D01*
Y781867D01*
Y782211D01*
Y782555D01*
Y782900D01*
X916067D01*
Y783244D01*
Y783589D01*
Y783933D01*
Y784278D01*
Y784622D01*
X916756D01*
Y784967D01*
X917789D01*
Y784622D01*
X918134D01*
Y784967D01*
Y785311D01*
X919167D01*
Y785655D01*
X920200D01*
Y785311D01*
D02*
G37*
G36*
X943277Y773600D02*
X943622D01*
Y773256D01*
X945000D01*
Y772911D01*
X945344D01*
Y772567D01*
X945689D01*
Y772222D01*
Y771878D01*
Y771533D01*
X945344D01*
Y771189D01*
Y770845D01*
X945000D01*
Y770500D01*
X944655D01*
Y770156D01*
Y769811D01*
X944311D01*
Y769467D01*
X943966D01*
Y769122D01*
X943622D01*
Y768778D01*
X943277D01*
Y768434D01*
Y768089D01*
X942933D01*
Y767745D01*
X942589D01*
Y767400D01*
X941900D01*
Y767056D01*
X941555D01*
Y766711D01*
X941211D01*
Y767056D01*
Y767400D01*
Y767745D01*
X940522D01*
Y768089D01*
X939489D01*
Y768434D01*
X939144D01*
Y768778D01*
X938800D01*
Y768434D01*
X938111D01*
Y768778D01*
X937422D01*
Y769122D01*
X937078D01*
Y768778D01*
X935700D01*
Y769122D01*
X935355D01*
Y769467D01*
X935700D01*
Y769811D01*
Y770156D01*
X936044D01*
Y770500D01*
Y770845D01*
Y771189D01*
X936389D01*
Y771533D01*
X937422D01*
Y771189D01*
X938111D01*
Y770845D01*
Y770500D01*
X938455D01*
Y770845D01*
Y771189D01*
X939833D01*
Y770845D01*
X940178D01*
Y770500D01*
X940522D01*
Y770845D01*
X941211D01*
Y770500D01*
X941900D01*
Y770156D01*
X942933D01*
Y769811D01*
X943277D01*
Y769467D01*
X943622D01*
Y769811D01*
Y770156D01*
Y770500D01*
X942933D01*
Y770845D01*
X942244D01*
Y771189D01*
X940866D01*
Y771533D01*
X941211D01*
Y771878D01*
Y772222D01*
X941555D01*
Y772567D01*
Y772911D01*
X941900D01*
Y773256D01*
Y773600D01*
X942244D01*
Y773945D01*
X943277D01*
Y773600D01*
D02*
G37*
G36*
X930189Y771533D02*
Y771189D01*
Y770845D01*
Y770500D01*
Y770156D01*
X930533D01*
Y769811D01*
Y769467D01*
Y769122D01*
X926056D01*
Y769467D01*
X925711D01*
Y769122D01*
Y768778D01*
X923989D01*
Y769122D01*
Y769467D01*
X923645D01*
Y769811D01*
X923300D01*
Y770156D01*
Y770500D01*
X922956D01*
Y770845D01*
Y771189D01*
X924333D01*
Y771533D01*
X925022D01*
Y771189D01*
Y770845D01*
Y770500D01*
X925367D01*
Y770156D01*
Y769811D01*
X925711D01*
Y770156D01*
Y770500D01*
X925367D01*
Y770845D01*
Y771189D01*
Y771533D01*
X927433D01*
Y771189D01*
Y770845D01*
X927778D01*
Y770500D01*
Y770156D01*
Y769811D01*
Y769467D01*
X928122D01*
Y769811D01*
Y770156D01*
Y770500D01*
Y770845D01*
X927778D01*
Y771189D01*
Y771533D01*
X928467D01*
Y771878D01*
X930189D01*
Y771533D01*
D02*
G37*
G36*
X935700Y789444D02*
X937078D01*
Y789100D01*
Y788755D01*
Y788411D01*
Y788066D01*
Y787722D01*
Y787378D01*
X937422D01*
Y787033D01*
X934322D01*
Y787378D01*
Y787722D01*
Y788066D01*
Y788411D01*
Y788755D01*
Y789100D01*
Y789444D01*
Y789789D01*
X935700D01*
Y789444D01*
D02*
G37*
%LPC*%
G36*
X926056Y766022D02*
X924678D01*
Y765678D01*
X923989D01*
Y765334D01*
X923645D01*
Y764989D01*
X923989D01*
Y764645D01*
X924333D01*
Y764989D01*
X924678D01*
Y765334D01*
X925022D01*
Y765678D01*
X926056D01*
Y766022D01*
D02*
G37*
G36*
X934322Y764300D02*
X933633D01*
Y763956D01*
X933978D01*
Y763611D01*
X934322D01*
Y763956D01*
Y764300D01*
D02*
G37*
G36*
X940178Y766711D02*
X939833D01*
Y766367D01*
X940178D01*
Y766711D01*
D02*
G37*
G36*
X942933Y771533D02*
X942589D01*
Y771189D01*
X942933D01*
Y771533D01*
D02*
G37*
G36*
X928467Y764300D02*
X927433D01*
Y763956D01*
Y763611D01*
X928122D01*
Y763956D01*
X928467D01*
Y764300D01*
D02*
G37*
G36*
X939144Y766022D02*
X938800D01*
Y765678D01*
X939144D01*
Y766022D01*
D02*
G37*
G36*
X939833Y766367D02*
X939144D01*
Y766022D01*
X939833D01*
Y766367D01*
D02*
G37*
G36*
X920200Y772222D02*
X919856D01*
Y771878D01*
X920200D01*
Y772222D01*
D02*
G37*
G36*
X938455Y765678D02*
X938111D01*
Y765334D01*
X938455D01*
Y765678D01*
D02*
G37*
G36*
X940178Y770156D02*
X939833D01*
Y769811D01*
X940178D01*
Y770156D01*
D02*
G37*
G36*
X918822Y771533D02*
X918478D01*
Y771189D01*
X918822D01*
Y771533D01*
D02*
G37*
G36*
X936733Y768089D02*
X936389D01*
Y767745D01*
X936733D01*
Y768089D01*
D02*
G37*
G36*
X938111Y770156D02*
X937766D01*
Y769811D01*
X938111D01*
Y770156D01*
D02*
G37*
G36*
X937766Y769811D02*
X937422D01*
Y769467D01*
Y769122D01*
X937766D01*
Y769467D01*
Y769811D01*
D02*
G37*
G36*
X934322Y767056D02*
X933978D01*
Y766711D01*
X934322D01*
Y767056D01*
D02*
G37*
G36*
X927433D02*
X927089D01*
Y766711D01*
X927433D01*
Y767056D01*
D02*
G37*
G36*
X928811Y768089D02*
X928467D01*
Y767745D01*
Y767400D01*
X928811D01*
Y767745D01*
Y768089D01*
D02*
G37*
G36*
X926744D02*
X926400D01*
Y767745D01*
X926744D01*
Y768089D01*
D02*
G37*
G36*
X934667Y767745D02*
X934322D01*
Y767400D01*
X934667D01*
Y767745D01*
D02*
G37*
G36*
X920545Y791511D02*
X919511D01*
Y791166D01*
X920545D01*
Y791511D01*
D02*
G37*
G36*
X940522Y792200D02*
X940178D01*
Y791855D01*
Y791511D01*
X940866D01*
Y791166D01*
X941211D01*
Y791511D01*
Y791855D01*
X940522D01*
Y792200D01*
D02*
G37*
G36*
X942244Y791511D02*
X941555D01*
Y791166D01*
X942244D01*
Y791511D01*
D02*
G37*
G36*
X941555Y790822D02*
X941211D01*
Y790478D01*
X941555D01*
Y790822D01*
D02*
G37*
G36*
X922267Y791166D02*
X921922D01*
Y790822D01*
X922267D01*
Y791166D01*
D02*
G37*
G36*
X924678Y791855D02*
X924333D01*
Y791511D01*
Y791166D01*
Y790822D01*
X924678D01*
Y791166D01*
Y791511D01*
Y791855D01*
D02*
G37*
G36*
X921578D02*
X920889D01*
Y791511D01*
X921578D01*
Y791855D01*
D02*
G37*
G36*
X927433Y794611D02*
X926056D01*
Y794266D01*
X927433D01*
Y794611D01*
D02*
G37*
G36*
X935011Y794955D02*
X934667D01*
Y794611D01*
Y794266D01*
X935355D01*
Y794611D01*
X935011D01*
Y794955D01*
D02*
G37*
G36*
X928811Y795300D02*
X928467D01*
Y794955D01*
X928811D01*
Y795300D01*
D02*
G37*
G36*
X926056Y794266D02*
X924333D01*
Y793922D01*
X923989D01*
Y793577D01*
X923645D01*
Y793233D01*
X923300D01*
Y792889D01*
X922956D01*
Y792544D01*
Y792200D01*
X922267D01*
Y791855D01*
Y791511D01*
X922611D01*
Y791855D01*
X923300D01*
Y792200D01*
X924678D01*
Y791855D01*
X925022D01*
Y792200D01*
X926744D01*
Y792544D01*
X925367D01*
Y792889D01*
Y793233D01*
X925711D01*
Y793577D01*
Y793922D01*
X926056D01*
Y794266D01*
D02*
G37*
G36*
X928467Y794611D02*
X927778D01*
Y794266D01*
Y793922D01*
Y793577D01*
Y793233D01*
X928122D01*
Y793577D01*
Y793922D01*
Y794266D01*
X928467D01*
Y794611D01*
D02*
G37*
G36*
X937422Y794266D02*
X937078D01*
Y793922D01*
X937422D01*
Y794266D01*
D02*
G37*
G36*
X921922Y790822D02*
X921578D01*
Y790478D01*
Y790133D01*
X921922D01*
Y790478D01*
Y790822D01*
D02*
G37*
G36*
X916067Y779800D02*
X915722D01*
Y779456D01*
Y779111D01*
Y778767D01*
X916067D01*
Y779111D01*
Y779456D01*
Y779800D01*
D02*
G37*
G36*
X945689Y780489D02*
X945344D01*
Y780144D01*
Y779800D01*
Y779456D01*
Y779111D01*
Y778767D01*
X945689D01*
Y779111D01*
Y779456D01*
Y779800D01*
Y780144D01*
Y780489D01*
D02*
G37*
G36*
Y783589D02*
X945344D01*
Y783244D01*
Y782900D01*
Y782555D01*
Y782211D01*
X945689D01*
Y782555D01*
Y782900D01*
Y783244D01*
Y783589D01*
D02*
G37*
G36*
X943277Y772222D02*
X942933D01*
Y771878D01*
X943277D01*
Y772222D01*
D02*
G37*
G36*
X919856Y772911D02*
X919511D01*
Y772567D01*
X919856D01*
Y772911D01*
D02*
G37*
G36*
X919511Y773600D02*
X919167D01*
Y773256D01*
X919511D01*
Y773600D01*
D02*
G37*
G36*
X918478Y787033D02*
X918134D01*
Y786689D01*
Y786344D01*
X918478D01*
Y786689D01*
Y787033D01*
D02*
G37*
G36*
X918822Y788066D02*
X918478D01*
Y787722D01*
X918822D01*
Y788066D01*
D02*
G37*
G36*
X917789Y788411D02*
X917445D01*
Y788066D01*
X917789D01*
Y788411D01*
D02*
G37*
G36*
X941900Y790133D02*
X941555D01*
Y789789D01*
X941900D01*
Y790133D01*
D02*
G37*
G36*
X945000Y786689D02*
X944655D01*
Y786344D01*
X945000D01*
Y786689D01*
D02*
G37*
G36*
X942933Y787722D02*
X942589D01*
Y787378D01*
Y787033D01*
X942933D01*
Y787378D01*
Y787722D01*
D02*
G37*
G36*
X917100Y788066D02*
X916756D01*
Y787722D01*
X917100D01*
Y788066D01*
D02*
G37*
%LPD*%
D20*
X903800Y815797D02*
Y806800D01*
X908299D01*
X909798Y808300D01*
Y814298D01*
X908299Y815797D01*
X903800D01*
X912797D02*
X915796D01*
X914297D01*
Y806800D01*
X912797D01*
X915796D01*
X926293Y814298D02*
X924793Y815797D01*
X921794D01*
X920295Y814298D01*
Y812798D01*
X921794Y811298D01*
X924793D01*
X926293Y809799D01*
Y808300D01*
X924793Y806800D01*
X921794D01*
X920295Y808300D01*
X935290Y814298D02*
X933790Y815797D01*
X930791D01*
X929292Y814298D01*
Y808300D01*
X930791Y806800D01*
X933790D01*
X935290Y808300D01*
X942787Y815797D02*
X939788D01*
X938289Y814298D01*
Y808300D01*
X939788Y806800D01*
X942787D01*
X944287Y808300D01*
Y814298D01*
X942787Y815797D01*
D21*
X1001316Y738100D02*
G03*
X998934Y736100I-191J-2191D01*
G01*
X1001316Y727700D02*
G03*
X998934Y725700I-191J-2191D01*
G01*
X908200Y840700D02*
Y840700D01*
Y840700D02*
Y840700D01*
D31*
X984503Y727259D02*
G03*
X983390Y728850I-1114J405D01*
G01*
X983400Y730450D02*
X987100D01*
X995400Y726550D02*
Y730450D01*
X991700D02*
X995400D01*
X983400Y728850D02*
Y730450D01*
Y726550D02*
Y728850D01*
X988100Y724850D02*
X990700D01*
X994916Y751400D02*
Y759100D01*
Y761500D01*
Y769200D01*
X1014916Y751400D02*
Y769200D01*
X989400Y713934D02*
X994100D01*
X996500D01*
X1001200D01*
X989400Y702134D02*
X1001200D01*
X1036916Y751400D02*
Y769200D01*
X1016916Y761500D02*
Y769200D01*
Y759100D02*
Y761500D01*
Y751400D02*
Y759100D01*
X902900Y799716D02*
X903233Y800049D01*
X903900D01*
X904233Y799716D01*
Y799383D01*
X903900Y799050D01*
X903566D01*
X903900D01*
X904233Y798716D01*
Y798383D01*
X903900Y798050D01*
X903233D01*
X902900Y798383D01*
X904899Y799050D02*
X906232D01*
X906899Y799716D02*
X907232Y800049D01*
X907898D01*
X908232Y799716D01*
Y798383D01*
X907898Y798050D01*
X907232D01*
X906899Y798383D01*
Y799716D01*
X908898D02*
X909231Y800049D01*
X909898D01*
X910231Y799716D01*
Y798383D01*
X909898Y798050D01*
X909231D01*
X908898Y798383D01*
Y799716D01*
X910897D02*
X911231Y800049D01*
X911897D01*
X912230Y799716D01*
Y798383D01*
X911897Y798050D01*
X911231D01*
X910897Y798383D01*
Y799716D01*
X914230Y800049D02*
X913563Y799716D01*
X912897Y799050D01*
Y798383D01*
X913230Y798050D01*
X913896D01*
X914230Y798383D01*
Y798716D01*
X913896Y799050D01*
X912897D01*
X914896D02*
X916229D01*
X916895Y798050D02*
X917562D01*
X917229D01*
Y800049D01*
X916895Y799716D01*
X902900Y803974D02*
X903566D01*
X903233D01*
Y801975D01*
X902900D01*
X903566D01*
X904566D02*
Y803308D01*
X905566D01*
X905899Y802975D01*
Y801975D01*
X906565D02*
X907565D01*
X907898Y802308D01*
X907565Y802641D01*
X906899D01*
X906565Y802975D01*
X906899Y803308D01*
X907898D01*
X908898Y803641D02*
Y803308D01*
X908565D01*
X909231D01*
X908898D01*
Y802308D01*
X909231Y801975D01*
X910231Y803308D02*
Y801975D01*
Y802641D01*
X910564Y802975D01*
X910897Y803308D01*
X911231D01*
X912230D02*
Y802308D01*
X912564Y801975D01*
X913563D01*
Y803308D01*
X914230Y801975D02*
Y803308D01*
X914563D01*
X914896Y802975D01*
Y801975D01*
Y802975D01*
X915229Y803308D01*
X915563Y802975D01*
Y801975D01*
X917229D02*
X916562D01*
X916229Y802308D01*
Y802975D01*
X916562Y803308D01*
X917229D01*
X917562Y802975D01*
Y802641D01*
X916229D01*
X918228Y801975D02*
Y803308D01*
X919228D01*
X919561Y802975D01*
Y801975D01*
X920561Y803641D02*
Y803308D01*
X920228D01*
X920894D01*
X920561D01*
Y802308D01*
X920894Y801975D01*
X925226Y803641D02*
X924893Y803974D01*
X924226D01*
X923893Y803641D01*
Y802308D01*
X924226Y801975D01*
X924893D01*
X925226Y802308D01*
X926226Y801975D02*
X926892D01*
X927225Y802308D01*
Y802975D01*
X926892Y803308D01*
X926226D01*
X925893Y802975D01*
Y802308D01*
X926226Y801975D01*
X927892D02*
Y803308D01*
X928892D01*
X929225Y802975D01*
Y801975D01*
X930225Y803641D02*
Y803308D01*
X929891D01*
X930558D01*
X930225D01*
Y802308D01*
X930558Y801975D01*
X931557Y803308D02*
Y801975D01*
Y802641D01*
X931891Y802975D01*
X932224Y803308D01*
X932557D01*
X933890Y801975D02*
X934556D01*
X934890Y802308D01*
Y802975D01*
X934556Y803308D01*
X933890D01*
X933557Y802975D01*
Y802308D01*
X933890Y801975D01*
X935556D02*
X936222D01*
X935889D01*
Y803974D01*
X935556D01*
X937222Y801975D02*
X937889D01*
X937555D01*
Y803974D01*
X937222D01*
X939888Y801975D02*
X939222D01*
X938888Y802308D01*
Y802975D01*
X939222Y803308D01*
X939888D01*
X940221Y802975D01*
Y802641D01*
X938888D01*
X940888Y803308D02*
Y801975D01*
Y802641D01*
X941221Y802975D01*
X941554Y803308D01*
X941887D01*
D32*
X994916Y759100D02*
G03*
X994916Y761500I0J1200D01*
G01*
X994100Y713934D02*
G03*
X996500Y713934I1200J0D01*
G01*
X1016916Y759100D02*
G03*
X1016916Y761500I0J1200D01*
G01*
D33*
X1116300Y829500D02*
G03*
X1105100Y840700I-11200J0D01*
G01*
X1105100Y621400D02*
G03*
X1116300Y632600I0J11200D01*
G01*
X897000Y632600D02*
G03*
X908200Y621400I11200J0D01*
G01*
X908200Y840700D02*
G03*
X897000Y829500I0J-11200D01*
G01*
X908200Y840700D02*
X1105100D01*
X1116300Y632600D02*
Y829500D01*
X908200Y621400D02*
X1105100D01*
X897000Y632600D02*
Y829500D01*
X991536Y678763D02*
Y692937D01*
X1022244Y678763D02*
Y692937D01*
X996900Y716649D02*
Y714983D01*
X997233Y714650D01*
X997900D01*
X998233Y714983D01*
Y716649D01*
X998899Y714650D02*
X999566D01*
X999233D01*
Y716649D01*
X998899Y716316D01*
X1006900Y715850D02*
Y717849D01*
X1007900D01*
X1008233Y717516D01*
Y716850D01*
X1007900Y716516D01*
X1006900D01*
X1007567D02*
X1008233Y715850D01*
X1008899D02*
X1009566D01*
X1009233D01*
Y717849D01*
X1008899Y717516D01*
X982933Y743316D02*
X982600Y743649D01*
X981933D01*
X981600Y743316D01*
Y741983D01*
X981933Y741650D01*
X982600D01*
X982933Y741983D01*
X983599Y741650D02*
X984266D01*
X983933D01*
Y743649D01*
X983599Y743316D01*
X1005933Y743216D02*
X1005600Y743549D01*
X1004933D01*
X1004600Y743216D01*
Y741883D01*
X1004933Y741550D01*
X1005600D01*
X1005933Y741883D01*
X1007932Y741550D02*
X1006599D01*
X1007932Y742883D01*
Y743216D01*
X1007599Y743549D01*
X1006933D01*
X1006599Y743216D01*
X982133Y717816D02*
X981800Y718149D01*
X981133D01*
X980800Y717816D01*
Y716483D01*
X981133Y716150D01*
X981800D01*
X982133Y716483D01*
X982799Y717816D02*
X983133Y718149D01*
X983799D01*
X984132Y717816D01*
Y717483D01*
X983799Y717150D01*
X983466D01*
X983799D01*
X984132Y716816D01*
Y716483D01*
X983799Y716150D01*
X983133D01*
X982799Y716483D01*
X1035933Y778916D02*
X1035600Y779249D01*
X1034933D01*
X1034600Y778916D01*
Y777583D01*
X1034933Y777250D01*
X1035600D01*
X1035933Y777583D01*
X1037599Y777250D02*
Y779249D01*
X1036599Y778250D01*
X1037932D01*
X1015733Y787116D02*
X1015400Y787449D01*
X1014733D01*
X1014400Y787116D01*
Y785783D01*
X1014733Y785450D01*
X1015400D01*
X1015733Y785783D01*
X1017732Y787449D02*
X1016399D01*
Y786450D01*
X1017066Y786783D01*
X1017399D01*
X1017732Y786450D01*
Y785783D01*
X1017399Y785450D01*
X1016733D01*
X1016399Y785783D01*
X991533Y766716D02*
X991200Y767049D01*
X990533D01*
X990200Y766716D01*
Y765383D01*
X990533Y765050D01*
X991200D01*
X991533Y765383D01*
X993532Y767049D02*
X992866Y766716D01*
X992199Y766050D01*
Y765383D01*
X992533Y765050D01*
X993199D01*
X993532Y765383D01*
Y765716D01*
X993199Y766050D01*
X992199D01*
X995049Y778766D02*
X994716Y779099D01*
X994050D01*
X993716Y778766D01*
Y777433D01*
X994050Y777100D01*
X994716D01*
X995049Y777433D01*
X995716Y779099D02*
X997049D01*
Y778766D01*
X995716Y777433D01*
Y777100D01*
X1016300Y713850D02*
Y715849D01*
X1017300D01*
X1017633Y715516D01*
Y714850D01*
X1017300Y714516D01*
X1016300D01*
X1016967D02*
X1017633Y713850D01*
X1019632D02*
X1018299D01*
X1019632Y715183D01*
Y715516D01*
X1019299Y715849D01*
X1018633D01*
X1018299Y715516D01*
X1026300Y711750D02*
Y713749D01*
X1027300D01*
X1027633Y713416D01*
Y712750D01*
X1027300Y712416D01*
X1026300D01*
X1026966D02*
X1027633Y711750D01*
X1028299Y713416D02*
X1028633Y713749D01*
X1029299D01*
X1029632Y713416D01*
Y713083D01*
X1029299Y712750D01*
X1028966D01*
X1029299D01*
X1029632Y712416D01*
Y712083D01*
X1029299Y711750D01*
X1028633D01*
X1028299Y712083D01*
X1035400Y723550D02*
Y725549D01*
X1036400D01*
X1036733Y725216D01*
Y724550D01*
X1036400Y724216D01*
X1035400D01*
X1036067D02*
X1036733Y723550D01*
X1037399Y725549D02*
X1038732D01*
Y725216D01*
X1037399Y723883D01*
Y723550D01*
X1035300Y734050D02*
Y736049D01*
X1036300D01*
X1036633Y735716D01*
Y735050D01*
X1036300Y734716D01*
X1035300D01*
X1035966D02*
X1036633Y734050D01*
X1037299Y735716D02*
X1037633Y736049D01*
X1038299D01*
X1038632Y735716D01*
Y735383D01*
X1038299Y735050D01*
X1038632Y734716D01*
Y734383D01*
X1038299Y734050D01*
X1037633D01*
X1037299Y734383D01*
Y734716D01*
X1037633Y735050D01*
X1037299Y735383D01*
Y735716D01*
X1037633Y735050D02*
X1038299D01*
X979400Y730349D02*
Y728683D01*
X979733Y728350D01*
X980400D01*
X980733Y728683D01*
Y730349D01*
X982732Y728350D02*
X981399D01*
X982732Y729683D01*
Y730016D01*
X982399Y730349D01*
X981733D01*
X981399Y730016D01*
X991000Y753549D02*
Y751883D01*
X991333Y751550D01*
X992000D01*
X992333Y751883D01*
Y753549D01*
X992999Y753216D02*
X993333Y753549D01*
X993999D01*
X994332Y753216D01*
Y752883D01*
X993999Y752550D01*
X993666D01*
X993999D01*
X994332Y752216D01*
Y751883D01*
X993999Y751550D01*
X993333D01*
X992999Y751883D01*
X1037800Y753549D02*
Y751883D01*
X1038133Y751550D01*
X1038800D01*
X1039133Y751883D01*
Y753549D01*
X1040799Y751550D02*
Y753549D01*
X1039799Y752550D01*
X1041132D01*
X1032600Y738750D02*
Y740749D01*
X1033600D01*
X1033933Y740416D01*
Y739750D01*
X1033600Y739416D01*
X1032600D01*
X1033267D02*
X1033933Y738750D01*
X1035932Y740749D02*
X1035266Y740416D01*
X1034599Y739750D01*
Y739083D01*
X1034933Y738750D01*
X1035599D01*
X1035932Y739083D01*
Y739416D01*
X1035599Y739750D01*
X1034599D01*
X1018100Y738950D02*
Y740949D01*
X1019100D01*
X1019433Y740616D01*
Y739950D01*
X1019100Y739616D01*
X1018100D01*
X1018766D02*
X1019433Y738950D01*
X1021432Y740949D02*
X1020099D01*
Y739950D01*
X1020766Y740283D01*
X1021099D01*
X1021432Y739950D01*
Y739283D01*
X1021099Y738950D01*
X1020433D01*
X1020099Y739283D01*
X1010700Y738950D02*
Y740949D01*
X1011700D01*
X1012033Y740616D01*
Y739950D01*
X1011700Y739616D01*
X1010700D01*
X1011366D02*
X1012033Y738950D01*
X1013699D02*
Y740949D01*
X1012699Y739950D01*
X1014032D01*
X942500Y664250D02*
Y666249D01*
X943500D01*
X943833Y665916D01*
Y665250D01*
X943500Y664916D01*
X942500D01*
X943167D02*
X943833Y664250D01*
X944499Y666249D02*
X945832D01*
Y665916D01*
X944499Y664583D01*
Y664250D01*
X942600Y674350D02*
Y676349D01*
X943600D01*
X943933Y676016D01*
Y675350D01*
X943600Y675016D01*
X942600D01*
X943266D02*
X943933Y674350D01*
X944599Y676016D02*
X944933Y676349D01*
X945599D01*
X945932Y676016D01*
Y675683D01*
X945599Y675350D01*
X945932Y675016D01*
Y674683D01*
X945599Y674350D01*
X944933D01*
X944599Y674683D01*
Y675016D01*
X944933Y675350D01*
X944599Y675683D01*
Y676016D01*
X944933Y675350D02*
X945599D01*
X999400Y667850D02*
Y669849D01*
X1000400D01*
X1000733Y669516D01*
Y668850D01*
X1000400Y668516D01*
X999400D01*
X1000066D02*
X1000733Y667850D01*
X1001399D02*
X1002066D01*
X1001733D01*
Y669849D01*
X1001399Y669516D01*
X1003065D02*
X1003399Y669849D01*
X1004065D01*
X1004398Y669516D01*
Y669183D01*
X1004065Y668850D01*
X1003732D01*
X1004065D01*
X1004398Y668516D01*
Y668183D01*
X1004065Y667850D01*
X1003399D01*
X1003065Y668183D01*
X1023000Y686949D02*
Y685283D01*
X1023333Y684950D01*
X1024000D01*
X1024333Y685283D01*
Y686949D01*
X1024999Y686616D02*
X1025333Y686949D01*
X1025999D01*
X1026332Y686616D01*
Y686283D01*
X1025999Y685950D01*
X1026332Y685616D01*
Y685283D01*
X1025999Y684950D01*
X1025333D01*
X1024999Y685283D01*
Y685616D01*
X1025333Y685950D01*
X1024999Y686283D01*
Y686616D01*
X1025333Y685950D02*
X1025999D01*
X1096500Y705249D02*
Y703916D01*
X1097167Y703250D01*
X1097833Y703916D01*
Y705249D01*
X1098833Y703250D02*
X1099499D01*
X1099832Y703583D01*
Y704250D01*
X1099499Y704583D01*
X1098833D01*
X1098499Y704250D01*
Y703583D01*
X1098833Y703250D01*
X1100499Y704583D02*
Y703583D01*
X1100832Y703250D01*
X1101832D01*
Y704583D01*
X1102831Y704916D02*
Y704583D01*
X1102498D01*
X1103164D01*
X1102831D01*
Y703583D01*
X1103164Y703250D01*
X1104164Y702917D02*
X1105497D01*
X1106164Y703250D02*
Y704583D01*
X1106830Y705249D01*
X1107496Y704583D01*
Y703250D01*
Y704250D01*
X1106164D01*
X1103498Y694416D02*
X1103164Y694749D01*
X1102498D01*
X1102165Y694416D01*
Y693083D01*
X1102498Y692750D01*
X1103164D01*
X1103498Y693083D01*
Y693750D01*
X1102831D01*
X1104164Y692750D02*
Y694749D01*
X1105497Y692750D01*
Y694749D01*
X1106164D02*
Y692750D01*
X1107163D01*
X1107496Y693083D01*
Y694416D01*
X1107163Y694749D01*
X1106164D01*
D34*
X991989Y668370D02*
G03*
X991989Y668370I-787J0D01*
G01*
D35*
X1023378Y711063D02*
Y712637D01*
X1020622Y711063D02*
Y712637D01*
X1033278Y709063D02*
Y710637D01*
X1030522Y709063D02*
Y710637D01*
X1013378Y713063D02*
Y714637D01*
X1010622Y713063D02*
Y714637D01*
D36*
X935500Y657549D02*
X937499D01*
X936500D01*
Y654550D01*
X940498Y657049D02*
X939999Y657549D01*
X938999D01*
X938499Y657049D01*
Y655050D01*
X938999Y654550D01*
X939999D01*
X940498Y655050D01*
X941498Y654550D02*
Y656549D01*
X942498Y657549D01*
X943497Y656549D01*
Y654550D01*
Y656049D01*
X941498D01*
X944497Y657049D02*
X944997Y657549D01*
X945997D01*
X946496Y657049D01*
Y655050D01*
X945997Y654550D01*
X944997D01*
X944497Y655050D01*
Y657049D01*
X989400Y657549D02*
X991399D01*
X990400D01*
Y654550D01*
X994398Y657049D02*
X993899Y657549D01*
X992899D01*
X992399Y657049D01*
Y655050D01*
X992899Y654550D01*
X993899D01*
X994398Y655050D01*
X995398Y654550D02*
Y656549D01*
X996398Y657549D01*
X997397Y656549D01*
Y654550D01*
Y656049D01*
X995398D01*
X998397Y654550D02*
X999397D01*
X998897D01*
Y657549D01*
X998397Y657049D01*
X1042900Y657549D02*
X1044899D01*
X1043900D01*
Y654550D01*
X1047898Y657049D02*
X1047399Y657549D01*
X1046399D01*
X1045899Y657049D01*
Y655050D01*
X1046399Y654550D01*
X1047399D01*
X1047898Y655050D01*
X1048898Y654550D02*
Y656549D01*
X1049898Y657549D01*
X1050897Y656549D01*
Y654550D01*
Y656049D01*
X1048898D01*
X1053896Y654550D02*
X1051897D01*
X1053896Y656549D01*
Y657049D01*
X1053397Y657549D01*
X1052397D01*
X1051897Y657049D01*
D37*
X999366Y638817D02*
X999699Y639150D01*
Y639817D01*
X999366Y640150D01*
X999033D01*
X998700Y639817D01*
Y639150D01*
X998367Y638817D01*
X998033D01*
X997700Y639150D01*
Y639817D01*
X998033Y640150D01*
X999699Y638151D02*
X997700D01*
Y637151D01*
X998033Y636818D01*
X999366D01*
X999699Y637151D01*
Y638151D01*
X997700Y636151D02*
X999033D01*
X999699Y635485D01*
X999033Y634818D01*
X997700D01*
X998700D01*
Y636151D01*
X1014766Y638817D02*
X1015099Y639150D01*
Y639817D01*
X1014766Y640150D01*
X1014433D01*
X1014100Y639817D01*
Y639150D01*
X1013766Y638817D01*
X1013433D01*
X1013100Y639150D01*
Y639817D01*
X1013433Y640150D01*
X1014766Y636818D02*
X1015099Y637151D01*
Y637817D01*
X1014766Y638151D01*
X1013433D01*
X1013100Y637817D01*
Y637151D01*
X1013433Y636818D01*
X1015099Y636151D02*
X1013100D01*
Y634818D01*
X1004899Y640250D02*
X1003566D01*
X1002900Y639583D01*
X1003566Y638917D01*
X1004899D01*
X1004233Y636918D02*
Y637917D01*
X1003900Y638251D01*
X1003233D01*
X1002900Y637917D01*
Y636918D01*
X1004233Y634918D02*
Y635918D01*
X1003900Y636251D01*
X1003233D01*
X1002900Y635918D01*
Y634918D01*
X1009766Y639017D02*
X1010099Y639350D01*
Y640017D01*
X1009766Y640350D01*
X1008433D01*
X1008100Y640017D01*
Y639350D01*
X1008433Y639017D01*
X1009100D01*
Y639683D01*
X1008100Y638351D02*
X1010099D01*
X1008100Y637018D01*
X1010099D01*
Y636351D02*
X1008100D01*
Y635352D01*
X1008433Y635018D01*
X1009766D01*
X1010099Y635352D01*
Y636351D01*
X1063366Y639017D02*
X1063699Y639350D01*
Y640017D01*
X1063366Y640350D01*
X1062033D01*
X1061700Y640017D01*
Y639350D01*
X1062033Y639017D01*
X1062700D01*
Y639683D01*
X1061700Y638351D02*
X1063699D01*
X1061700Y637018D01*
X1063699D01*
Y636351D02*
X1061700D01*
Y635352D01*
X1062033Y635018D01*
X1063366D01*
X1063699Y635352D01*
Y636351D01*
X1058499Y640250D02*
X1057166D01*
X1056500Y639583D01*
X1057166Y638917D01*
X1058499D01*
X1057833Y636918D02*
Y637917D01*
X1057500Y638251D01*
X1056833D01*
X1056500Y637917D01*
Y636918D01*
X1057833Y634918D02*
Y635918D01*
X1057500Y636251D01*
X1056833D01*
X1056500Y635918D01*
Y634918D01*
X1068366Y638817D02*
X1068699Y639150D01*
Y639817D01*
X1068366Y640150D01*
X1068033D01*
X1067700Y639817D01*
Y639150D01*
X1067367Y638817D01*
X1067033D01*
X1066700Y639150D01*
Y639817D01*
X1067033Y640150D01*
X1068366Y636818D02*
X1068699Y637151D01*
Y637817D01*
X1068366Y638151D01*
X1067033D01*
X1066700Y637817D01*
Y637151D01*
X1067033Y636818D01*
X1068699Y636151D02*
X1066700D01*
Y634818D01*
X1052966Y638817D02*
X1053299Y639150D01*
Y639817D01*
X1052966Y640150D01*
X1052633D01*
X1052300Y639817D01*
Y639150D01*
X1051966Y638817D01*
X1051633D01*
X1051300Y639150D01*
Y639817D01*
X1051633Y640150D01*
X1053299Y638151D02*
X1051300D01*
Y637151D01*
X1051633Y636818D01*
X1052966D01*
X1053299Y637151D01*
Y638151D01*
X1051300Y636151D02*
X1052633D01*
X1053299Y635485D01*
X1052633Y634818D01*
X1051300D01*
X1052300D01*
Y636151D01*
X945566Y638817D02*
X945899Y639150D01*
Y639817D01*
X945566Y640150D01*
X945233D01*
X944900Y639817D01*
Y639150D01*
X944567Y638817D01*
X944233D01*
X943900Y639150D01*
Y639817D01*
X944233Y640150D01*
X945899Y638151D02*
X943900D01*
Y637151D01*
X944233Y636818D01*
X945566D01*
X945899Y637151D01*
Y638151D01*
X943900Y636151D02*
X945233D01*
X945899Y635485D01*
X945233Y634818D01*
X943900D01*
X944900D01*
Y636151D01*
X960966Y638817D02*
X961299Y639150D01*
Y639817D01*
X960966Y640150D01*
X960633D01*
X960300Y639817D01*
Y639150D01*
X959966Y638817D01*
X959633D01*
X959300Y639150D01*
Y639817D01*
X959633Y640150D01*
X960966Y636818D02*
X961299Y637151D01*
Y637817D01*
X960966Y638151D01*
X959633D01*
X959300Y637817D01*
Y637151D01*
X959633Y636818D01*
X961299Y636151D02*
X959300D01*
Y634818D01*
X951099Y640250D02*
X949767D01*
X949100Y639583D01*
X949767Y638917D01*
X951099D01*
X950433Y636918D02*
Y637917D01*
X950100Y638251D01*
X949433D01*
X949100Y637917D01*
Y636918D01*
X950433Y634918D02*
Y635918D01*
X950100Y636251D01*
X949433D01*
X949100Y635918D01*
Y634918D01*
X955966Y639017D02*
X956299Y639350D01*
Y640017D01*
X955966Y640350D01*
X954633D01*
X954300Y640017D01*
Y639350D01*
X954633Y639017D01*
X955300D01*
Y639683D01*
X954300Y638351D02*
X956299D01*
X954300Y637018D01*
X956299D01*
Y636351D02*
X954300D01*
Y635352D01*
X954633Y635018D01*
X955966D01*
X956299Y635352D01*
Y636351D01*
D38*
X987017Y822150D02*
Y824649D01*
X987850Y823816D01*
X988684Y824649D01*
Y822150D01*
X989517Y824649D02*
Y822150D01*
X990766D01*
X991183Y822567D01*
Y824233D01*
X990766Y824649D01*
X989517D01*
X1010617Y822150D02*
Y824649D01*
X1011450Y823816D01*
X1012284Y824649D01*
Y822150D01*
X1014783Y824233D02*
X1014366Y824649D01*
X1013533D01*
X1013116Y824233D01*
Y822567D01*
X1013533Y822150D01*
X1014366D01*
X1014783Y822567D01*
X1022417Y822150D02*
Y824649D01*
X1023250Y823816D01*
X1024084Y824649D01*
Y822150D01*
X1024916Y824649D02*
Y822150D01*
X1026166D01*
X1026583Y822567D01*
Y822983D01*
X1026166Y823400D01*
X1024916D01*
X1026166D01*
X1026583Y823816D01*
Y824233D01*
X1026166Y824649D01*
X1024916D01*
X999026D02*
Y822983D01*
X999859Y822150D01*
X1000692Y822983D01*
Y824649D01*
X1001525Y823816D02*
Y822150D01*
Y822983D01*
X1001941Y823400D01*
X1002358Y823816D01*
X1002774D01*
X1022626Y833149D02*
Y831483D01*
X1023459Y830650D01*
X1024292Y831483D01*
Y833149D01*
X1025125Y832316D02*
Y830650D01*
Y831483D01*
X1025541Y831900D01*
X1025958Y832316D01*
X1026374D01*
X987434Y832733D02*
X987017Y833149D01*
X986184D01*
X985768Y832733D01*
Y831067D01*
X986184Y830650D01*
X987017D01*
X987434Y831067D01*
Y831900D01*
X986601D01*
X988267Y830650D02*
Y833149D01*
X989933Y830650D01*
Y833149D01*
X990766D02*
Y830650D01*
X992016D01*
X992432Y831067D01*
Y832733D01*
X992016Y833149D01*
X990766D01*
X1010617D02*
X1012284D01*
X1011450D01*
Y830650D01*
X1013116Y833149D02*
X1014783Y830650D01*
Y833149D02*
X1013116Y830650D01*
X998817D02*
Y833149D01*
X1000067D01*
X1000484Y832733D01*
Y831900D01*
X1000067Y831483D01*
X998817D01*
X999650D02*
X1000484Y830650D01*
X1001317Y833149D02*
X1002983Y830650D01*
Y833149D02*
X1001317Y830650D01*
M02*
