G04*
G04 #@! TF.GenerationSoftware,Altium Limited,CircuitStudio,1.5.2 (30)*
G04*
G04 Layer_Physical_Order=1*
G04 Layer_Color=11767835*
%FSLAX25Y25*%
%MOIN*%
G70*
G01*
G75*
%ADD10R,0.02165X0.02165*%
%ADD11R,0.03150X0.03543*%
%ADD12R,0.03543X0.02756*%
%ADD13R,0.03543X0.03150*%
%ADD14R,0.02200X0.05200*%
%ADD15R,0.02000X0.05200*%
%ADD16R,0.01400X0.05800*%
%ADD17R,0.05900X0.01200*%
%ADD18R,0.01614X0.06181*%
%ADD19C,0.01200*%
%ADD20C,0.01500*%
%ADD21C,0.01000*%
%ADD22C,0.06000*%
%ADD23C,0.20000*%
%ADD24C,0.04500*%
%ADD25C,0.03937*%
%ADD26C,0.06600*%
%ADD27R,0.06600X0.06600*%
%ADD28C,0.02000*%
G36*
X1106857Y840596D02*
X1108572Y840185D01*
X1110200Y839510D01*
X1111703Y838589D01*
X1113044Y837444D01*
X1114189Y836104D01*
X1115110Y834600D01*
X1115785Y832972D01*
X1116196Y831258D01*
X1116335Y829500D01*
X1116300D01*
X1116335Y632600D01*
X1116196Y630842D01*
X1115785Y629128D01*
X1115110Y627500D01*
X1114189Y625996D01*
X1113044Y624656D01*
X1111703Y623511D01*
X1110200Y622590D01*
X1108572Y621915D01*
X1106857Y621504D01*
X1105100Y621365D01*
Y621400D01*
X908200Y621365D01*
X906443Y621504D01*
X904728Y621915D01*
X903100Y622590D01*
X901597Y623511D01*
X900256Y624656D01*
X899111Y625996D01*
X898190Y627500D01*
X897515Y629128D01*
X897104Y630842D01*
X896965Y632600D01*
X897000D01*
X896965Y829500D01*
X897104Y831258D01*
X897515Y832972D01*
X898190Y834600D01*
X899111Y836104D01*
X900256Y837444D01*
X901597Y838589D01*
X903100Y839510D01*
X904728Y840185D01*
X906443Y840596D01*
X908200Y840735D01*
Y840700D01*
X1105100Y840735D01*
X1106857Y840596D01*
D02*
G37*
%LPC*%
G36*
X999719Y742150D02*
X997644D01*
Y739878D01*
X999719D01*
Y742150D01*
D02*
G37*
G36*
X996644D02*
X994569D01*
Y739878D01*
X996644D01*
Y742150D01*
D02*
G37*
G36*
X966700Y749587D02*
X965578Y749439D01*
X964532Y749006D01*
X963633Y748317D01*
X962944Y747418D01*
X962511Y746373D01*
X962363Y745250D01*
X962511Y744128D01*
X962944Y743081D01*
X963633Y742183D01*
X964532Y741494D01*
X965578Y741061D01*
X966700Y740913D01*
X967822Y741061D01*
X968869Y741494D01*
X969767Y742183D01*
X970456Y743081D01*
X970889Y744128D01*
X971037Y745250D01*
X970889Y746373D01*
X970456Y747418D01*
X969767Y748317D01*
X968869Y749006D01*
X967822Y749439D01*
X966700Y749587D01*
D02*
G37*
G36*
X991356Y745422D02*
X989281D01*
Y743150D01*
X991356D01*
Y745422D01*
D02*
G37*
G36*
X1046700Y749587D02*
X1045578Y749439D01*
X1044532Y749006D01*
X1043633Y748317D01*
X1042944Y747418D01*
X1042511Y746373D01*
X1042363Y745250D01*
X1042511Y744128D01*
X1042944Y743081D01*
X1043633Y742183D01*
X1044532Y741494D01*
X1045578Y741061D01*
X1046700Y740913D01*
X1047822Y741061D01*
X1048868Y741494D01*
X1049767Y742183D01*
X1050456Y743081D01*
X1050889Y744128D01*
X1051037Y745250D01*
X1050889Y746373D01*
X1050456Y747418D01*
X1049767Y748317D01*
X1048868Y749006D01*
X1047822Y749439D01*
X1046700Y749587D01*
D02*
G37*
G36*
X1111250Y693600D02*
X1107781D01*
X1107853Y693056D01*
X1108256Y692083D01*
X1108897Y691247D01*
X1109733Y690606D01*
X1110706Y690203D01*
X1111250Y690131D01*
Y693600D01*
D02*
G37*
G36*
X1115719D02*
X1112250D01*
Y690131D01*
X1112794Y690203D01*
X1113767Y690606D01*
X1114603Y691247D01*
X1115244Y692083D01*
X1115647Y693056D01*
X1115719Y693600D01*
D02*
G37*
G36*
X1046700Y689587D02*
X1045578Y689439D01*
X1044532Y689006D01*
X1043633Y688317D01*
X1042944Y687419D01*
X1042511Y686373D01*
X1042363Y685250D01*
X1042511Y684128D01*
X1042944Y683081D01*
X1043633Y682183D01*
X1044532Y681494D01*
X1045578Y681061D01*
X1046700Y680913D01*
X1047822Y681061D01*
X1048868Y681494D01*
X1049767Y682183D01*
X1050456Y683081D01*
X1050889Y684128D01*
X1051037Y685250D01*
X1050889Y686373D01*
X1050456Y687419D01*
X1049767Y688317D01*
X1048868Y689006D01*
X1047822Y689439D01*
X1046700Y689587D01*
D02*
G37*
G36*
X994431Y742150D02*
X992356D01*
Y739878D01*
X994431D01*
Y742150D01*
D02*
G37*
G36*
X991356D02*
X989281D01*
Y739878D01*
X991356D01*
Y742150D01*
D02*
G37*
G36*
X994431Y745422D02*
X992356D01*
Y743150D01*
X994431D01*
Y745422D01*
D02*
G37*
G36*
X1022772Y674051D02*
X1021465D01*
Y670460D01*
X1022772D01*
Y674051D01*
D02*
G37*
G36*
X1046700Y759587D02*
X1045578Y759439D01*
X1044532Y759006D01*
X1043633Y758317D01*
X1042944Y757418D01*
X1042511Y756372D01*
X1042363Y755250D01*
X1042511Y754128D01*
X1042944Y753081D01*
X1043633Y752183D01*
X1044532Y751494D01*
X1045578Y751061D01*
X1046700Y750913D01*
X1047822Y751061D01*
X1048868Y751494D01*
X1049767Y752183D01*
X1050456Y753081D01*
X1050889Y754128D01*
X1051037Y755250D01*
X1050889Y756372D01*
X1050456Y757418D01*
X1049767Y758317D01*
X1048868Y759006D01*
X1047822Y759439D01*
X1046700Y759587D01*
D02*
G37*
G36*
X991400Y762518D02*
X989128D01*
Y760443D01*
X991400D01*
Y762518D01*
D02*
G37*
G36*
X967200Y769587D02*
X966078Y769439D01*
X965032Y769006D01*
X964133Y768317D01*
X963444Y767418D01*
X963011Y766372D01*
X962863Y765250D01*
X963011Y764127D01*
X963444Y763081D01*
X964133Y762183D01*
X965032Y761494D01*
X966078Y761061D01*
X967200Y760913D01*
X968322Y761061D01*
X969368Y761494D01*
X970267Y762183D01*
X970956Y763081D01*
X971389Y764127D01*
X971537Y765250D01*
X971389Y766372D01*
X970956Y767418D01*
X970267Y768317D01*
X969368Y769006D01*
X968322Y769439D01*
X967200Y769587D01*
D02*
G37*
G36*
X994672Y762518D02*
X992400D01*
Y760443D01*
X994672D01*
Y762518D01*
D02*
G37*
G36*
X1022772Y678641D02*
X1021465D01*
Y675051D01*
X1022772D01*
Y678641D01*
D02*
G37*
G36*
X966700Y689587D02*
X965578Y689439D01*
X964532Y689006D01*
X963633Y688317D01*
X962944Y687419D01*
X962511Y686373D01*
X962363Y685250D01*
X962511Y684128D01*
X962944Y683081D01*
X963633Y682183D01*
X964532Y681494D01*
X965578Y681061D01*
X966700Y680913D01*
X967822Y681061D01*
X968869Y681494D01*
X969767Y682183D01*
X970456Y683081D01*
X970889Y684128D01*
X971037Y685250D01*
X970889Y686373D01*
X970456Y687419D01*
X969767Y688317D01*
X968869Y689006D01*
X967822Y689439D01*
X966700Y689587D01*
D02*
G37*
G36*
X1046700Y679587D02*
X1045578Y679439D01*
X1044532Y679006D01*
X1043633Y678317D01*
X1042944Y677419D01*
X1042511Y676372D01*
X1042363Y675250D01*
X1042511Y674127D01*
X1042944Y673081D01*
X1043633Y672183D01*
X1044532Y671494D01*
X1045578Y671061D01*
X1046700Y670913D01*
X1047822Y671061D01*
X1048868Y671494D01*
X1049767Y672183D01*
X1050456Y673081D01*
X1050889Y674127D01*
X1051037Y675250D01*
X1050889Y676372D01*
X1050456Y677419D01*
X1049767Y678317D01*
X1048868Y679006D01*
X1047822Y679439D01*
X1046700Y679587D01*
D02*
G37*
G36*
X966700Y759587D02*
X965578Y759439D01*
X964532Y759006D01*
X963633Y758317D01*
X962944Y757418D01*
X962511Y756372D01*
X962363Y755250D01*
X962511Y754128D01*
X962944Y753081D01*
X963633Y752183D01*
X964532Y751494D01*
X965578Y751061D01*
X966700Y750913D01*
X967822Y751061D01*
X968869Y751494D01*
X969767Y752183D01*
X970456Y753081D01*
X970889Y754128D01*
X971037Y755250D01*
X970889Y756372D01*
X970456Y757418D01*
X969767Y758317D01*
X968869Y759006D01*
X967822Y759439D01*
X966700Y759587D01*
D02*
G37*
G36*
X1094598Y749091D02*
X1093818Y748936D01*
X1093666Y748834D01*
X1080529D01*
X1080380Y748934D01*
X1079600Y749089D01*
X1078820Y748934D01*
X1078158Y748492D01*
X1077716Y747830D01*
X1077561Y747050D01*
X1077716Y746270D01*
X1078158Y745608D01*
X1078820Y745166D01*
X1079600Y745011D01*
X1080380Y745166D01*
X1080529Y745266D01*
X1093672D01*
X1093818Y745168D01*
X1094598Y745013D01*
X1095378Y745168D01*
X1096040Y745610D01*
X1096482Y746272D01*
X1096637Y747052D01*
X1096482Y747832D01*
X1096040Y748494D01*
X1095378Y748936D01*
X1094598Y749091D01*
D02*
G37*
G36*
X991400Y735550D02*
X989900D01*
Y732450D01*
X991400D01*
Y735550D01*
D02*
G37*
G36*
X966700Y719587D02*
X965578Y719439D01*
X964532Y719006D01*
X963633Y718317D01*
X962944Y717418D01*
X962511Y716372D01*
X962363Y715250D01*
X962511Y714127D01*
X962944Y713081D01*
X963633Y712183D01*
X964532Y711494D01*
X965578Y711061D01*
X966700Y710913D01*
X967822Y711061D01*
X968869Y711494D01*
X969767Y712183D01*
X970456Y713081D01*
X970889Y714127D01*
X971037Y715250D01*
X970889Y716372D01*
X970456Y717418D01*
X969767Y718317D01*
X968869Y719006D01*
X967822Y719439D01*
X966700Y719587D01*
D02*
G37*
G36*
Y709587D02*
X965578Y709439D01*
X964532Y709006D01*
X963633Y708317D01*
X962944Y707418D01*
X962511Y706372D01*
X962363Y705250D01*
X962511Y704128D01*
X962944Y703081D01*
X963633Y702183D01*
X964532Y701494D01*
X965578Y701061D01*
X966700Y700913D01*
X967822Y701061D01*
X968869Y701494D01*
X969767Y702183D01*
X970456Y703081D01*
X970889Y704128D01*
X971037Y705250D01*
X970889Y706372D01*
X970456Y707418D01*
X969767Y708317D01*
X968869Y709006D01*
X967822Y709439D01*
X966700Y709587D01*
D02*
G37*
G36*
X1046700Y719587D02*
X1045578Y719439D01*
X1044532Y719006D01*
X1043633Y718317D01*
X1042944Y717418D01*
X1042511Y716372D01*
X1042363Y715250D01*
X1042511Y714127D01*
X1042944Y713081D01*
X1043633Y712183D01*
X1044532Y711494D01*
X1045578Y711061D01*
X1046700Y710913D01*
X1047822Y711061D01*
X1048868Y711494D01*
X1049767Y712183D01*
X1050456Y713081D01*
X1050889Y714127D01*
X1051037Y715250D01*
X1050889Y716372D01*
X1050456Y717418D01*
X1049767Y718317D01*
X1048868Y719006D01*
X1047822Y719439D01*
X1046700Y719587D01*
D02*
G37*
G36*
X994331Y716634D02*
X992256D01*
Y714362D01*
X994331D01*
Y716634D01*
D02*
G37*
G36*
X991256D02*
X989181D01*
Y714362D01*
X991256D01*
Y716634D01*
D02*
G37*
G36*
X1111250Y698069D02*
X1110706Y697997D01*
X1109733Y697594D01*
X1108897Y696953D01*
X1108256Y696117D01*
X1107853Y695144D01*
X1107781Y694600D01*
X1111250D01*
Y698069D01*
D02*
G37*
G36*
X1022772Y701240D02*
X1000993D01*
Y697149D01*
Y693059D01*
X1022772D01*
Y701240D01*
D02*
G37*
G36*
X1112250Y698069D02*
Y694600D01*
X1115719D01*
X1115647Y695144D01*
X1115244Y696117D01*
X1114603Y696953D01*
X1113767Y697594D01*
X1112794Y697997D01*
X1112250Y698069D01*
D02*
G37*
G36*
X966700Y699587D02*
X965578Y699439D01*
X964532Y699006D01*
X963633Y698317D01*
X962944Y697418D01*
X962511Y696373D01*
X962363Y695250D01*
X962511Y694128D01*
X962944Y693081D01*
X963633Y692183D01*
X964532Y691494D01*
X965578Y691061D01*
X966700Y690913D01*
X967822Y691061D01*
X968869Y691494D01*
X969767Y692183D01*
X970456Y693081D01*
X970889Y694128D01*
X971037Y695250D01*
X970889Y696373D01*
X970456Y697418D01*
X969767Y698317D01*
X968869Y699006D01*
X967822Y699439D01*
X966700Y699587D01*
D02*
G37*
G36*
X1046700D02*
X1045578Y699439D01*
X1044532Y699006D01*
X1043633Y698317D01*
X1042944Y697418D01*
X1042511Y696373D01*
X1042363Y695250D01*
X1042511Y694128D01*
X1042944Y693081D01*
X1043633Y692183D01*
X1044532Y691494D01*
X1045578Y691061D01*
X1046700Y690913D01*
X1047822Y691061D01*
X1048868Y691494D01*
X1049767Y692183D01*
X1050456Y693081D01*
X1050889Y694128D01*
X1051037Y695250D01*
X1050889Y696373D01*
X1050456Y697418D01*
X1049767Y698317D01*
X1048868Y699006D01*
X1047822Y699439D01*
X1046700Y699587D01*
D02*
G37*
G36*
X966700Y729587D02*
X965578Y729439D01*
X964532Y729006D01*
X963633Y728317D01*
X962944Y727419D01*
X962511Y726372D01*
X962363Y725250D01*
X962511Y724127D01*
X962944Y723081D01*
X963633Y722183D01*
X964532Y721494D01*
X965578Y721061D01*
X966700Y720913D01*
X967822Y721061D01*
X968869Y721494D01*
X969767Y722183D01*
X970456Y723081D01*
X970889Y724127D01*
X971037Y725250D01*
X970889Y726372D01*
X970456Y727419D01*
X969767Y728317D01*
X968869Y729006D01*
X967822Y729439D01*
X966700Y729587D01*
D02*
G37*
G36*
X991400Y731450D02*
X989900D01*
Y728350D01*
X991400D01*
Y731450D01*
D02*
G37*
G36*
X988900D02*
X987400D01*
Y728350D01*
X988900D01*
Y731450D01*
D02*
G37*
G36*
X966700Y739587D02*
X965578Y739439D01*
X964532Y739006D01*
X963633Y738317D01*
X962944Y737419D01*
X962511Y736373D01*
X962363Y735250D01*
X962511Y734128D01*
X962944Y733081D01*
X963633Y732183D01*
X964532Y731494D01*
X965578Y731061D01*
X966700Y730913D01*
X967822Y731061D01*
X968869Y731494D01*
X969767Y732183D01*
X970456Y733081D01*
X970889Y734128D01*
X971037Y735250D01*
X970889Y736373D01*
X970456Y737419D01*
X969767Y738317D01*
X968869Y739006D01*
X967822Y739439D01*
X966700Y739587D01*
D02*
G37*
G36*
X988900Y735550D02*
X987400D01*
Y732450D01*
X988900D01*
Y735550D01*
D02*
G37*
G36*
X1046700Y739587D02*
X1045578Y739439D01*
X1044532Y739006D01*
X1043633Y738317D01*
X1042944Y737419D01*
X1042511Y736373D01*
X1042363Y735250D01*
X1042511Y734128D01*
X1042944Y733081D01*
X1043633Y732183D01*
X1044532Y731494D01*
X1045578Y731061D01*
X1046700Y730913D01*
X1047822Y731061D01*
X1048868Y731494D01*
X1049767Y732183D01*
X1050456Y733081D01*
X1050889Y734128D01*
X1051037Y735250D01*
X1050889Y736373D01*
X1050456Y737419D01*
X1049767Y738317D01*
X1048868Y739006D01*
X1047822Y739439D01*
X1046700Y739587D01*
D02*
G37*
G36*
X1001516Y724000D02*
X999088D01*
X999124Y723725D01*
X999424Y723003D01*
X999899Y722383D01*
X1000519Y721907D01*
X1001241Y721608D01*
X1001516Y721572D01*
Y724000D01*
D02*
G37*
G36*
X1046700Y729587D02*
X1045578Y729439D01*
X1044532Y729006D01*
X1043633Y728317D01*
X1042944Y727419D01*
X1042511Y726372D01*
X1042363Y725250D01*
X1042511Y724127D01*
X1042944Y723081D01*
X1043633Y722183D01*
X1044532Y721494D01*
X1045578Y721061D01*
X1046700Y720913D01*
X1047822Y721061D01*
X1048868Y721494D01*
X1049767Y722183D01*
X1050456Y723081D01*
X1050889Y724127D01*
X1051037Y725250D01*
X1050889Y726372D01*
X1050456Y727419D01*
X1049767Y728317D01*
X1048868Y729006D01*
X1047822Y729439D01*
X1046700Y729587D01*
D02*
G37*
G36*
X1004945Y724000D02*
X1002516D01*
Y721572D01*
X1002791Y721608D01*
X1003514Y721907D01*
X1004134Y722383D01*
X1004609Y723003D01*
X1004908Y723725D01*
X1004945Y724000D01*
D02*
G37*
G36*
X1002516Y727428D02*
Y725000D01*
X1004945D01*
X1004908Y725275D01*
X1004609Y725997D01*
X1004134Y726617D01*
X1003514Y727093D01*
X1002791Y727392D01*
X1002516Y727428D01*
D02*
G37*
G36*
X1001516D02*
X1001241Y727392D01*
X1000519Y727093D01*
X999899Y726617D01*
X999424Y725997D01*
X999124Y725275D01*
X999088Y725000D01*
X1001516D01*
Y727428D01*
D02*
G37*
G36*
X1046700Y769587D02*
X1045578Y769439D01*
X1044532Y769006D01*
X1043633Y768317D01*
X1042944Y767418D01*
X1042511Y766372D01*
X1042363Y765250D01*
X1042511Y764127D01*
X1042944Y763081D01*
X1043633Y762183D01*
X1044532Y761494D01*
X1045578Y761061D01*
X1046700Y760913D01*
X1047822Y761061D01*
X1048868Y761494D01*
X1049767Y762183D01*
X1050456Y763081D01*
X1050889Y764127D01*
X1051037Y765250D01*
X1050889Y766372D01*
X1050456Y767418D01*
X1049767Y768317D01*
X1048868Y769006D01*
X1047822Y769439D01*
X1046700Y769587D01*
D02*
G37*
G36*
X933978Y797353D02*
X927778D01*
X927388Y797275D01*
X927057Y797054D01*
X927026Y797008D01*
X926400D01*
X926010Y796931D01*
X925679Y796709D01*
X925639Y796649D01*
X925321Y796586D01*
X924990Y796365D01*
X924960Y796319D01*
X924678D01*
X924288Y796242D01*
X923957Y796021D01*
X923926Y795975D01*
X923645D01*
X923254Y795897D01*
X922924Y795676D01*
X922883Y795616D01*
X922565Y795553D01*
X922235Y795332D01*
X922194Y795271D01*
X921877Y795208D01*
X921546Y794987D01*
X921408Y794781D01*
X921247Y794673D01*
X921201Y794643D01*
X921063Y794436D01*
X920857Y794298D01*
X920817Y794238D01*
X920499Y794175D01*
X920168Y793954D01*
X920030Y793748D01*
X919824Y793610D01*
X919686Y793403D01*
X919479Y793265D01*
X919439Y793205D01*
X919121Y793142D01*
X918790Y792921D01*
X918652Y792714D01*
X918446Y792576D01*
X918308Y792370D01*
X918101Y792232D01*
X918058Y792167D01*
X918042Y792245D01*
X917821Y792576D01*
X917490Y792797D01*
X917100Y792875D01*
X916474D01*
X916443Y792921D01*
X916113Y793142D01*
X915722Y793219D01*
X915096D01*
X915066Y793265D01*
X915005Y793305D01*
X914942Y793623D01*
X914721Y793954D01*
X914675Y793985D01*
Y794266D01*
Y794611D01*
Y794955D01*
Y795300D01*
X914598Y795690D01*
X914377Y796021D01*
X914046Y796242D01*
X913656Y796319D01*
X913311D01*
X912921Y796242D01*
X912590Y796021D01*
X912369Y795690D01*
X912306Y795372D01*
X912246Y795332D01*
X912025Y795001D01*
X911947Y794611D01*
Y794266D01*
Y793922D01*
Y793577D01*
Y793296D01*
X911902Y793265D01*
X911871Y793219D01*
X910900D01*
X910510Y793142D01*
X910179Y792921D01*
X910149Y792875D01*
X909867D01*
X909477Y792797D01*
X909146Y792576D01*
X908925Y792245D01*
X908847Y791855D01*
Y791511D01*
X908925Y791121D01*
X909146Y790790D01*
X909477Y790569D01*
X909867Y790491D01*
X911182D01*
X911213Y790445D01*
X911543Y790224D01*
X911861Y790161D01*
X911902Y790101D01*
X911947Y790070D01*
Y789789D01*
Y789444D01*
Y789100D01*
Y788755D01*
X912025Y788365D01*
X912246Y788034D01*
X912306Y787994D01*
X912369Y787676D01*
X912590Y787346D01*
X912921Y787124D01*
X913311Y787047D01*
X913656D01*
X914046Y787124D01*
X914377Y787346D01*
X914598Y787676D01*
X914675Y788066D01*
Y788411D01*
Y788755D01*
Y789100D01*
Y789382D01*
X914721Y789412D01*
X914942Y789743D01*
X914951Y789789D01*
X915005Y790061D01*
X915066Y790101D01*
X915106Y790161D01*
X915424Y790224D01*
X915755Y790445D01*
X915785Y790491D01*
X916711D01*
X916503Y790179D01*
X916459Y789959D01*
X916439Y789861D01*
X916379Y789821D01*
X916241Y789614D01*
X916035Y789476D01*
X915897Y789270D01*
X915690Y789132D01*
X915469Y788801D01*
X915392Y788411D01*
Y788129D01*
X915346Y788098D01*
X915324Y788066D01*
X915208Y787892D01*
X915037Y787778D01*
X915001Y787754D01*
X914781Y787423D01*
X914717Y787105D01*
X914657Y787065D01*
X914436Y786734D01*
X914358Y786344D01*
Y786062D01*
X914313Y786032D01*
X914092Y785701D01*
X914014Y785311D01*
Y784967D01*
Y784622D01*
Y784340D01*
X913968Y784310D01*
X913747Y783979D01*
X913684Y783661D01*
X913624Y783621D01*
X913403Y783290D01*
X913325Y782900D01*
Y782555D01*
Y782211D01*
Y781867D01*
Y781522D01*
Y781178D01*
Y780833D01*
Y780489D01*
Y780144D01*
X913359Y779972D01*
X913325Y779800D01*
Y779456D01*
Y779111D01*
Y778767D01*
Y778422D01*
Y778078D01*
Y777733D01*
Y777389D01*
Y777044D01*
Y776700D01*
Y776356D01*
X913403Y775965D01*
X913624Y775635D01*
X913670Y775604D01*
Y775322D01*
Y774978D01*
X913747Y774588D01*
X913968Y774257D01*
X914014Y774226D01*
Y773945D01*
X914092Y773554D01*
X914313Y773224D01*
X914373Y773183D01*
X914436Y772865D01*
X914657Y772535D01*
X914717Y772495D01*
X914781Y772177D01*
X915001Y771846D01*
X915332Y771625D01*
X915392Y771613D01*
Y771533D01*
Y771189D01*
X915469Y770799D01*
X915690Y770468D01*
X915751Y770428D01*
X915814Y770110D01*
X916035Y769779D01*
X916241Y769641D01*
X916379Y769435D01*
X916439Y769394D01*
X916503Y769077D01*
X916724Y768746D01*
X916930Y768608D01*
X917068Y768401D01*
X917399Y768180D01*
X917513Y768158D01*
X917536Y768043D01*
X917757Y767713D01*
X917964Y767575D01*
X918101Y767368D01*
X918308Y767230D01*
X918446Y767024D01*
X918652Y766886D01*
X918790Y766679D01*
X918997Y766541D01*
X919135Y766335D01*
X919341Y766197D01*
X919479Y765990D01*
X919686Y765852D01*
X919824Y765646D01*
X920154Y765425D01*
X920472Y765362D01*
X920512Y765302D01*
X920719Y765164D01*
X920817Y765017D01*
X920857Y764957D01*
X921188Y764736D01*
X921506Y764673D01*
X921546Y764613D01*
X921752Y764475D01*
X921860Y764314D01*
X921890Y764268D01*
X922221Y764047D01*
X922539Y763984D01*
X922579Y763924D01*
X922910Y763703D01*
X923228Y763639D01*
X923268Y763579D01*
X923599Y763358D01*
X923989Y763281D01*
X924271D01*
X924301Y763235D01*
X924632Y763014D01*
X924950Y762951D01*
X924990Y762890D01*
X925321Y762669D01*
X925711Y762592D01*
X926337D01*
X926368Y762546D01*
X926699Y762325D01*
X927089Y762247D01*
X928404D01*
X928434Y762202D01*
X928765Y761981D01*
X929156Y761903D01*
X932600D01*
X932990Y761981D01*
X933321Y762202D01*
X933351Y762247D01*
X935011D01*
X935401Y762325D01*
X935732Y762546D01*
X935763Y762592D01*
X936044D01*
X936434Y762669D01*
X936765Y762890D01*
X936796Y762936D01*
X937078D01*
X937468Y763014D01*
X937799Y763235D01*
X937936Y763441D01*
X938143Y763579D01*
X938174Y763625D01*
X938455D01*
X938846Y763703D01*
X939176Y763924D01*
X939217Y763984D01*
X939534Y764047D01*
X939865Y764268D01*
X939905Y764328D01*
X940223Y764392D01*
X940554Y764613D01*
X940692Y764819D01*
X940898Y764957D01*
X941036Y765164D01*
X941243Y765302D01*
X941283Y765362D01*
X941601Y765425D01*
X941932Y765646D01*
X942070Y765852D01*
X942276Y765990D01*
X942414Y766197D01*
X942621Y766335D01*
X942661Y766395D01*
X942979Y766458D01*
X943309Y766679D01*
X943384Y766791D01*
X943447Y766886D01*
X943654Y767024D01*
X943792Y767230D01*
X943998Y767368D01*
X944219Y767699D01*
X944283Y768017D01*
X944343Y768057D01*
X944425Y768180D01*
X944481Y768263D01*
X944669Y768389D01*
Y768089D01*
X944746Y767699D01*
X944967Y767368D01*
X945298Y767147D01*
X945689Y767069D01*
X946047D01*
Y767056D01*
Y766711D01*
X946124Y766321D01*
X946345Y765990D01*
X946676Y765769D01*
X947066Y765692D01*
X947411D01*
X947801Y765769D01*
X948132Y765990D01*
X948353Y766321D01*
X948430Y766711D01*
Y767056D01*
Y767069D01*
X948788D01*
X949179Y767147D01*
X949509Y767368D01*
X949730Y767699D01*
X949808Y768089D01*
Y768434D01*
Y768778D01*
X949730Y769168D01*
X949509Y769499D01*
X949179Y769720D01*
X948788Y769798D01*
X948507D01*
X948476Y769843D01*
X948430Y769874D01*
Y770156D01*
X948353Y770546D01*
X948132Y770877D01*
X947801Y771098D01*
X947411Y771175D01*
X947066D01*
X946676Y771098D01*
X946539Y771006D01*
X946630Y771143D01*
X946708Y771533D01*
Y771613D01*
X946768Y771625D01*
X947098Y771846D01*
X947319Y772177D01*
X947397Y772567D01*
Y772849D01*
X947443Y772879D01*
X947664Y773210D01*
X947741Y773600D01*
Y773945D01*
Y774226D01*
X947787Y774257D01*
X948008Y774588D01*
X948086Y774978D01*
Y775260D01*
X948132Y775290D01*
X948353Y775621D01*
X948430Y776011D01*
Y776356D01*
Y776700D01*
Y777044D01*
Y777389D01*
Y777733D01*
Y778015D01*
X948476Y778046D01*
X948697Y778376D01*
X948775Y778767D01*
Y779111D01*
Y779456D01*
X948706Y779800D01*
X948775Y780144D01*
Y780489D01*
Y780833D01*
Y781178D01*
X948697Y781568D01*
X948476Y781899D01*
X948430Y781929D01*
Y782211D01*
Y782555D01*
Y782900D01*
Y783244D01*
X948353Y783635D01*
X948132Y783965D01*
X948071Y784005D01*
X948051Y784105D01*
X948086Y784278D01*
Y784622D01*
X948008Y785012D01*
X947787Y785343D01*
X947741Y785374D01*
Y785655D01*
X947664Y786046D01*
X947443Y786376D01*
X947397Y786407D01*
Y786689D01*
X947319Y787079D01*
X947098Y787410D01*
X946892Y787548D01*
X946754Y787754D01*
X946547Y787892D01*
X946409Y788098D01*
X946364Y788129D01*
Y788411D01*
X946286Y788801D01*
X946065Y789132D01*
X946005Y789172D01*
X945942Y789490D01*
X945728Y789810D01*
X946079Y789880D01*
X946409Y790101D01*
X946630Y790432D01*
X946708Y790822D01*
Y791166D01*
Y791448D01*
X946754Y791479D01*
X946784Y791525D01*
X947411D01*
X947801Y791602D01*
X948132Y791823D01*
X948353Y792154D01*
X948430Y792544D01*
Y792889D01*
X948353Y793279D01*
X948132Y793610D01*
X947801Y793830D01*
X947411Y793908D01*
X947129D01*
X947098Y793954D01*
X946768Y794175D01*
X946708Y794187D01*
Y794266D01*
Y794611D01*
Y794955D01*
X946630Y795345D01*
X946409Y795676D01*
X946079Y795897D01*
X945689Y795975D01*
X945344D01*
X944954Y795897D01*
X944623Y795676D01*
X944485Y795470D01*
X944279Y795332D01*
X944058Y795001D01*
X943980Y794611D01*
Y794266D01*
Y794187D01*
X943921Y794175D01*
X943590Y793954D01*
X943559Y793908D01*
X943277D01*
X942887Y793830D01*
X942556Y793610D01*
X942417Y793401D01*
X942414Y793403D01*
X942276Y793610D01*
X941945Y793830D01*
X941628Y793894D01*
X941587Y793954D01*
X941257Y794175D01*
X940939Y794238D01*
X940898Y794298D01*
X940692Y794436D01*
X940554Y794643D01*
X940347Y794781D01*
X940210Y794987D01*
X939879Y795208D01*
X939561Y795271D01*
X939521Y795332D01*
X939190Y795553D01*
X938872Y795616D01*
X938832Y795676D01*
X938501Y795897D01*
X938183Y795960D01*
X938143Y796021D01*
X937812Y796242D01*
X937422Y796319D01*
X937140D01*
X937110Y796365D01*
X936779Y796586D01*
X936389Y796664D01*
X936107D01*
X936076Y796709D01*
X935746Y796931D01*
X935355Y797008D01*
X934729D01*
X934699Y797054D01*
X934368Y797275D01*
X933978Y797353D01*
D02*
G37*
G36*
X1046700Y799587D02*
X1045578Y799439D01*
X1044532Y799006D01*
X1043633Y798317D01*
X1042944Y797418D01*
X1042511Y796373D01*
X1042363Y795250D01*
X1042511Y794128D01*
X1042944Y793081D01*
X1043633Y792183D01*
X1044532Y791494D01*
X1045578Y791061D01*
X1046700Y790913D01*
X1047822Y791061D01*
X1048868Y791494D01*
X1049767Y792183D01*
X1050456Y793081D01*
X1050889Y794128D01*
X1051037Y795250D01*
X1050889Y796373D01*
X1050456Y797418D01*
X1049767Y798317D01*
X1048868Y799006D01*
X1047822Y799439D01*
X1046700Y799587D01*
D02*
G37*
G36*
X908200Y643634D02*
X906474Y643498D01*
X904790Y643094D01*
X903191Y642431D01*
X901714Y641527D01*
X900398Y640402D01*
X899273Y639086D01*
X898369Y637609D01*
X897706Y636010D01*
X897302Y634326D01*
X897166Y632600D01*
X897302Y630874D01*
X897706Y629190D01*
X898369Y627591D01*
X899273Y626114D01*
X900398Y624798D01*
X901714Y623673D01*
X903191Y622769D01*
X904790Y622106D01*
X906474Y621702D01*
X908200Y621566D01*
X909926Y621702D01*
X911610Y622106D01*
X913209Y622769D01*
X914686Y623673D01*
X916002Y624798D01*
X917127Y626114D01*
X918031Y627591D01*
X918694Y629190D01*
X919098Y630874D01*
X919234Y632600D01*
X919098Y634326D01*
X918694Y636010D01*
X918031Y637609D01*
X917127Y639086D01*
X916002Y640402D01*
X914686Y641527D01*
X913209Y642431D01*
X911610Y643094D01*
X909926Y643498D01*
X908200Y643634D01*
D02*
G37*
G36*
X1046700Y809587D02*
X1045578Y809439D01*
X1044532Y809006D01*
X1043633Y808317D01*
X1042944Y807419D01*
X1042511Y806373D01*
X1042363Y805250D01*
X1042511Y804128D01*
X1042944Y803081D01*
X1043633Y802183D01*
X1044532Y801494D01*
X1045578Y801061D01*
X1046700Y800913D01*
X1047822Y801061D01*
X1048868Y801494D01*
X1049767Y802183D01*
X1050456Y803081D01*
X1050889Y804128D01*
X1051037Y805250D01*
X1050889Y806373D01*
X1050456Y807419D01*
X1049767Y808317D01*
X1048868Y809006D01*
X1047822Y809439D01*
X1046700Y809587D01*
D02*
G37*
G36*
X1024500Y809834D02*
X1023456Y809697D01*
X1022483Y809294D01*
X1021647Y808653D01*
X1021006Y807817D01*
X1020603Y806844D01*
X1020465Y805800D01*
X1020603Y804756D01*
X1021006Y803783D01*
X1021647Y802947D01*
X1022483Y802306D01*
X1023456Y801903D01*
X1024500Y801766D01*
X1025544Y801903D01*
X1025777Y801999D01*
X1028116Y799661D01*
Y795723D01*
X1027994Y796017D01*
X1027353Y796853D01*
X1026517Y797494D01*
X1025544Y797897D01*
X1024500Y798034D01*
X1023456Y797897D01*
X1022483Y797494D01*
X1021647Y796853D01*
X1021006Y796017D01*
X1020603Y795044D01*
X1020465Y794000D01*
X1020603Y792956D01*
X1020805Y792468D01*
X1019419Y791081D01*
X1019087Y790585D01*
X1018971Y790000D01*
Y775700D01*
X1018688D01*
Y780519D01*
X1013145D01*
Y775700D01*
X1012829D01*
Y789983D01*
X1013744Y790103D01*
X1014717Y790506D01*
X1015553Y791147D01*
X1016194Y791983D01*
X1016597Y792956D01*
X1016735Y794000D01*
X1016597Y795044D01*
X1016194Y796017D01*
X1015553Y796853D01*
X1014717Y797494D01*
X1013744Y797897D01*
X1012700Y798034D01*
X1011656Y797897D01*
X1010683Y797494D01*
X1009847Y796853D01*
X1009206Y796017D01*
X1008803Y795044D01*
X1008665Y794000D01*
X1008803Y792956D01*
X1009206Y791983D01*
X1009771Y791247D01*
Y775700D01*
X1008247D01*
Y780772D01*
X1006701D01*
Y789984D01*
X1006701Y789984D01*
X1006565Y790666D01*
X1006178Y791245D01*
X1004700Y792723D01*
X1004797Y792956D01*
X1004935Y794000D01*
X1004797Y795044D01*
X1004394Y796017D01*
X1003753Y796853D01*
X1002917Y797494D01*
X1001944Y797897D01*
X1000900Y798034D01*
X999856Y797897D01*
X998883Y797494D01*
X998047Y796853D01*
X997406Y796017D01*
X997003Y795044D01*
X996865Y794000D01*
X997003Y792956D01*
X997406Y791983D01*
X998047Y791147D01*
X998883Y790506D01*
X999856Y790103D01*
X1000900Y789965D01*
X1001944Y790103D01*
X1002177Y790199D01*
X1003132Y789245D01*
Y780772D01*
X1003098D01*
Y775700D01*
X1002735D01*
Y777500D01*
X1000161D01*
X997586D01*
Y775700D01*
X995516D01*
Y775663D01*
X990629Y780550D01*
Y790304D01*
X991117Y790506D01*
X991953Y791147D01*
X992594Y791983D01*
X992997Y792956D01*
X993134Y794000D01*
X992997Y795044D01*
X992594Y796017D01*
X991953Y796853D01*
X991117Y797494D01*
X990144Y797897D01*
X989100Y798034D01*
X988056Y797897D01*
X987083Y797494D01*
X986247Y796853D01*
X985606Y796017D01*
X985203Y795044D01*
X985065Y794000D01*
X985203Y792956D01*
X985606Y791983D01*
X986247Y791147D01*
X987083Y790506D01*
X987571Y790304D01*
Y779916D01*
X987687Y779331D01*
X988019Y778835D01*
X995516Y771337D01*
Y767900D01*
X1000532D01*
Y765300D01*
X1000668Y764617D01*
X1001055Y764038D01*
X1010832Y754261D01*
Y752700D01*
X1006701D01*
Y755013D01*
X1006784Y755434D01*
X1006784Y755434D01*
Y755520D01*
X1006884Y755670D01*
X1007039Y756450D01*
X1006884Y757230D01*
X1006442Y757892D01*
X1005780Y758334D01*
X1005000Y758489D01*
X1004220Y758334D01*
X1003842Y758081D01*
X994672D01*
Y760081D01*
X989128D01*
Y757385D01*
X983547Y751803D01*
X983193Y751274D01*
X983069Y750650D01*
Y711934D01*
X983142Y711563D01*
X981584D01*
X980998Y711447D01*
X980502Y711115D01*
X976019Y706631D01*
X975687Y706135D01*
X975571Y705550D01*
Y686283D01*
X968462Y679175D01*
X967822Y679439D01*
X966700Y679587D01*
X965578Y679439D01*
X964532Y679006D01*
X963633Y678317D01*
X962944Y677419D01*
X962679Y676779D01*
X953126D01*
Y677333D01*
X945417D01*
Y673167D01*
X945716D01*
Y670150D01*
Y667333D01*
X945417D01*
Y663167D01*
X945716D01*
Y659250D01*
X945852Y658567D01*
X945971Y658389D01*
Y655070D01*
X935100D01*
X934710Y654992D01*
X934379Y654771D01*
X934158Y654440D01*
X934080Y654050D01*
Y641050D01*
X934158Y640660D01*
X934379Y640329D01*
X934710Y640108D01*
X935100Y640030D01*
X1078100D01*
X1078490Y640108D01*
X1078821Y640329D01*
X1079042Y640660D01*
X1079120Y641050D01*
Y654050D01*
X1079042Y654440D01*
X1078821Y654771D01*
X1078490Y654992D01*
X1078100Y655070D01*
X1065401D01*
X1065011Y654992D01*
X1064790Y654844D01*
X1064680Y654771D01*
Y654771D01*
X1064680D01*
X1064459Y654440D01*
X1064459Y654440D01*
X1064429Y654368D01*
X1062566Y656231D01*
X1062070Y656563D01*
X1061485Y656679D01*
X1024333D01*
X1014817Y666196D01*
Y670460D01*
X1020465D01*
Y674551D01*
Y678641D01*
X995874D01*
Y674551D01*
X994874D01*
Y678641D01*
X991008D01*
Y670460D01*
X992307D01*
Y668930D01*
X984157Y660779D01*
X949284D01*
Y663167D01*
X953126D01*
Y663721D01*
X962679D01*
X962944Y663081D01*
X963633Y662183D01*
X964532Y661494D01*
X965578Y661061D01*
X966700Y660913D01*
X967822Y661061D01*
X968869Y661494D01*
X969767Y662183D01*
X970456Y663081D01*
X970889Y664127D01*
X971037Y665250D01*
X970889Y666372D01*
X970625Y667012D01*
X996456Y692843D01*
X996600Y693059D01*
X999993D01*
Y697149D01*
Y701240D01*
X999463D01*
Y702534D01*
X1007350D01*
Y702604D01*
X1108040D01*
X1108256Y702083D01*
X1108897Y701247D01*
X1109733Y700606D01*
X1110706Y700203D01*
X1111750Y700066D01*
X1112794Y700203D01*
X1113767Y700606D01*
X1114603Y701247D01*
X1115244Y702083D01*
X1115647Y703056D01*
X1115784Y704100D01*
X1115647Y705144D01*
X1115244Y706117D01*
X1114603Y706953D01*
X1113767Y707594D01*
X1112794Y707997D01*
X1111750Y708135D01*
X1110706Y707997D01*
X1109733Y707594D01*
X1108897Y706953D01*
X1108256Y706117D01*
X1108068Y705663D01*
X1034672D01*
Y709275D01*
X1029128D01*
Y707563D01*
X1024772D01*
Y711275D01*
X1019228D01*
Y709563D01*
X1014772D01*
Y713275D01*
X1009228D01*
Y711563D01*
X1007350D01*
Y713534D01*
X1003900D01*
Y711934D01*
X1002900D01*
Y713534D01*
X999450D01*
Y710433D01*
X999371Y710034D01*
X999450Y709634D01*
Y708434D01*
Y708433D01*
X999371Y708034D01*
X999450Y707634D01*
Y706434D01*
Y706433D01*
X999371Y706034D01*
X999450Y705634D01*
Y704434D01*
Y704181D01*
X999347Y704702D01*
X999015Y705198D01*
X993181Y711031D01*
X992685Y711363D01*
X992100Y711479D01*
X991150D01*
Y713534D01*
X986375D01*
Y714362D01*
X988819D01*
Y719905D01*
X987800D01*
Y726950D01*
X986331D01*
Y739878D01*
X988919D01*
Y745422D01*
X986331D01*
Y749974D01*
X991176Y754819D01*
X1003132D01*
Y752700D01*
X995516D01*
Y745422D01*
X994569D01*
Y743150D01*
X997144D01*
X999719D01*
Y744900D01*
X1000081D01*
Y739878D01*
X1000172D01*
Y737226D01*
X999899Y737017D01*
X999424Y736397D01*
X999124Y735675D01*
X999022Y734900D01*
X999124Y734125D01*
X999424Y733403D01*
X999513Y733286D01*
X993177Y726950D01*
X991000D01*
Y719905D01*
X989181D01*
Y717633D01*
X991756D01*
X994331D01*
Y719750D01*
X995200D01*
Y723927D01*
X1003278Y732005D01*
X1003467Y732288D01*
X1003514Y732307D01*
X1004134Y732783D01*
X1004609Y733403D01*
X1004908Y734125D01*
X1005011Y734900D01*
X1004908Y735675D01*
X1004609Y736397D01*
X1004134Y737017D01*
X1003740Y737319D01*
Y739878D01*
X1005231D01*
Y744900D01*
X1005987D01*
Y729000D01*
X1006104Y728415D01*
X1006435Y727919D01*
X1009119Y725235D01*
X1009022Y724500D01*
X1009124Y723725D01*
X1009424Y723003D01*
X1009899Y722383D01*
X1010216Y722140D01*
Y719181D01*
X1009228D01*
Y714425D01*
X1014772D01*
Y719181D01*
X1013784D01*
Y722115D01*
X1014134Y722383D01*
X1014609Y723003D01*
X1014909Y723725D01*
X1015011Y724500D01*
X1014909Y725275D01*
X1014609Y725997D01*
X1014134Y726617D01*
X1013513Y727093D01*
X1012791Y727392D01*
X1012016Y727494D01*
X1011282Y727397D01*
X1009046Y729634D01*
Y734722D01*
X1009124Y734125D01*
X1009424Y733403D01*
X1009899Y732783D01*
X1010519Y732307D01*
X1011242Y732008D01*
X1012016Y731906D01*
X1012791Y732008D01*
X1013513Y732307D01*
X1014134Y732783D01*
X1014609Y733403D01*
X1014909Y734125D01*
X1015011Y734900D01*
X1014909Y735675D01*
X1014609Y736397D01*
X1014134Y737017D01*
X1013513Y737493D01*
X1012791Y737792D01*
X1012016Y737894D01*
X1011546Y737832D01*
Y740217D01*
X1020487D01*
Y737468D01*
X1019899Y737017D01*
X1019423Y736397D01*
X1019124Y735675D01*
X1019022Y734900D01*
X1019124Y734125D01*
X1019423Y733403D01*
X1019899Y732783D01*
X1020519Y732307D01*
X1021241Y732008D01*
X1022016Y731906D01*
X1022791Y732008D01*
X1023514Y732307D01*
X1024134Y732783D01*
X1024387Y733113D01*
Y729034D01*
X1022751Y727397D01*
X1022016Y727494D01*
X1021241Y727392D01*
X1020519Y727093D01*
X1019899Y726617D01*
X1019423Y725997D01*
X1019124Y725275D01*
X1019022Y724500D01*
X1019124Y723725D01*
X1019423Y723003D01*
X1019899Y722383D01*
X1020216Y722140D01*
Y717181D01*
X1019228D01*
Y712425D01*
X1024772D01*
Y717181D01*
X1023784D01*
Y722115D01*
X1024134Y722383D01*
X1024609Y723003D01*
X1024909Y723725D01*
X1025011Y724500D01*
X1024914Y725235D01*
X1026998Y727318D01*
X1027016Y727346D01*
X1027035Y727318D01*
X1029119Y725235D01*
X1029022Y724500D01*
X1029124Y723725D01*
X1029424Y723003D01*
X1029899Y722383D01*
X1030116Y722217D01*
Y715181D01*
X1029128D01*
Y710425D01*
X1034672D01*
Y715181D01*
X1033684D01*
Y722038D01*
X1034134Y722383D01*
X1034609Y723003D01*
X1034908Y723725D01*
X1035011Y724500D01*
X1034908Y725275D01*
X1034609Y725997D01*
X1034134Y726617D01*
X1033514Y727093D01*
X1032791Y727392D01*
X1032016Y727494D01*
X1031282Y727397D01*
X1029646Y729034D01*
Y733113D01*
X1029899Y732783D01*
X1030519Y732307D01*
X1031242Y732008D01*
X1032016Y731906D01*
X1032791Y732008D01*
X1033514Y732307D01*
X1034134Y732783D01*
X1034609Y733403D01*
X1034908Y734125D01*
X1035011Y734900D01*
X1034908Y735675D01*
X1034609Y736397D01*
X1034134Y737017D01*
X1033546Y737468D01*
Y740217D01*
X1038199D01*
Y744383D01*
X1037646D01*
Y745200D01*
X1037549Y745688D01*
X1037529Y745785D01*
X1037198Y746281D01*
X1036316Y747163D01*
Y748376D01*
X1036401Y748800D01*
Y755200D01*
X1036401Y755200D01*
X1036265Y755883D01*
X1035878Y756462D01*
X1026101Y766239D01*
Y767900D01*
X1036316D01*
Y775700D01*
X1034247D01*
Y777700D01*
X1031672D01*
X1029097D01*
Y775700D01*
X1028735D01*
Y780972D01*
X1028701D01*
Y782961D01*
X1031162Y785422D01*
X1031162Y785422D01*
X1031549Y786001D01*
X1031684Y786684D01*
X1031684Y786684D01*
Y800400D01*
X1031549Y801083D01*
X1031162Y801662D01*
X1031162Y801662D01*
X1028300Y804523D01*
X1028397Y804756D01*
X1028535Y805800D01*
X1028397Y806844D01*
X1027994Y807817D01*
X1027353Y808653D01*
X1026517Y809294D01*
X1025544Y809697D01*
X1024500Y809834D01*
D02*
G37*
G36*
X1105100Y643634D02*
X1103374Y643498D01*
X1101690Y643094D01*
X1100091Y642431D01*
X1098614Y641527D01*
X1097298Y640402D01*
X1096173Y639086D01*
X1095269Y637609D01*
X1094606Y636010D01*
X1094202Y634326D01*
X1094066Y632600D01*
X1094202Y630874D01*
X1094606Y629190D01*
X1095269Y627591D01*
X1096173Y626114D01*
X1097298Y624798D01*
X1098614Y623673D01*
X1100091Y622769D01*
X1101690Y622106D01*
X1103374Y621702D01*
X1105100Y621566D01*
X1106826Y621702D01*
X1108510Y622106D01*
X1110109Y622769D01*
X1111586Y623673D01*
X1112902Y624798D01*
X1114027Y626114D01*
X1114931Y627591D01*
X1115594Y629190D01*
X1115998Y630874D01*
X1116134Y632600D01*
X1115998Y634326D01*
X1115594Y636010D01*
X1114931Y637609D01*
X1114027Y639086D01*
X1112902Y640402D01*
X1111586Y641527D01*
X1110109Y642431D01*
X1108510Y643094D01*
X1106826Y643498D01*
X1105100Y643634D01*
D02*
G37*
G36*
X1015416Y786031D02*
X1013145D01*
Y783956D01*
X1015416D01*
Y786031D01*
D02*
G37*
G36*
X953955Y793908D02*
X953611D01*
X953220Y793830D01*
X952890Y793610D01*
X952752Y793403D01*
X952545Y793265D01*
X952324Y792934D01*
X952246Y792544D01*
Y792200D01*
Y791855D01*
Y791511D01*
Y791166D01*
Y790822D01*
Y790540D01*
X952201Y790510D01*
X951980Y790179D01*
X951902Y789789D01*
Y789507D01*
X951856Y789476D01*
X951816Y789416D01*
X951498Y789353D01*
X951167Y789132D01*
X951137Y789086D01*
X950166D01*
X949776Y789008D01*
X949445Y788787D01*
X949415Y788742D01*
X948444D01*
X948054Y788664D01*
X947723Y788443D01*
X947502Y788112D01*
X947424Y787722D01*
Y787378D01*
X947502Y786987D01*
X947723Y786657D01*
X948054Y786436D01*
X948444Y786358D01*
X949759D01*
X949790Y786312D01*
X950120Y786091D01*
X950511Y786014D01*
X951137D01*
X951167Y785968D01*
X951498Y785747D01*
X951816Y785683D01*
X951856Y785623D01*
X951916Y785583D01*
X951980Y785265D01*
X952201Y784934D01*
X952246Y784904D01*
Y784622D01*
Y784278D01*
Y783933D01*
Y783589D01*
Y783244D01*
Y782900D01*
Y782555D01*
X952324Y782165D01*
X952545Y781835D01*
X952752Y781697D01*
X952890Y781490D01*
X953220Y781269D01*
X953611Y781191D01*
X953955D01*
X954345Y781269D01*
X954676Y781490D01*
X954897Y781821D01*
X954975Y782211D01*
Y782555D01*
Y782900D01*
Y783244D01*
Y783589D01*
Y783933D01*
Y784278D01*
Y784559D01*
X955020Y784590D01*
X955241Y784921D01*
X955305Y785239D01*
X955365Y785279D01*
X955586Y785610D01*
X955589Y785623D01*
X955608Y785724D01*
X955723Y785747D01*
X956054Y785968D01*
X956084Y786014D01*
X956711D01*
X957101Y786091D01*
X957431Y786312D01*
X957462Y786358D01*
X959122D01*
X959512Y786436D01*
X959842Y786657D01*
X960063Y786987D01*
X960141Y787378D01*
Y787722D01*
X960063Y788112D01*
X959842Y788443D01*
X959512Y788664D01*
X959122Y788742D01*
X957806D01*
X957776Y788787D01*
X957445Y789008D01*
X957055Y789086D01*
X956084D01*
X956054Y789132D01*
X955723Y789353D01*
X955608Y789376D01*
X955586Y789490D01*
X955365Y789821D01*
X955305Y789861D01*
X955241Y790179D01*
X955020Y790510D01*
X954975Y790540D01*
Y790822D01*
Y791166D01*
Y791511D01*
Y791855D01*
Y792200D01*
Y792544D01*
Y792889D01*
X954897Y793279D01*
X954676Y793610D01*
X954345Y793830D01*
X953955Y793908D01*
D02*
G37*
G36*
X1018688Y786031D02*
X1016416D01*
Y783956D01*
X1018688D01*
Y786031D01*
D02*
G37*
G36*
X1047200Y789521D02*
Y785750D01*
X1050971D01*
X1050889Y786373D01*
X1050456Y787419D01*
X1049767Y788317D01*
X1048868Y789006D01*
X1047822Y789439D01*
X1047200Y789521D01*
D02*
G37*
G36*
X1046200D02*
X1045578Y789439D01*
X1044532Y789006D01*
X1043633Y788317D01*
X1042944Y787419D01*
X1042511Y786373D01*
X1042429Y785750D01*
X1046200D01*
Y789521D01*
D02*
G37*
G36*
X989600Y809769D02*
Y806300D01*
X993069D01*
X992997Y806844D01*
X992594Y807817D01*
X991953Y808653D01*
X991117Y809294D01*
X990144Y809697D01*
X989600Y809769D01*
D02*
G37*
G36*
X988600D02*
X988056Y809697D01*
X987083Y809294D01*
X986247Y808653D01*
X985606Y807817D01*
X985203Y806844D01*
X985131Y806300D01*
X988600D01*
Y809769D01*
D02*
G37*
G36*
X1046700Y819587D02*
X1045578Y819439D01*
X1044532Y819006D01*
X1043633Y818317D01*
X1042944Y817418D01*
X1042511Y816372D01*
X1042363Y815250D01*
X1042511Y814128D01*
X1042944Y813081D01*
X1043633Y812183D01*
X1044532Y811494D01*
X1045578Y811061D01*
X1046700Y810913D01*
X1047822Y811061D01*
X1048868Y811494D01*
X1049767Y812183D01*
X1050456Y813081D01*
X1050889Y814128D01*
X1051037Y815250D01*
X1050889Y816372D01*
X1050456Y817418D01*
X1049767Y818317D01*
X1048868Y819006D01*
X1047822Y819439D01*
X1046700Y819587D01*
D02*
G37*
G36*
X1105100Y840534D02*
X1103374Y840398D01*
X1101690Y839994D01*
X1100091Y839331D01*
X1098614Y838427D01*
X1097298Y837302D01*
X1096173Y835986D01*
X1095269Y834509D01*
X1094606Y832910D01*
X1094202Y831226D01*
X1094066Y829500D01*
X1094202Y827774D01*
X1094606Y826090D01*
X1095269Y824491D01*
X1096173Y823014D01*
X1097298Y821698D01*
X1098614Y820573D01*
X1100091Y819669D01*
X1101690Y819006D01*
X1103374Y818602D01*
X1105100Y818466D01*
X1106826Y818602D01*
X1108510Y819006D01*
X1110109Y819669D01*
X1111586Y820573D01*
X1112902Y821698D01*
X1114027Y823014D01*
X1114931Y824491D01*
X1115594Y826090D01*
X1115998Y827774D01*
X1116134Y829500D01*
X1115998Y831226D01*
X1115594Y832910D01*
X1114931Y834509D01*
X1114027Y835986D01*
X1112902Y837302D01*
X1111586Y838427D01*
X1110109Y839331D01*
X1108510Y839994D01*
X1106826Y840398D01*
X1105100Y840534D01*
D02*
G37*
G36*
X908200D02*
X906474Y840398D01*
X904790Y839994D01*
X903191Y839331D01*
X901714Y838427D01*
X900398Y837302D01*
X899273Y835986D01*
X898369Y834509D01*
X897706Y832910D01*
X897302Y831226D01*
X897166Y829500D01*
X897302Y827774D01*
X897706Y826090D01*
X898369Y824491D01*
X899273Y823014D01*
X900398Y821698D01*
X901714Y820573D01*
X903191Y819669D01*
X904790Y819006D01*
X906474Y818602D01*
X908200Y818466D01*
X909926Y818602D01*
X911610Y819006D01*
X913209Y819669D01*
X914686Y820573D01*
X916002Y821698D01*
X917127Y823014D01*
X918031Y824491D01*
X918694Y826090D01*
X919098Y827774D01*
X919234Y829500D01*
X919098Y831226D01*
X918694Y832910D01*
X918031Y834509D01*
X917127Y835986D01*
X916002Y837302D01*
X914686Y838427D01*
X913209Y839331D01*
X911610Y839994D01*
X909926Y840398D01*
X908200Y840534D01*
D02*
G37*
G36*
X1036300Y812778D02*
X1035452Y812666D01*
X1034661Y812339D01*
X1033982Y811818D01*
X1033461Y811139D01*
X1033134Y810348D01*
X1033022Y809500D01*
X1033134Y808652D01*
X1033461Y807861D01*
X1033982Y807182D01*
X1034661Y806661D01*
X1035452Y806334D01*
X1036300Y806222D01*
X1037148Y806334D01*
X1037939Y806661D01*
X1038618Y807182D01*
X1039139Y807861D01*
X1039466Y808652D01*
X1039578Y809500D01*
X1039466Y810348D01*
X1039139Y811139D01*
X1038618Y811818D01*
X1037939Y812339D01*
X1037148Y812666D01*
X1036300Y812778D01*
D02*
G37*
G36*
X1012700Y809834D02*
X1011656Y809697D01*
X1010683Y809294D01*
X1009847Y808653D01*
X1009206Y807817D01*
X1008803Y806844D01*
X1008665Y805800D01*
X1008803Y804756D01*
X1009206Y803783D01*
X1009847Y802947D01*
X1010683Y802306D01*
X1011656Y801903D01*
X1012700Y801766D01*
X1013744Y801903D01*
X1014717Y802306D01*
X1015553Y802947D01*
X1016194Y803783D01*
X1016597Y804756D01*
X1016735Y805800D01*
X1016597Y806844D01*
X1016194Y807817D01*
X1015553Y808653D01*
X1014717Y809294D01*
X1013744Y809697D01*
X1012700Y809834D01*
D02*
G37*
G36*
X1000900D02*
X999856Y809697D01*
X998883Y809294D01*
X998047Y808653D01*
X997406Y807817D01*
X997003Y806844D01*
X996865Y805800D01*
X997003Y804756D01*
X997406Y803783D01*
X998047Y802947D01*
X998883Y802306D01*
X999856Y801903D01*
X1000900Y801766D01*
X1001944Y801903D01*
X1002917Y802306D01*
X1003753Y802947D01*
X1004394Y803783D01*
X1004797Y804756D01*
X1004935Y805800D01*
X1004797Y806844D01*
X1004394Y807817D01*
X1003753Y808653D01*
X1002917Y809294D01*
X1001944Y809697D01*
X1000900Y809834D01*
D02*
G37*
G36*
X988600Y805300D02*
X985131D01*
X985203Y804756D01*
X985606Y803783D01*
X986247Y802947D01*
X987083Y802306D01*
X988056Y801903D01*
X988600Y801831D01*
Y805300D01*
D02*
G37*
G36*
X977300Y812778D02*
X976452Y812666D01*
X975661Y812339D01*
X974982Y811818D01*
X974461Y811139D01*
X974134Y810348D01*
X974022Y809500D01*
X974134Y808652D01*
X974461Y807861D01*
X974982Y807182D01*
X975661Y806661D01*
X976452Y806334D01*
X977300Y806222D01*
X978148Y806334D01*
X978939Y806661D01*
X979618Y807182D01*
X980139Y807861D01*
X980466Y808652D01*
X980578Y809500D01*
X980466Y810348D01*
X980139Y811139D01*
X979618Y811818D01*
X978939Y812339D01*
X978148Y812666D01*
X977300Y812778D01*
D02*
G37*
G36*
X993069Y805300D02*
X989600D01*
Y801831D01*
X990144Y801903D01*
X991117Y802306D01*
X991953Y802947D01*
X992594Y803783D01*
X992997Y804756D01*
X993069Y805300D01*
D02*
G37*
G36*
X1002735Y780772D02*
X1000661D01*
Y778500D01*
X1002735D01*
Y780772D01*
D02*
G37*
G36*
X1031172Y780972D02*
X1029097D01*
Y778700D01*
X1031172D01*
Y780972D01*
D02*
G37*
G36*
X1034247D02*
X1032172D01*
Y778700D01*
X1034247D01*
Y780972D01*
D02*
G37*
G36*
X999660Y780772D02*
X997586D01*
Y778500D01*
X999660D01*
Y780772D01*
D02*
G37*
G36*
X971000Y779550D02*
X962400D01*
Y770950D01*
X971000D01*
Y779550D01*
D02*
G37*
G36*
X1046700Y779587D02*
X1045578Y779439D01*
X1044532Y779006D01*
X1043633Y778317D01*
X1042944Y777419D01*
X1042511Y776372D01*
X1042363Y775250D01*
X1042511Y774127D01*
X1042944Y773081D01*
X1043633Y772183D01*
X1044532Y771494D01*
X1045578Y771061D01*
X1046700Y770913D01*
X1047822Y771061D01*
X1048868Y771494D01*
X1049767Y772183D01*
X1050456Y773081D01*
X1050889Y774127D01*
X1051037Y775250D01*
X1050889Y776372D01*
X1050456Y777419D01*
X1049767Y778317D01*
X1048868Y779006D01*
X1047822Y779439D01*
X1046700Y779587D01*
D02*
G37*
G36*
X1051000Y669550D02*
X1042400D01*
Y660950D01*
X1051000D01*
Y669550D01*
D02*
G37*
G36*
X1050971Y784750D02*
X1047200D01*
Y780979D01*
X1047822Y781061D01*
X1048868Y781494D01*
X1049767Y782183D01*
X1050456Y783081D01*
X1050889Y784128D01*
X1050971Y784750D01*
D02*
G37*
G36*
X1018688Y782956D02*
X1016416D01*
Y780881D01*
X1018688D01*
Y782956D01*
D02*
G37*
G36*
X1046200Y784750D02*
X1042429D01*
X1042511Y784128D01*
X1042944Y783081D01*
X1043633Y782183D01*
X1044532Y781494D01*
X1045578Y781061D01*
X1046200Y780979D01*
Y784750D01*
D02*
G37*
G36*
X1015416Y782956D02*
X1013145D01*
Y780881D01*
X1015416D01*
Y782956D01*
D02*
G37*
G36*
X911589Y771520D02*
X911245D01*
X910855Y771442D01*
X910524Y771221D01*
X910303Y770890D01*
X910225Y770500D01*
Y770218D01*
X910179Y770188D01*
X910149Y770142D01*
X909867D01*
X909477Y770064D01*
X909146Y769843D01*
X908925Y769513D01*
X908847Y769122D01*
Y768778D01*
X908925Y768388D01*
X909146Y768057D01*
X909352Y767919D01*
X909490Y767713D01*
X909821Y767492D01*
X910139Y767428D01*
X910179Y767368D01*
X910225Y767338D01*
Y767056D01*
X910303Y766666D01*
X910524Y766335D01*
X910855Y766114D01*
X911245Y766036D01*
X911589D01*
X911979Y766114D01*
X912310Y766335D01*
X912531Y766666D01*
X912609Y767056D01*
Y767400D01*
Y767414D01*
X912623D01*
X913013Y767492D01*
X913344Y767713D01*
X913481Y767919D01*
X913688Y768057D01*
X913909Y768388D01*
X913986Y768778D01*
Y769122D01*
X913909Y769513D01*
X913688Y769843D01*
X913357Y770064D01*
X912967Y770142D01*
X912609D01*
Y770156D01*
Y770500D01*
X912531Y770890D01*
X912310Y771221D01*
X911979Y771442D01*
X911589Y771520D01*
D02*
G37*
G36*
X994672Y765592D02*
X992400D01*
Y763518D01*
X994672D01*
Y765592D01*
D02*
G37*
G36*
X991400D02*
X989128D01*
Y763518D01*
X991400D01*
Y765592D01*
D02*
G37*
%LPD*%
G36*
X963633Y668317D02*
X962944Y667418D01*
X962679Y666779D01*
X953126D01*
Y667333D01*
X949284D01*
Y668721D01*
X964159D01*
X963633Y668317D01*
D02*
G37*
G36*
X1006757Y662395D02*
X1007088Y661899D01*
X1012556Y656431D01*
Y655070D01*
X1000851D01*
Y656638D01*
X1006692Y662479D01*
X1006729Y662534D01*
X1006757Y662395D01*
D02*
G37*
G36*
X1062556Y651917D02*
X1061989Y651842D01*
X1061267Y651543D01*
X1060647Y651067D01*
X1060303Y650620D01*
X1059960Y651067D01*
X1059340Y651543D01*
X1058617Y651842D01*
X1057843Y651944D01*
X1057068Y651842D01*
X1056345Y651543D01*
X1055725Y651067D01*
X1055382Y650620D01*
X1055038Y651067D01*
X1054418Y651543D01*
X1053696Y651842D01*
X1052921Y651944D01*
X1052187Y651847D01*
X1050603Y653431D01*
X1050320Y653621D01*
X1060851D01*
X1062556Y651917D01*
D02*
G37*
G36*
X962604Y653431D02*
X961020Y651847D01*
X960285Y651944D01*
X959510Y651842D01*
X958788Y651543D01*
X958168Y651067D01*
X957824Y650620D01*
X957481Y651067D01*
X956861Y651543D01*
X956139Y651842D01*
X955864Y651878D01*
Y648950D01*
X954864D01*
Y651878D01*
X954589Y651842D01*
X953867Y651543D01*
X953247Y651067D01*
X952903Y650620D01*
X952560Y651067D01*
X951940Y651543D01*
X951217Y651842D01*
X950651Y651917D01*
X952355Y653621D01*
X962887D01*
X962604Y653431D01*
D02*
G37*
G36*
X1021008Y651679D02*
X1020723Y651374D01*
X1020503Y651543D01*
X1019781Y651842D01*
X1019006Y651944D01*
X1018231Y651842D01*
X1017509Y651543D01*
X1016889Y651067D01*
X1016546Y650620D01*
X1016202Y651067D01*
X1015614Y651518D01*
Y657065D01*
X1015613Y657075D01*
X1021008Y651679D01*
D02*
G37*
G36*
X1078100Y641050D02*
X935100D01*
Y654050D01*
X947805D01*
X947996Y653588D01*
X946256Y651847D01*
X945521Y651944D01*
X944746Y651842D01*
X944024Y651543D01*
X943404Y651067D01*
X943311Y650945D01*
X942811D01*
X942717Y651067D01*
X942097Y651543D01*
X941375Y651842D01*
X940600Y651944D01*
X939825Y651842D01*
X939103Y651543D01*
X938483Y651067D01*
X938007Y650447D01*
X937708Y649725D01*
X937606Y648950D01*
X937708Y648175D01*
X938007Y647453D01*
X938483Y646833D01*
X939103Y646357D01*
X939825Y646058D01*
X940600Y645956D01*
X941375Y646058D01*
X942097Y646357D01*
X942717Y646833D01*
X942811Y646955D01*
X943311D01*
X943404Y646833D01*
X944024Y646357D01*
X944746Y646058D01*
X945521Y645956D01*
X946296Y646058D01*
X947018Y646357D01*
X947638Y646833D01*
X947732Y646955D01*
X948232D01*
X948325Y646833D01*
X948946Y646357D01*
X949668Y646058D01*
X949942Y646022D01*
Y648950D01*
X950943D01*
Y646022D01*
X951217Y646058D01*
X951940Y646357D01*
X952560Y646833D01*
X952653Y646955D01*
X953153D01*
X953247Y646833D01*
X953867Y646357D01*
X954589Y646058D01*
X955364Y645956D01*
X956139Y646058D01*
X956861Y646357D01*
X957481Y646833D01*
X957574Y646955D01*
X958074D01*
X958168Y646833D01*
X958788Y646357D01*
X959510Y646058D01*
X960285Y645956D01*
X961060Y646058D01*
X961782Y646357D01*
X962402Y646833D01*
X962496Y646955D01*
X962996D01*
X963089Y646833D01*
X963709Y646357D01*
X964431Y646058D01*
X965206Y645956D01*
X965981Y646058D01*
X966703Y646357D01*
X967323Y646833D01*
X967799Y647453D01*
X968098Y648175D01*
X968200Y648950D01*
X968098Y649725D01*
X967852Y650321D01*
X968079Y650821D01*
X990700D01*
X991285Y650937D01*
X991781Y651268D01*
X994563Y654050D01*
X997792D01*
Y651518D01*
X997204Y651067D01*
X997111Y650945D01*
X996611D01*
X996517Y651067D01*
X995897Y651543D01*
X995175Y651842D01*
X994400Y651944D01*
X993625Y651842D01*
X992903Y651543D01*
X992283Y651067D01*
X991807Y650447D01*
X991508Y649725D01*
X991406Y648950D01*
X991508Y648175D01*
X991807Y647453D01*
X992283Y646833D01*
X992903Y646357D01*
X993625Y646058D01*
X994400Y645956D01*
X995175Y646058D01*
X995897Y646357D01*
X996517Y646833D01*
X996611Y646955D01*
X997111D01*
X997204Y646833D01*
X997824Y646357D01*
X998546Y646058D01*
X999321Y645956D01*
X1000096Y646058D01*
X1000818Y646357D01*
X1001438Y646833D01*
X1001532Y646955D01*
X1002032D01*
X1002125Y646833D01*
X1002746Y646357D01*
X1003468Y646058D01*
X1003743Y646022D01*
Y648950D01*
Y651878D01*
X1003468Y651842D01*
X1002746Y651543D01*
X1002125Y651067D01*
X1002032Y650945D01*
X1001532D01*
X1001438Y651067D01*
X1000851Y651518D01*
Y654050D01*
X1012556D01*
Y651518D01*
X1011968Y651067D01*
X1011874Y650945D01*
X1011374D01*
X1011281Y651067D01*
X1010661Y651543D01*
X1009939Y651842D01*
X1009164Y651944D01*
X1008389Y651842D01*
X1007667Y651543D01*
X1007047Y651067D01*
X1006953Y650945D01*
X1006453D01*
X1006360Y651067D01*
X1005740Y651543D01*
X1005017Y651842D01*
X1004743Y651878D01*
Y648950D01*
Y646022D01*
X1005017Y646058D01*
X1005740Y646357D01*
X1006360Y646833D01*
X1006453Y646955D01*
X1006953D01*
X1007047Y646833D01*
X1007667Y646357D01*
X1008389Y646058D01*
X1009164Y645956D01*
X1009939Y646058D01*
X1010661Y646357D01*
X1011281Y646833D01*
X1011374Y646955D01*
X1011874D01*
X1011968Y646833D01*
X1012588Y646357D01*
X1013310Y646058D01*
X1014085Y645956D01*
X1014860Y646058D01*
X1015582Y646357D01*
X1016202Y646833D01*
X1016296Y646955D01*
X1016796D01*
X1016889Y646833D01*
X1017509Y646357D01*
X1018231Y646058D01*
X1019006Y645956D01*
X1019781Y646058D01*
X1020503Y646357D01*
X1021124Y646833D01*
X1021599Y647453D01*
X1021898Y648175D01*
X1022000Y648950D01*
X1021898Y649725D01*
X1021599Y650447D01*
X1021443Y650651D01*
X1021789Y651021D01*
X1021915Y650937D01*
X1022500Y650821D01*
X1045127D01*
X1045355Y650321D01*
X1045108Y649725D01*
X1045006Y648950D01*
X1045108Y648175D01*
X1045407Y647453D01*
X1045883Y646833D01*
X1046503Y646357D01*
X1047225Y646058D01*
X1048000Y645956D01*
X1048775Y646058D01*
X1049497Y646357D01*
X1050117Y646833D01*
X1050211Y646955D01*
X1050711D01*
X1050804Y646833D01*
X1051424Y646357D01*
X1052146Y646058D01*
X1052921Y645956D01*
X1053696Y646058D01*
X1054418Y646357D01*
X1055038Y646833D01*
X1055132Y646955D01*
X1055632D01*
X1055725Y646833D01*
X1056345Y646357D01*
X1057068Y646058D01*
X1057343Y646022D01*
Y648950D01*
X1058342D01*
Y646022D01*
X1058617Y646058D01*
X1059340Y646357D01*
X1059960Y646833D01*
X1060053Y646955D01*
X1060553D01*
X1060647Y646833D01*
X1061267Y646357D01*
X1061989Y646058D01*
X1062764Y645956D01*
X1063539Y646058D01*
X1064261Y646357D01*
X1064881Y646833D01*
X1064974Y646955D01*
X1065474D01*
X1065568Y646833D01*
X1066188Y646357D01*
X1066910Y646058D01*
X1067685Y645956D01*
X1068460Y646058D01*
X1069182Y646357D01*
X1069802Y646833D01*
X1069896Y646955D01*
X1070396D01*
X1070489Y646833D01*
X1071109Y646357D01*
X1071831Y646058D01*
X1072606Y645956D01*
X1073381Y646058D01*
X1074103Y646357D01*
X1074724Y646833D01*
X1075199Y647453D01*
X1075498Y648175D01*
X1075600Y648950D01*
X1075498Y649725D01*
X1075199Y650447D01*
X1074724Y651067D01*
X1074103Y651543D01*
X1073381Y651842D01*
X1072606Y651944D01*
X1071831Y651842D01*
X1071109Y651543D01*
X1070489Y651067D01*
X1070396Y650945D01*
X1069896D01*
X1069802Y651067D01*
X1069182Y651543D01*
X1068460Y651842D01*
X1067685Y651944D01*
X1066951Y651847D01*
X1065210Y653588D01*
X1065401Y654050D01*
X1078100D01*
Y641050D01*
D02*
G37*
G36*
X962944Y673081D02*
X963633Y672183D01*
X964159Y671779D01*
X949284D01*
Y673167D01*
X953126D01*
Y673721D01*
X962679D01*
X962944Y673081D01*
D02*
G37*
G36*
X997792Y657271D02*
Y655070D01*
X995582D01*
X997794Y657281D01*
X997792Y657271D01*
D02*
G37*
G36*
X998963Y666676D02*
X988966Y656679D01*
X951721D01*
X951233Y656582D01*
X951136Y656563D01*
X950640Y656231D01*
X949029Y654621D01*
Y657721D01*
X984790D01*
X985375Y657837D01*
X985872Y658169D01*
X994470Y666767D01*
X998963D01*
Y666676D01*
D02*
G37*
G36*
X983250Y708434D02*
Y706434D01*
Y704434D01*
Y702534D01*
X991150D01*
Y704434D01*
Y705137D01*
X993845Y702442D01*
Y701240D01*
X991008D01*
Y694579D01*
X970940Y674511D01*
X971037Y675250D01*
X970889Y676372D01*
X970625Y677012D01*
X978181Y684569D01*
X978513Y685065D01*
X978629Y685650D01*
Y704916D01*
X982217Y708504D01*
X983250D01*
Y708434D01*
D02*
G37*
G36*
X946047Y769811D02*
Y769798D01*
X945733D01*
X945858Y769986D01*
X946047Y770111D01*
Y769811D01*
D02*
G37*
G36*
X940522Y773958D02*
X940951D01*
X940895Y773672D01*
X940834Y773632D01*
X940613Y773301D01*
X940550Y772984D01*
X940510Y772957D01*
X940490Y772943D01*
X940269Y772612D01*
X940257Y772553D01*
X940206Y772295D01*
X940145Y772254D01*
X940082Y772159D01*
X940075Y772160D01*
X940086Y772177D01*
X940164Y772567D01*
Y772849D01*
X940210Y772879D01*
X940431Y773210D01*
X940508Y773600D01*
Y773945D01*
Y773961D01*
X940522Y773958D01*
D02*
G37*
G36*
X943966Y777058D02*
X943983D01*
X943980Y777044D01*
Y776700D01*
Y776418D01*
X943934Y776388D01*
X943713Y776057D01*
X943636Y775667D01*
Y775385D01*
X943608Y775367D01*
Y775667D01*
Y775948D01*
X943654Y775979D01*
X943875Y776310D01*
X943953Y776700D01*
Y777044D01*
Y777061D01*
X943966Y777058D01*
D02*
G37*
G36*
X1014132Y766300D02*
X1014268Y765617D01*
X1014655Y765038D01*
X1019298Y760396D01*
X1019333Y760220D01*
X1019775Y759558D01*
X1020436Y759116D01*
X1020612Y759081D01*
X1025132Y754561D01*
Y752700D01*
X1021001D01*
Y754500D01*
X1021001Y754500D01*
X1020865Y755183D01*
X1020478Y755762D01*
X1009301Y766939D01*
Y767900D01*
X1014132D01*
Y766300D01*
D02*
G37*
G36*
X1022532Y765500D02*
X1022668Y764817D01*
X1023055Y764238D01*
X1032832Y754461D01*
Y752700D01*
X1028701D01*
Y755300D01*
X1028701Y755300D01*
X1028565Y755983D01*
X1028178Y756562D01*
X1028178Y756562D01*
X1023135Y761604D01*
X1023100Y761780D01*
X1022658Y762442D01*
X1021997Y762884D01*
X1021821Y762919D01*
X1017701Y767039D01*
Y767900D01*
X1022532D01*
Y765500D01*
D02*
G37*
G36*
X935025Y771189D02*
Y770907D01*
X934979Y770877D01*
X934758Y770546D01*
X934695Y770228D01*
X934634Y770188D01*
X934413Y769857D01*
X934402Y769798D01*
X933964D01*
Y769811D01*
Y770093D01*
X934010Y770124D01*
X934231Y770454D01*
X934308Y770845D01*
Y771189D01*
Y771203D01*
X935027D01*
X935025Y771189D01*
D02*
G37*
G36*
X939112Y788723D02*
X939158Y788693D01*
Y788411D01*
X939235Y788021D01*
X939456Y787690D01*
X939502Y787659D01*
Y787378D01*
Y787033D01*
X939505Y787019D01*
X938439D01*
X938442Y787033D01*
Y787378D01*
X938364Y787768D01*
X938143Y788098D01*
X938097Y788129D01*
Y788411D01*
Y788755D01*
Y788769D01*
X939081D01*
X939112Y788723D01*
D02*
G37*
G36*
X1028116Y787423D02*
X1025655Y784962D01*
X1025268Y784383D01*
X1025132Y783700D01*
Y780972D01*
X1023586D01*
Y775700D01*
X1022029D01*
Y789366D01*
X1022968Y790305D01*
X1023456Y790103D01*
X1024500Y789965D01*
X1025544Y790103D01*
X1026517Y790506D01*
X1027353Y791147D01*
X1027994Y791983D01*
X1028116Y792277D01*
Y787423D01*
D02*
G37*
G36*
X932269Y793577D02*
X932272Y793564D01*
X931482D01*
X931487Y793591D01*
X932269D01*
Y793577D01*
D02*
G37*
G36*
X922625Y778078D02*
Y777733D01*
Y777389D01*
Y777044D01*
X922703Y776654D01*
X922924Y776324D01*
X922969Y776293D01*
Y776011D01*
Y775667D01*
X922972Y775653D01*
X921909D01*
Y775667D01*
Y776011D01*
X921831Y776401D01*
X921610Y776732D01*
X921564Y776763D01*
Y777044D01*
Y777389D01*
X921486Y777779D01*
X921476Y777795D01*
X921624Y777825D01*
X921954Y778046D01*
X921985Y778091D01*
X922625D01*
Y778078D01*
D02*
G37*
G36*
X930878Y782569D02*
X933650D01*
X933647Y782555D01*
Y782211D01*
Y781867D01*
Y781522D01*
Y781178D01*
Y780896D01*
X933601Y780865D01*
X933380Y780535D01*
X933302Y780144D01*
Y779800D01*
Y779786D01*
X930878D01*
X930864Y779783D01*
Y779800D01*
Y780144D01*
Y780489D01*
Y780833D01*
Y781178D01*
Y781522D01*
Y781867D01*
Y782211D01*
Y782555D01*
Y782572D01*
X930878Y782569D01*
D02*
G37*
G36*
X922703Y788457D02*
X922625Y788066D01*
Y787722D01*
Y787378D01*
Y787033D01*
Y787019D01*
X921564D01*
Y787033D01*
Y787315D01*
X921610Y787346D01*
X921831Y787676D01*
X921909Y788066D01*
Y788411D01*
Y788425D01*
X922267D01*
X922657Y788502D01*
X922794Y788594D01*
X922703Y788457D01*
D02*
G37*
G36*
X1030487Y737468D02*
X1029899Y737017D01*
X1029646Y736687D01*
Y743033D01*
X1030487Y743874D01*
Y737468D01*
D02*
G37*
G36*
X1012487Y744767D02*
Y744383D01*
X1011546D01*
Y744900D01*
X1012354D01*
X1012487Y744767D01*
D02*
G37*
G36*
X1009119Y735635D02*
X1009046Y735078D01*
Y735708D01*
X1009119Y735635D01*
D02*
G37*
G36*
X1024387Y742900D02*
Y736687D01*
X1024134Y737017D01*
X1023546Y737468D01*
Y743741D01*
X1024387Y742900D01*
D02*
G37*
G36*
X1034587Y744566D02*
Y744383D01*
X1033546D01*
Y744900D01*
X1034254D01*
X1034587Y744566D01*
D02*
G37*
G36*
X1027035Y744748D02*
X1026967Y744646D01*
X1026713Y744900D01*
X1027187D01*
X1027035Y744748D01*
D02*
G37*
G36*
X1005732Y766200D02*
X1005868Y765517D01*
X1006255Y764938D01*
X1017432Y753761D01*
Y748800D01*
X1017516Y748376D01*
Y747163D01*
X1016735Y746381D01*
X1016403Y745885D01*
X1016287Y745300D01*
Y744383D01*
X1015546D01*
Y745400D01*
X1015429Y745985D01*
X1015098Y746481D01*
X1014316Y747263D01*
Y748376D01*
X1014401Y748800D01*
Y755000D01*
X1014401Y755000D01*
X1014265Y755683D01*
X1013878Y756262D01*
X1004101Y766039D01*
Y767900D01*
X1005732D01*
Y766200D01*
D02*
G37*
G36*
X1020487Y744383D02*
X1019346D01*
Y744666D01*
X1019579Y744900D01*
X1020487D01*
Y744383D01*
D02*
G37*
%LPC*%
G36*
X985940Y695750D02*
X984500D01*
Y694310D01*
X984780Y694366D01*
X985442Y694808D01*
X985884Y695470D01*
X985940Y695750D01*
D02*
G37*
G36*
X983500D02*
X982060D01*
X982116Y695470D01*
X982558Y694808D01*
X983220Y694366D01*
X983500Y694310D01*
Y695750D01*
D02*
G37*
G36*
X984500Y698190D02*
Y696750D01*
X985940D01*
X985884Y697030D01*
X985442Y697692D01*
X984780Y698134D01*
X984500Y698190D01*
D02*
G37*
G36*
X983500D02*
X983220Y698134D01*
X982558Y697692D01*
X982116Y697030D01*
X982060Y696750D01*
X983500D01*
Y698190D01*
D02*
G37*
%LPD*%
D10*
X1014016Y742300D02*
D03*
X1010473D02*
D03*
X1036116D02*
D03*
X1032573D02*
D03*
X1017816D02*
D03*
X1021360D02*
D03*
X951043Y665250D02*
D03*
X947500D02*
D03*
X951043Y675250D02*
D03*
X947500D02*
D03*
X997933Y668850D02*
D03*
X994390D02*
D03*
D11*
X986244Y717134D02*
D03*
X991756D02*
D03*
X1002656Y742650D02*
D03*
X997144D02*
D03*
X986344Y742650D02*
D03*
X991856D02*
D03*
X1005672Y778000D02*
D03*
X1000161D02*
D03*
X1026161Y778200D02*
D03*
X1031672D02*
D03*
D12*
X1022000Y714803D02*
D03*
Y708897D02*
D03*
X1031900Y712803D02*
D03*
Y706897D02*
D03*
X1012000Y716803D02*
D03*
Y710897D02*
D03*
D13*
X991900Y757506D02*
D03*
Y763018D02*
D03*
X1015916Y777944D02*
D03*
Y783456D02*
D03*
D14*
X985700Y723350D02*
D03*
X993100D02*
D03*
D15*
X989400Y731950D02*
D03*
D16*
X997216Y771800D02*
D03*
X999816D02*
D03*
X1002316D02*
D03*
X1004916D02*
D03*
X1007516D02*
D03*
X1010016D02*
D03*
X1012616D02*
D03*
Y748800D02*
D03*
X1010016D02*
D03*
X1007516D02*
D03*
X1004916D02*
D03*
X1002316D02*
D03*
X999816D02*
D03*
X997216D02*
D03*
X1019216D02*
D03*
X1021816D02*
D03*
X1024316D02*
D03*
X1026916D02*
D03*
X1029516D02*
D03*
X1032016D02*
D03*
X1034616D02*
D03*
Y771800D02*
D03*
X1032016D02*
D03*
X1029516D02*
D03*
X1026916D02*
D03*
X1024316D02*
D03*
X1021816D02*
D03*
X1019216D02*
D03*
D17*
X1003400Y711934D02*
D03*
Y710034D02*
D03*
Y708034D02*
D03*
Y706034D02*
D03*
Y704134D02*
D03*
X987200D02*
D03*
Y706034D02*
D03*
Y708034D02*
D03*
Y710034D02*
D03*
Y711934D02*
D03*
D18*
X992815Y674551D02*
D03*
X995374D02*
D03*
X997933D02*
D03*
X1000492D02*
D03*
X1003052D02*
D03*
X1005611D02*
D03*
X1008170D02*
D03*
X1010729D02*
D03*
X1013288D02*
D03*
X1015847D02*
D03*
X1018406D02*
D03*
X1020965D02*
D03*
Y697149D02*
D03*
X1018406D02*
D03*
X1015847D02*
D03*
X1013288D02*
D03*
X1010729D02*
D03*
X1008170D02*
D03*
X1005611D02*
D03*
X1003052D02*
D03*
X1000492D02*
D03*
X997933D02*
D03*
X995374D02*
D03*
X992815D02*
D03*
D19*
X984700Y711934D02*
Y750650D01*
X984744Y711978D02*
Y717134D01*
X984700Y750650D02*
X990500Y756450D01*
X1005000D01*
D20*
X993200Y724450D02*
X1002016Y733266D01*
Y734900D01*
X1001956Y734961D02*
X1002016Y734900D01*
X1001956Y734961D02*
Y742650D01*
X1012000Y724483D02*
X1012016Y724500D01*
X1012000Y716803D02*
Y724483D01*
X1022000Y714803D02*
Y724500D01*
X1031900Y712803D02*
Y724500D01*
X1024316Y765500D02*
X1034616Y755200D01*
X1002316Y765300D02*
X1012616Y755000D01*
X1007516Y766200D02*
X1019216Y754500D01*
X1002316Y765300D02*
Y771800D01*
X1012616Y748800D02*
Y755000D01*
X1007516Y766200D02*
Y771800D01*
X1019216Y748800D02*
Y754500D01*
X1015916Y766300D02*
Y777944D01*
X1026916Y748800D02*
Y755300D01*
X1024316Y765500D02*
Y771800D01*
X1034616Y748800D02*
Y755200D01*
X1004916Y748800D02*
Y755350D01*
X1005000Y755434D01*
Y756450D01*
X1026916Y783700D02*
X1029900Y786684D01*
Y800400D01*
X1024500Y805800D02*
X1029900Y800400D01*
X1026916Y771800D02*
Y783700D01*
X989100Y794000D02*
X989250D01*
X1005650Y778022D02*
X1005672Y778000D01*
X1000900Y794000D02*
X1004916Y789984D01*
Y771800D02*
Y789984D01*
X1015916Y766300D02*
X1026916Y755300D01*
X1111716Y704134D02*
X1111750Y704100D01*
X947500Y665250D02*
Y670150D01*
Y675250D01*
Y659250D02*
Y665250D01*
X1079600Y747050D02*
X1094596D01*
X1094598Y747052D01*
X981600Y705450D02*
X982184Y706034D01*
D21*
X1022000Y724483D02*
X1022016Y724500D01*
X1031900Y724383D02*
X1032016Y724500D01*
X1024316Y745134D02*
Y748800D01*
Y745134D02*
X1025916Y743534D01*
Y728400D02*
Y743534D01*
X1029516Y745066D02*
Y748800D01*
X1028116Y743666D02*
X1029516Y745066D01*
X1028116Y728400D02*
Y743666D01*
X1022016Y734900D02*
Y748600D01*
X1021816Y748800D02*
X1022016Y748600D01*
X1010016Y736900D02*
Y748800D01*
Y736900D02*
X1012016Y734900D01*
X1032016D02*
Y748800D01*
X1032016Y748800D02*
X1032016Y748800D01*
X1000900Y706034D02*
X1033100D01*
X1000900Y708034D02*
X1023200D01*
X1000900Y710034D02*
X1013200D01*
X1014016Y742300D02*
Y745400D01*
X1028116Y728400D02*
X1032016Y724500D01*
X1022016D02*
X1025916Y728400D01*
X997216Y771800D02*
X999816D01*
X1012616Y746800D02*
X1014016Y745400D01*
X1007516Y729000D02*
Y748800D01*
Y729000D02*
X1012016Y724500D01*
X1017816Y742300D02*
Y745300D01*
X1036116Y742300D02*
Y745200D01*
X1012616Y746800D02*
Y748800D01*
X1017816Y745300D02*
X1019216Y746700D01*
Y748800D01*
X1034616Y746700D02*
X1036116Y745200D01*
X1034616Y746700D02*
Y748800D01*
X990500Y707950D02*
X995374Y703076D01*
X987284Y707950D02*
X990500D01*
X987200Y708034D02*
X987284Y707950D01*
X987200Y710034D02*
X987284Y709950D01*
X992100D01*
X997933Y704116D01*
Y697149D02*
Y704116D01*
X995374Y697149D02*
Y703076D01*
X997900Y697116D02*
X997933Y697149D01*
X966700Y675250D02*
X977100Y685650D01*
Y705550D01*
X981584Y710034D01*
X987200D01*
X966700Y665250D02*
X995374Y693924D01*
Y697149D01*
X989100Y779916D02*
X997216Y771800D01*
X989100Y779916D02*
Y794000D01*
X1011300Y792600D02*
X1012700Y794000D01*
X1011333Y773084D02*
X1012616Y771800D01*
X1011300Y773084D02*
X1011333D01*
X1010016Y771800D02*
X1011300Y773084D01*
Y792600D01*
X1020500Y773084D02*
Y790000D01*
X1024500Y794000D01*
X1019216Y771800D02*
X1020500Y773084D01*
X1021784Y771800D02*
X1021816D01*
X1020500Y773084D02*
X1021784Y771800D01*
X1005611Y674551D02*
Y676551D01*
X1008170Y674551D02*
Y676551D01*
Y662980D02*
Y674551D01*
Y662980D02*
X1014085Y657065D01*
Y648950D02*
Y657065D01*
X999321Y648950D02*
Y657271D01*
X1005611Y663561D01*
Y674551D01*
X1049521Y652350D02*
X1052921Y648950D01*
X1061485Y655150D02*
X1067685Y648950D01*
X1010729Y664121D02*
Y674551D01*
Y664121D02*
X1022500Y652350D01*
X1049521D01*
X1013288Y665562D02*
Y674551D01*
Y665562D02*
X1023700Y655150D01*
X1061485D01*
X1003052Y664702D02*
Y674551D01*
X990700Y652350D02*
X1003052Y664702D01*
X963685Y652350D02*
X990700D01*
X960285Y648950D02*
X963685Y652350D01*
X1000492Y666043D02*
Y674551D01*
X989600Y655150D02*
X1000492Y666043D01*
X951721Y655150D02*
X989600D01*
X1003400Y704134D02*
X1111716D01*
X951043Y675250D02*
X966700D01*
X951043Y665250D02*
X966700D01*
X992815Y694224D02*
Y697149D01*
X968842Y670250D02*
X992815Y694224D01*
X947600Y670250D02*
X968842D01*
X947500Y670150D02*
X947600Y670250D01*
X997933Y668850D02*
Y674551D01*
X984790Y659250D02*
X994390Y668850D01*
X947500Y659250D02*
X984790D01*
X945521Y648950D02*
X951721Y655150D01*
X947500Y654150D02*
Y659250D01*
X946500Y653150D02*
X947500Y654150D01*
X982184Y706034D02*
X987200D01*
D22*
X1111750Y694100D02*
D03*
Y704100D02*
D03*
X1024500Y794000D02*
D03*
X989100D02*
D03*
X1012700D02*
D03*
X1000900D02*
D03*
Y805800D02*
D03*
X1012700D02*
D03*
X989100D02*
D03*
X1024500D02*
D03*
D23*
X1105100Y632600D02*
D03*
X908200D02*
D03*
Y829500D02*
D03*
X1105100D02*
D03*
D24*
X1036300Y809500D02*
D03*
X977300D02*
D03*
D25*
X1032016Y734900D02*
D03*
X1022016D02*
D03*
X1012016D02*
D03*
X1002016D02*
D03*
Y724500D02*
D03*
X1012016D02*
D03*
X1022016D02*
D03*
X1032016D02*
D03*
X994400Y648950D02*
D03*
X999321D02*
D03*
X1004243D02*
D03*
X1009164D02*
D03*
X1014085D02*
D03*
X1019006D02*
D03*
X1072606D02*
D03*
X1067685D02*
D03*
X1062764D02*
D03*
X1057843D02*
D03*
X1052921D02*
D03*
X1048000D02*
D03*
X940600D02*
D03*
X945521D02*
D03*
X950443D02*
D03*
X955364D02*
D03*
X960285D02*
D03*
X965206D02*
D03*
D26*
X1046700Y815250D02*
D03*
Y805250D02*
D03*
Y795250D02*
D03*
Y785250D02*
D03*
Y775250D02*
D03*
Y765250D02*
D03*
Y755250D02*
D03*
Y745250D02*
D03*
Y735250D02*
D03*
Y725250D02*
D03*
Y715250D02*
D03*
Y695250D02*
D03*
Y685250D02*
D03*
Y675250D02*
D03*
X966700Y665250D02*
D03*
Y675250D02*
D03*
Y685250D02*
D03*
Y695250D02*
D03*
Y705250D02*
D03*
Y715250D02*
D03*
Y725250D02*
D03*
Y735250D02*
D03*
Y745250D02*
D03*
Y755250D02*
D03*
X967200Y765250D02*
D03*
D27*
X1046700Y665250D02*
D03*
X966700Y775250D02*
D03*
D28*
X1021216Y761000D02*
D03*
X1005000Y756450D02*
D03*
X1079600Y747050D02*
D03*
X1094598Y747052D02*
D03*
X984000Y696250D02*
D03*
M02*
