G04*
G04 #@! TF.GenerationSoftware,Altium Limited,CircuitStudio,1.5.2 (30)*
G04*
G04 Layer_Color=8150272*
%FSLAX25Y25*%
%MOIN*%
G70*
G01*
G75*
%ADD40R,0.03950X0.04343*%
%ADD41R,0.04343X0.03556*%
%ADD42R,0.04343X0.03950*%
%ADD48C,0.06800*%
%ADD49C,0.20800*%
%ADD50C,0.05300*%
%ADD51C,0.04737*%
%ADD52C,0.07400*%
%ADD53R,0.07400X0.07400*%
%ADD54C,0.02800*%
%ADD55R,0.03123X0.08871*%
%ADD56R,0.03556X0.04343*%
D40*
X1068942Y799450D02*
D03*
X1074454D02*
D03*
X1079442Y799350D02*
D03*
X1084954D02*
D03*
X1089642D02*
D03*
X1095154D02*
D03*
D41*
X1057400Y668397D02*
D03*
Y674303D02*
D03*
D42*
X1057948Y789094D02*
D03*
Y794606D02*
D03*
X1057952Y751994D02*
D03*
Y757506D02*
D03*
D48*
X1111750Y694100D02*
D03*
Y704100D02*
D03*
X1024500Y794000D02*
D03*
X989100D02*
D03*
X1012700D02*
D03*
X1000900D02*
D03*
Y805800D02*
D03*
X1012700D02*
D03*
X989100D02*
D03*
X1024500D02*
D03*
D49*
X1105100Y632600D02*
D03*
X908200D02*
D03*
Y829500D02*
D03*
X1105100D02*
D03*
D50*
X1036300Y809500D02*
D03*
X977300D02*
D03*
D51*
X1032016Y734900D02*
D03*
X1022016D02*
D03*
X1012016D02*
D03*
X1002016D02*
D03*
Y724500D02*
D03*
X1012016D02*
D03*
X1022016D02*
D03*
X1032016D02*
D03*
X994400Y648950D02*
D03*
X999321D02*
D03*
X1004243D02*
D03*
X1009164D02*
D03*
X1014085D02*
D03*
X1019006D02*
D03*
X1072606D02*
D03*
X1067685D02*
D03*
X1062764D02*
D03*
X1057843D02*
D03*
X1052921D02*
D03*
X1048000D02*
D03*
X940600D02*
D03*
X945521D02*
D03*
X950443D02*
D03*
X955364D02*
D03*
X960285D02*
D03*
X965206D02*
D03*
D52*
X1046700Y815250D02*
D03*
Y805250D02*
D03*
Y795250D02*
D03*
Y785250D02*
D03*
Y775250D02*
D03*
Y765250D02*
D03*
Y755250D02*
D03*
Y745250D02*
D03*
Y735250D02*
D03*
Y725250D02*
D03*
Y715250D02*
D03*
Y695250D02*
D03*
Y685250D02*
D03*
Y675250D02*
D03*
X966700Y665250D02*
D03*
Y675250D02*
D03*
Y685250D02*
D03*
Y695250D02*
D03*
Y705250D02*
D03*
Y715250D02*
D03*
Y725250D02*
D03*
Y735250D02*
D03*
Y745250D02*
D03*
Y755250D02*
D03*
X967200Y765250D02*
D03*
D53*
X1046700Y665250D02*
D03*
X966700Y775250D02*
D03*
D54*
X1021216Y761000D02*
D03*
X1005000Y756450D02*
D03*
X1079600Y747050D02*
D03*
X1094598Y747052D02*
D03*
X984000Y696250D02*
D03*
D55*
X1064598Y755023D02*
D03*
X1069598D02*
D03*
X1074598D02*
D03*
X1079598D02*
D03*
X1084598D02*
D03*
X1089598D02*
D03*
X1094598D02*
D03*
X1099598D02*
D03*
Y791677D02*
D03*
X1094598D02*
D03*
X1089598D02*
D03*
X1084598D02*
D03*
X1079598D02*
D03*
X1074598D02*
D03*
X1069598D02*
D03*
X1064598D02*
D03*
D56*
X1070553Y747050D02*
D03*
X1064647D02*
D03*
M02*
