G04*
G04 #@! TF.GenerationSoftware,Altium Limited,CircuitStudio,1.5.2 (30)*
G04*
G04 Layer_Color=11619584*
%FSLAX25Y25*%
%MOIN*%
G70*
G01*
G75*
%ADD31C,0.00600*%
%ADD32C,0.00000*%
%ADD33C,0.00500*%
%ADD35C,0.00787*%
%ADD57C,0.00669*%
D31*
X994916Y751400D02*
X1014916D01*
X994916D02*
Y759100D01*
Y761500D01*
Y769200D01*
X1014916D01*
Y751400D02*
Y769200D01*
X996616D02*
Y773300D01*
X997816D01*
Y769200D02*
Y773300D01*
X996616Y769200D02*
X997816D01*
X999216D02*
Y773300D01*
X1000416D01*
Y769200D02*
Y773300D01*
X999216Y769200D02*
X1000416D01*
X1001816D02*
Y773300D01*
X1002916D01*
Y769200D02*
Y773300D01*
X1001816Y769200D02*
X1002916D01*
X1004316D02*
Y773300D01*
X1005516D01*
Y769200D02*
Y773300D01*
X1004316Y769200D02*
X1005516D01*
X1006916D02*
Y773300D01*
X1008016D01*
Y769200D02*
Y773300D01*
X1006916Y769200D02*
X1008016D01*
X1009416D02*
Y773300D01*
X1010616D01*
Y769200D02*
Y773300D01*
X1009416Y769200D02*
X1010616D01*
X1012016D02*
Y773300D01*
X1013216D01*
Y769200D02*
Y773300D01*
X1012016Y769200D02*
X1013216D01*
Y747300D02*
Y751400D01*
X1012016Y747300D02*
X1013216D01*
X1012016D02*
Y751400D01*
X1013216D01*
X1010616Y747300D02*
Y751400D01*
X1009416Y747300D02*
X1010616D01*
X1009416D02*
Y751400D01*
X1010616D01*
X1008016Y747300D02*
Y751400D01*
X1006916Y747300D02*
X1008016D01*
X1006916D02*
Y751400D01*
X1008016D01*
X1005516Y747300D02*
Y751400D01*
X1004316Y747300D02*
X1005516D01*
X1004316D02*
Y751400D01*
X1005516D01*
X1002916Y747300D02*
Y751400D01*
X1001816Y747300D02*
X1002916D01*
X1001816D02*
Y751400D01*
X1002916D01*
X1000416Y747300D02*
Y751400D01*
X999216Y747300D02*
X1000416D01*
X999216D02*
Y751400D01*
X1000416D01*
X997816Y747300D02*
Y751400D01*
X996616Y747300D02*
X997816D01*
X996616D02*
Y751400D01*
X997816D01*
X994916D02*
X1014916D01*
X994916D02*
Y759100D01*
Y761500D01*
Y769200D01*
X1014916D01*
Y751400D02*
Y769200D01*
X996616D02*
Y773300D01*
X997816D01*
Y769200D02*
Y773300D01*
X996616Y769200D02*
X997816D01*
X999216D02*
Y773300D01*
X1000416D01*
Y769200D02*
Y773300D01*
X999216Y769200D02*
X1000416D01*
X1001816D02*
Y773300D01*
X1002916D01*
Y769200D02*
Y773300D01*
X1001816Y769200D02*
X1002916D01*
X1004316D02*
Y773300D01*
X1005516D01*
Y769200D02*
Y773300D01*
X1004316Y769200D02*
X1005516D01*
X1006916D02*
Y773300D01*
X1008016D01*
Y769200D02*
Y773300D01*
X1006916Y769200D02*
X1008016D01*
X1009416D02*
Y773300D01*
X1010616D01*
Y769200D02*
Y773300D01*
X1009416Y769200D02*
X1010616D01*
X1012016D02*
Y773300D01*
X1013216D01*
Y769200D02*
Y773300D01*
X1012016Y769200D02*
X1013216D01*
Y747300D02*
Y751400D01*
X1012016Y747300D02*
X1013216D01*
X1012016D02*
Y751400D01*
X1013216D01*
X1010616Y747300D02*
Y751400D01*
X1009416Y747300D02*
X1010616D01*
X1009416D02*
Y751400D01*
X1010616D01*
X1008016Y747300D02*
Y751400D01*
X1006916Y747300D02*
X1008016D01*
X1006916D02*
Y751400D01*
X1008016D01*
X1005516Y747300D02*
Y751400D01*
X1004316Y747300D02*
X1005516D01*
X1004316D02*
Y751400D01*
X1005516D01*
X1002916Y747300D02*
Y751400D01*
X1001816Y747300D02*
X1002916D01*
X1001816D02*
Y751400D01*
X1002916D01*
X1000416Y747300D02*
Y751400D01*
X999216Y747300D02*
X1000416D01*
X999216D02*
Y751400D01*
X1000416D01*
X997816Y747300D02*
Y751400D01*
X996616Y747300D02*
X997816D01*
X996616D02*
Y751400D01*
X997816D01*
X989400Y702134D02*
Y713934D01*
X994100D01*
X996500D01*
X1001200D01*
Y702134D02*
Y713934D01*
X989400Y702134D02*
X1001200D01*
Y712534D02*
X1004900D01*
Y711334D02*
Y712534D01*
X1001200Y711334D02*
X1004900D01*
X1001200D02*
Y712534D01*
Y710634D02*
X1004900D01*
Y709434D02*
Y710634D01*
X1001200Y709434D02*
X1004900D01*
X1001200D02*
Y710634D01*
Y708634D02*
X1004900D01*
Y707434D02*
Y708634D01*
X1001200Y707434D02*
X1004900D01*
X1001200D02*
Y708634D01*
Y706634D02*
X1004900D01*
Y705434D02*
Y706634D01*
X1001200Y705434D02*
X1004900D01*
X1001200D02*
Y706634D01*
Y704734D02*
X1004900D01*
Y703534D02*
Y704734D01*
X1001200Y703534D02*
X1004900D01*
X1001200D02*
Y704734D01*
X985700Y703534D02*
X989400D01*
X985700D02*
Y704734D01*
X989400D01*
Y703534D02*
Y704734D01*
X985700Y705434D02*
X989400D01*
X985700D02*
Y706634D01*
X989400D01*
Y705434D02*
Y706634D01*
X985700Y707434D02*
X989400D01*
X985700D02*
Y708634D01*
X989400D01*
Y707434D02*
Y708634D01*
X985700Y709434D02*
X989400D01*
X985700D02*
Y710634D01*
X989400D01*
Y709434D02*
Y710634D01*
X985700Y711334D02*
X989400D01*
X985700D02*
Y712534D01*
X989400D01*
Y711334D02*
Y712534D01*
Y702134D02*
Y713934D01*
X994100D01*
X996500D01*
X1001200D01*
Y702134D02*
Y713934D01*
X989400Y702134D02*
X1001200D01*
Y712534D02*
X1004900D01*
Y711334D02*
Y712534D01*
X1001200Y711334D02*
X1004900D01*
X1001200D02*
Y712534D01*
Y710634D02*
X1004900D01*
Y709434D02*
Y710634D01*
X1001200Y709434D02*
X1004900D01*
X1001200D02*
Y710634D01*
Y708634D02*
X1004900D01*
Y707434D02*
Y708634D01*
X1001200Y707434D02*
X1004900D01*
X1001200D02*
Y708634D01*
Y706634D02*
X1004900D01*
Y705434D02*
Y706634D01*
X1001200Y705434D02*
X1004900D01*
X1001200D02*
Y706634D01*
Y704734D02*
X1004900D01*
Y703534D02*
Y704734D01*
X1001200Y703534D02*
X1004900D01*
X1001200D02*
Y704734D01*
X985700Y703534D02*
X989400D01*
X985700D02*
Y704734D01*
X989400D01*
Y703534D02*
Y704734D01*
X985700Y705434D02*
X989400D01*
X985700D02*
Y706634D01*
X989400D01*
Y705434D02*
Y706634D01*
X985700Y707434D02*
X989400D01*
X985700D02*
Y708634D01*
X989400D01*
Y707434D02*
Y708634D01*
X985700Y709434D02*
X989400D01*
X985700D02*
Y710634D01*
X989400D01*
Y709434D02*
Y710634D01*
X985700Y711334D02*
X989400D01*
X985700D02*
Y712534D01*
X989400D01*
Y711334D02*
Y712534D01*
X1018616Y751400D02*
X1019816D01*
X1018616Y747300D02*
Y751400D01*
Y747300D02*
X1019816D01*
Y751400D01*
X1021216D02*
X1022416D01*
X1021216Y747300D02*
Y751400D01*
Y747300D02*
X1022416D01*
Y751400D01*
X1023816D02*
X1024916D01*
X1023816Y747300D02*
Y751400D01*
Y747300D02*
X1024916D01*
Y751400D01*
X1026316D02*
X1027516D01*
X1026316Y747300D02*
Y751400D01*
Y747300D02*
X1027516D01*
Y751400D01*
X1028916D02*
X1030016D01*
X1028916Y747300D02*
Y751400D01*
Y747300D02*
X1030016D01*
Y751400D01*
X1031416D02*
X1032616D01*
X1031416Y747300D02*
Y751400D01*
Y747300D02*
X1032616D01*
Y751400D01*
X1034016D02*
X1035216D01*
X1034016Y747300D02*
Y751400D01*
Y747300D02*
X1035216D01*
Y751400D01*
X1034016Y769200D02*
X1035216D01*
Y773300D01*
X1034016D02*
X1035216D01*
X1034016Y769200D02*
Y773300D01*
X1031416Y769200D02*
X1032616D01*
Y773300D01*
X1031416D02*
X1032616D01*
X1031416Y769200D02*
Y773300D01*
X1028916Y769200D02*
X1030016D01*
Y773300D01*
X1028916D02*
X1030016D01*
X1028916Y769200D02*
Y773300D01*
X1026316Y769200D02*
X1027516D01*
Y773300D01*
X1026316D02*
X1027516D01*
X1026316Y769200D02*
Y773300D01*
X1023816Y769200D02*
X1024916D01*
Y773300D01*
X1023816D02*
X1024916D01*
X1023816Y769200D02*
Y773300D01*
X1021216Y769200D02*
X1022416D01*
Y773300D01*
X1021216D02*
X1022416D01*
X1021216Y769200D02*
Y773300D01*
X1018616Y769200D02*
X1019816D01*
Y773300D01*
X1018616D02*
X1019816D01*
X1018616Y769200D02*
Y773300D01*
X1036916Y751400D02*
Y769200D01*
X1016916D02*
X1036916D01*
X1016916Y761500D02*
Y769200D01*
Y759100D02*
Y761500D01*
Y751400D02*
Y759100D01*
Y751400D02*
X1036916D01*
X1018616D02*
X1019816D01*
X1018616Y747300D02*
Y751400D01*
Y747300D02*
X1019816D01*
Y751400D01*
X1021216D02*
X1022416D01*
X1021216Y747300D02*
Y751400D01*
Y747300D02*
X1022416D01*
Y751400D01*
X1023816D02*
X1024916D01*
X1023816Y747300D02*
Y751400D01*
Y747300D02*
X1024916D01*
Y751400D01*
X1026316D02*
X1027516D01*
X1026316Y747300D02*
Y751400D01*
Y747300D02*
X1027516D01*
Y751400D01*
X1028916D02*
X1030016D01*
X1028916Y747300D02*
Y751400D01*
Y747300D02*
X1030016D01*
Y751400D01*
X1031416D02*
X1032616D01*
X1031416Y747300D02*
Y751400D01*
Y747300D02*
X1032616D01*
Y751400D01*
X1034016D02*
X1035216D01*
X1034016Y747300D02*
Y751400D01*
Y747300D02*
X1035216D01*
Y751400D01*
X1034016Y769200D02*
X1035216D01*
Y773300D01*
X1034016D02*
X1035216D01*
X1034016Y769200D02*
Y773300D01*
X1031416Y769200D02*
X1032616D01*
Y773300D01*
X1031416D02*
X1032616D01*
X1031416Y769200D02*
Y773300D01*
X1028916Y769200D02*
X1030016D01*
Y773300D01*
X1028916D02*
X1030016D01*
X1028916Y769200D02*
Y773300D01*
X1026316Y769200D02*
X1027516D01*
Y773300D01*
X1026316D02*
X1027516D01*
X1026316Y769200D02*
Y773300D01*
X1023816Y769200D02*
X1024916D01*
Y773300D01*
X1023816D02*
X1024916D01*
X1023816Y769200D02*
Y773300D01*
X1021216Y769200D02*
X1022416D01*
Y773300D01*
X1021216D02*
X1022416D01*
X1021216Y769200D02*
Y773300D01*
X1018616Y769200D02*
X1019816D01*
Y773300D01*
X1018616D02*
X1019816D01*
X1018616Y769200D02*
Y773300D01*
X1036916Y751400D02*
Y769200D01*
X1016916D02*
X1036916D01*
X1016916Y761500D02*
Y769200D01*
Y759100D02*
Y761500D01*
Y751400D02*
Y759100D01*
Y751400D02*
X1036916D01*
D32*
X983400Y726450D02*
G03*
X983400Y728850I0J1200D01*
G01*
Y726450D02*
G03*
X983400Y728850I0J1200D01*
G01*
X994916Y759100D02*
G03*
X994916Y761500I0J1200D01*
G01*
Y759100D02*
G03*
X994916Y761500I0J1200D01*
G01*
X994100Y713934D02*
G03*
X996500Y713934I1200J0D01*
G01*
X994100D02*
G03*
X996500Y713934I1200J0D01*
G01*
X1016916Y759100D02*
G03*
X1016916Y761500I0J1200D01*
G01*
Y759100D02*
G03*
X1016916Y761500I0J1200D01*
G01*
X995400Y724850D02*
Y730450D01*
X990400D02*
X995400D01*
X988400D02*
X990400D01*
X983400D02*
X988400D01*
X983400Y728850D02*
Y730450D01*
Y726450D02*
Y728850D01*
Y724850D02*
Y726450D01*
Y724850D02*
X984700D01*
X986600D01*
X992200D01*
X984700Y722450D02*
Y724850D01*
Y722450D02*
X986600D01*
Y724850D01*
X994100D02*
X995400D01*
X992200D02*
X994100D01*
X992200Y722450D02*
Y724850D01*
Y722450D02*
X994100D01*
Y724850D01*
X990400Y730450D02*
Y732850D01*
X988400D02*
X990400D01*
X988400Y730450D02*
Y732850D01*
X995400Y724850D02*
Y730450D01*
X990400D02*
X995400D01*
X988400D02*
X990400D01*
X983400D02*
X988400D01*
X983400Y728850D02*
Y730450D01*
Y726450D02*
Y728850D01*
Y724850D02*
Y726450D01*
Y724850D02*
X984700D01*
X986600D01*
X992200D01*
X984700Y722450D02*
Y724850D01*
Y722450D02*
X986600D01*
Y724850D01*
X994100D02*
X995400D01*
X992200D02*
X994100D01*
X992200Y722450D02*
Y724850D01*
Y722450D02*
X994100D01*
Y724850D01*
X990400Y730450D02*
Y732850D01*
X988400D02*
X990400D01*
X988400Y730450D02*
Y732850D01*
D33*
X971700Y840250D02*
G03*
X961700Y830250I0J-10000D01*
G01*
X1051700D02*
G03*
X1041700Y840250I-10000J0D01*
G01*
Y640250D02*
G03*
X1051700Y650250I0J10000D01*
G01*
X961700D02*
G03*
X971700Y640250I10000J0D01*
G01*
Y840250D02*
G03*
X961700Y830250I0J-10000D01*
G01*
X1051700D02*
G03*
X1041700Y840250I-10000J0D01*
G01*
Y640250D02*
G03*
X1051700Y650250I0J10000D01*
G01*
X961700D02*
G03*
X971700Y640250I10000J0D01*
G01*
X991536Y677189D02*
Y694511D01*
X1022244Y677189D02*
Y694511D01*
X991536Y677189D02*
X1022244D01*
X991536Y694511D02*
X1022244D01*
X991536Y677189D02*
Y694511D01*
X1022244Y677189D02*
Y694511D01*
X991536Y677189D02*
X1022244D01*
X991536Y694511D02*
X1022244D01*
X1061429Y758389D02*
X1102767D01*
X1061429Y788311D02*
X1102767D01*
Y758389D02*
Y788311D01*
X1061429Y758389D02*
Y788311D01*
Y758389D02*
X1102767D01*
X1061429Y788311D02*
X1102767D01*
Y758389D02*
Y788311D01*
X1061429Y758389D02*
Y788311D01*
X971700Y840250D02*
X1041700D01*
X1051700Y650250D02*
Y830250D01*
X971700Y640250D02*
X1041700D01*
X961700Y650250D02*
Y830250D01*
X971700Y840250D02*
X1041700D01*
X1051700Y650250D02*
Y830250D01*
X971700Y640250D02*
X1041700D01*
X961700Y650250D02*
Y830250D01*
D35*
X1062669Y799748D02*
G03*
X1062669Y799748I-394J0D01*
G01*
D02*
G03*
X1062669Y799748I-394J0D01*
G01*
X1041739Y665250D02*
G03*
X1041739Y665250I-394J0D01*
G01*
D02*
G03*
X1041739Y665250I-394J0D01*
G01*
D57*
X991989Y668370D02*
G03*
X991989Y668370I-787J0D01*
G01*
D02*
G03*
X991989Y668370I-787J0D01*
G01*
M02*
