G04*
G04 #@! TF.GenerationSoftware,Altium Limited,CircuitStudio,1.5.2 (30)*
G04*
G04 Layer_Physical_Order=2*
G04 Layer_Color=12500520*
%FSLAX25Y25*%
%MOIN*%
G70*
G01*
G75*
%ADD11R,0.03150X0.03543*%
%ADD12R,0.03543X0.02756*%
%ADD13R,0.03543X0.03150*%
%ADD20C,0.01500*%
%ADD21C,0.01000*%
%ADD22C,0.06000*%
%ADD23C,0.20000*%
%ADD24C,0.04500*%
%ADD25C,0.03937*%
%ADD26C,0.06600*%
%ADD27R,0.06600X0.06600*%
%ADD28C,0.02000*%
%ADD29R,0.02323X0.08071*%
%ADD30R,0.02756X0.03543*%
G36*
X1106857Y840596D02*
X1108572Y840185D01*
X1110200Y839510D01*
X1111703Y838589D01*
X1113044Y837444D01*
X1114189Y836104D01*
X1115110Y834600D01*
X1115785Y832972D01*
X1116196Y831258D01*
X1116335Y829500D01*
X1116300D01*
X1116335Y632600D01*
X1116196Y630842D01*
X1115785Y629128D01*
X1115110Y627500D01*
X1114189Y625996D01*
X1113044Y624656D01*
X1111703Y623511D01*
X1110200Y622590D01*
X1108572Y621915D01*
X1106857Y621504D01*
X1105100Y621365D01*
Y621400D01*
X908200Y621365D01*
X908200D01*
X906443Y621504D01*
X904728Y621915D01*
X903100Y622590D01*
X901596Y623511D01*
X900256Y624656D01*
X899111Y625996D01*
X898190Y627500D01*
X897515Y629128D01*
X897104Y630842D01*
X896965Y632600D01*
X897000D01*
X896965Y829500D01*
X897104Y831258D01*
X897515Y832972D01*
X898190Y834600D01*
X899111Y836104D01*
X900256Y837444D01*
X901597Y838589D01*
X903100Y839510D01*
X904728Y840185D01*
X906443Y840596D01*
X908200Y840735D01*
Y840700D01*
X1105100Y840735D01*
X1106857Y840596D01*
D02*
G37*
%LPC*%
G36*
X1012016Y727494D02*
X1011242Y727392D01*
X1010519Y727093D01*
X1009899Y726617D01*
X1009424Y725997D01*
X1009124Y725275D01*
X1009022Y724500D01*
X1009124Y723725D01*
X1009424Y723003D01*
X1009899Y722383D01*
X1010519Y721907D01*
X1011242Y721608D01*
X1012016Y721506D01*
X1012791Y721608D01*
X1013513Y721907D01*
X1014134Y722383D01*
X1014609Y723003D01*
X1014909Y723725D01*
X1015011Y724500D01*
X1014909Y725275D01*
X1014609Y725997D01*
X1014134Y726617D01*
X1013513Y727093D01*
X1012791Y727392D01*
X1012016Y727494D01*
D02*
G37*
G36*
X1046700Y729587D02*
X1045578Y729439D01*
X1044532Y729006D01*
X1043633Y728317D01*
X1042944Y727419D01*
X1042511Y726372D01*
X1042363Y725250D01*
X1042511Y724127D01*
X1042944Y723081D01*
X1043633Y722183D01*
X1044532Y721494D01*
X1045578Y721061D01*
X1046700Y720913D01*
X1047822Y721061D01*
X1048868Y721494D01*
X1049767Y722183D01*
X1050456Y723081D01*
X1050889Y724127D01*
X1051037Y725250D01*
X1050889Y726372D01*
X1050456Y727419D01*
X1049767Y728317D01*
X1048868Y729006D01*
X1047822Y729439D01*
X1046700Y729587D01*
D02*
G37*
G36*
X1022016Y727494D02*
X1021241Y727392D01*
X1020519Y727093D01*
X1019899Y726617D01*
X1019423Y725997D01*
X1019124Y725275D01*
X1019022Y724500D01*
X1019124Y723725D01*
X1019423Y723003D01*
X1019899Y722383D01*
X1020519Y721907D01*
X1021241Y721608D01*
X1022016Y721506D01*
X1022791Y721608D01*
X1023514Y721907D01*
X1024134Y722383D01*
X1024609Y723003D01*
X1024909Y723725D01*
X1025011Y724500D01*
X1024909Y725275D01*
X1024609Y725997D01*
X1024134Y726617D01*
X1023514Y727093D01*
X1022791Y727392D01*
X1022016Y727494D01*
D02*
G37*
G36*
X1001516Y724000D02*
X999088D01*
X999124Y723725D01*
X999424Y723003D01*
X999899Y722383D01*
X1000519Y721907D01*
X1001241Y721608D01*
X1001516Y721572D01*
Y724000D01*
D02*
G37*
G36*
X1032016Y727494D02*
X1031242Y727392D01*
X1030519Y727093D01*
X1029899Y726617D01*
X1029424Y725997D01*
X1029124Y725275D01*
X1029022Y724500D01*
X1029124Y723725D01*
X1029424Y723003D01*
X1029899Y722383D01*
X1030519Y721907D01*
X1031242Y721608D01*
X1032016Y721506D01*
X1032791Y721608D01*
X1033514Y721907D01*
X1034134Y722383D01*
X1034609Y723003D01*
X1034908Y723725D01*
X1035011Y724500D01*
X1034908Y725275D01*
X1034609Y725997D01*
X1034134Y726617D01*
X1033514Y727093D01*
X1032791Y727392D01*
X1032016Y727494D01*
D02*
G37*
G36*
X966700Y709587D02*
X965578Y709439D01*
X964532Y709006D01*
X963633Y708317D01*
X962944Y707418D01*
X962511Y706372D01*
X962363Y705250D01*
X962511Y704128D01*
X962944Y703081D01*
X963633Y702183D01*
X964532Y701494D01*
X965578Y701061D01*
X966700Y700913D01*
X967822Y701061D01*
X968869Y701494D01*
X969767Y702183D01*
X970456Y703081D01*
X970889Y704128D01*
X971037Y705250D01*
X970889Y706372D01*
X970456Y707418D01*
X969767Y708317D01*
X968869Y709006D01*
X967822Y709439D01*
X966700Y709587D01*
D02*
G37*
G36*
X1111750Y708135D02*
X1110706Y707997D01*
X1109733Y707594D01*
X1108897Y706953D01*
X1108256Y706117D01*
X1107853Y705144D01*
X1107716Y704100D01*
X1107853Y703056D01*
X1108256Y702083D01*
X1108897Y701247D01*
X1109733Y700606D01*
X1110706Y700203D01*
X1111750Y700066D01*
X1112794Y700203D01*
X1113767Y700606D01*
X1114603Y701247D01*
X1115244Y702083D01*
X1115647Y703056D01*
X1115784Y704100D01*
X1115647Y705144D01*
X1115244Y706117D01*
X1114603Y706953D01*
X1113767Y707594D01*
X1112794Y707997D01*
X1111750Y708135D01*
D02*
G37*
G36*
X966700Y719587D02*
X965578Y719439D01*
X964532Y719006D01*
X963633Y718317D01*
X962944Y717418D01*
X962511Y716372D01*
X962363Y715250D01*
X962511Y714127D01*
X962944Y713081D01*
X963633Y712183D01*
X964532Y711494D01*
X965578Y711061D01*
X966700Y710913D01*
X967822Y711061D01*
X968869Y711494D01*
X969767Y712183D01*
X970456Y713081D01*
X970889Y714127D01*
X971037Y715250D01*
X970889Y716372D01*
X970456Y717418D01*
X969767Y718317D01*
X968869Y719006D01*
X967822Y719439D01*
X966700Y719587D01*
D02*
G37*
G36*
Y729587D02*
X965578Y729439D01*
X964532Y729006D01*
X963633Y728317D01*
X962944Y727419D01*
X962511Y726372D01*
X962363Y725250D01*
X962511Y724127D01*
X962944Y723081D01*
X963633Y722183D01*
X964532Y721494D01*
X965578Y721061D01*
X966700Y720913D01*
X967822Y721061D01*
X968869Y721494D01*
X969767Y722183D01*
X970456Y723081D01*
X970889Y724127D01*
X971037Y725250D01*
X970889Y726372D01*
X970456Y727419D01*
X969767Y728317D01*
X968869Y729006D01*
X967822Y729439D01*
X966700Y729587D01*
D02*
G37*
G36*
X1046700Y719587D02*
X1045578Y719439D01*
X1044532Y719006D01*
X1043633Y718317D01*
X1042944Y717418D01*
X1042511Y716372D01*
X1042363Y715250D01*
X1042511Y714127D01*
X1042944Y713081D01*
X1043633Y712183D01*
X1044532Y711494D01*
X1045578Y711061D01*
X1046700Y710913D01*
X1047822Y711061D01*
X1048868Y711494D01*
X1049767Y712183D01*
X1050456Y713081D01*
X1050889Y714127D01*
X1051037Y715250D01*
X1050889Y716372D01*
X1050456Y717418D01*
X1049767Y718317D01*
X1048868Y719006D01*
X1047822Y719439D01*
X1046700Y719587D01*
D02*
G37*
G36*
X1004945Y724000D02*
X1002516D01*
Y721572D01*
X1002791Y721608D01*
X1003514Y721907D01*
X1004134Y722383D01*
X1004609Y723003D01*
X1004908Y723725D01*
X1004945Y724000D01*
D02*
G37*
G36*
X1022016Y737894D02*
X1021241Y737792D01*
X1020519Y737493D01*
X1019899Y737017D01*
X1019423Y736397D01*
X1019124Y735675D01*
X1019022Y734900D01*
X1019124Y734125D01*
X1019423Y733403D01*
X1019899Y732783D01*
X1020519Y732307D01*
X1021241Y732008D01*
X1022016Y731906D01*
X1022791Y732008D01*
X1023514Y732307D01*
X1024134Y732783D01*
X1024609Y733403D01*
X1024909Y734125D01*
X1025011Y734900D01*
X1024909Y735675D01*
X1024609Y736397D01*
X1024134Y737017D01*
X1023514Y737493D01*
X1022791Y737792D01*
X1022016Y737894D01*
D02*
G37*
G36*
X1012016D02*
X1011242Y737792D01*
X1010519Y737493D01*
X1009899Y737017D01*
X1009424Y736397D01*
X1009124Y735675D01*
X1009022Y734900D01*
X1009124Y734125D01*
X1009424Y733403D01*
X1009899Y732783D01*
X1010519Y732307D01*
X1011242Y732008D01*
X1012016Y731906D01*
X1012791Y732008D01*
X1013513Y732307D01*
X1014134Y732783D01*
X1014609Y733403D01*
X1014909Y734125D01*
X1015011Y734900D01*
X1014909Y735675D01*
X1014609Y736397D01*
X1014134Y737017D01*
X1013513Y737493D01*
X1012791Y737792D01*
X1012016Y737894D01*
D02*
G37*
G36*
X1032016D02*
X1031242Y737792D01*
X1030519Y737493D01*
X1029899Y737017D01*
X1029424Y736397D01*
X1029124Y735675D01*
X1029022Y734900D01*
X1029124Y734125D01*
X1029424Y733403D01*
X1029899Y732783D01*
X1030519Y732307D01*
X1031242Y732008D01*
X1032016Y731906D01*
X1032791Y732008D01*
X1033514Y732307D01*
X1034134Y732783D01*
X1034609Y733403D01*
X1034908Y734125D01*
X1035011Y734900D01*
X1034908Y735675D01*
X1034609Y736397D01*
X1034134Y737017D01*
X1033514Y737493D01*
X1032791Y737792D01*
X1032016Y737894D01*
D02*
G37*
G36*
X1046700Y749587D02*
X1045578Y749439D01*
X1044532Y749006D01*
X1043633Y748317D01*
X1042944Y747418D01*
X1042511Y746373D01*
X1042363Y745250D01*
X1042511Y744128D01*
X1042944Y743081D01*
X1043633Y742183D01*
X1044532Y741494D01*
X1045578Y741061D01*
X1046700Y740913D01*
X1047822Y741061D01*
X1048868Y741494D01*
X1049767Y742183D01*
X1050456Y743081D01*
X1050889Y744128D01*
X1051037Y745250D01*
X1050889Y746373D01*
X1050456Y747418D01*
X1049767Y748317D01*
X1048868Y749006D01*
X1047822Y749439D01*
X1046700Y749587D01*
D02*
G37*
G36*
X966700D02*
X965578Y749439D01*
X964532Y749006D01*
X963633Y748317D01*
X962944Y747418D01*
X962511Y746373D01*
X962363Y745250D01*
X962511Y744128D01*
X962944Y743081D01*
X963633Y742183D01*
X964532Y741494D01*
X965578Y741061D01*
X966700Y740913D01*
X967822Y741061D01*
X968869Y741494D01*
X969767Y742183D01*
X970456Y743081D01*
X970889Y744128D01*
X971037Y745250D01*
X970889Y746373D01*
X970456Y747418D01*
X969767Y748317D01*
X968869Y749006D01*
X967822Y749439D01*
X966700Y749587D01*
D02*
G37*
G36*
X1002516Y727428D02*
Y725000D01*
X1004945D01*
X1004908Y725275D01*
X1004609Y725997D01*
X1004134Y726617D01*
X1003514Y727093D01*
X1002791Y727392D01*
X1002516Y727428D01*
D02*
G37*
G36*
X1001516D02*
X1001241Y727392D01*
X1000519Y727093D01*
X999899Y726617D01*
X999424Y725997D01*
X999124Y725275D01*
X999088Y725000D01*
X1001516D01*
Y727428D01*
D02*
G37*
G36*
X966700Y739587D02*
X965578Y739439D01*
X964532Y739006D01*
X963633Y738317D01*
X962944Y737419D01*
X962511Y736373D01*
X962363Y735250D01*
X962511Y734128D01*
X962944Y733081D01*
X963633Y732183D01*
X964532Y731494D01*
X965578Y731061D01*
X966700Y730913D01*
X967822Y731061D01*
X968869Y731494D01*
X969767Y732183D01*
X970456Y733081D01*
X970889Y734128D01*
X971037Y735250D01*
X970889Y736373D01*
X970456Y737419D01*
X969767Y738317D01*
X968869Y739006D01*
X967822Y739439D01*
X966700Y739587D01*
D02*
G37*
G36*
X1002016Y737894D02*
X1001241Y737792D01*
X1000519Y737493D01*
X999899Y737017D01*
X999424Y736397D01*
X999124Y735675D01*
X999022Y734900D01*
X999124Y734125D01*
X999424Y733403D01*
X999899Y732783D01*
X1000519Y732307D01*
X1001241Y732008D01*
X1002016Y731906D01*
X1002791Y732008D01*
X1003514Y732307D01*
X1004134Y732783D01*
X1004609Y733403D01*
X1004908Y734125D01*
X1005011Y734900D01*
X1004908Y735675D01*
X1004609Y736397D01*
X1004134Y737017D01*
X1003514Y737493D01*
X1002791Y737792D01*
X1002016Y737894D01*
D02*
G37*
G36*
X1046700Y739587D02*
X1045578Y739439D01*
X1044532Y739006D01*
X1043633Y738317D01*
X1042944Y737419D01*
X1042511Y736373D01*
X1042363Y735250D01*
X1042511Y734128D01*
X1042944Y733081D01*
X1043633Y732183D01*
X1044532Y731494D01*
X1045578Y731061D01*
X1046700Y730913D01*
X1047822Y731061D01*
X1048868Y731494D01*
X1049767Y732183D01*
X1050456Y733081D01*
X1050889Y734128D01*
X1051037Y735250D01*
X1050889Y736373D01*
X1050456Y737419D01*
X1049767Y738317D01*
X1048868Y739006D01*
X1047822Y739439D01*
X1046700Y739587D01*
D02*
G37*
G36*
X984500Y698190D02*
Y696750D01*
X985940D01*
X985884Y697030D01*
X985442Y697692D01*
X984780Y698134D01*
X984500Y698190D01*
D02*
G37*
G36*
X966700Y669587D02*
X965578Y669439D01*
X964532Y669006D01*
X963633Y668317D01*
X962944Y667418D01*
X962511Y666372D01*
X962363Y665250D01*
X962511Y664127D01*
X962944Y663081D01*
X963633Y662183D01*
X964532Y661494D01*
X965578Y661061D01*
X966700Y660913D01*
X967822Y661061D01*
X968869Y661494D01*
X969767Y662183D01*
X970456Y663081D01*
X970889Y664127D01*
X971037Y665250D01*
X970889Y666372D01*
X970456Y667418D01*
X969767Y668317D01*
X968869Y669006D01*
X967822Y669439D01*
X966700Y669587D01*
D02*
G37*
G36*
X1072606Y651944D02*
X1071831Y651842D01*
X1071109Y651543D01*
X1070489Y651067D01*
X1070146Y650620D01*
X1069802Y651067D01*
X1069182Y651543D01*
X1068460Y651842D01*
X1067685Y651944D01*
X1066910Y651842D01*
X1066188Y651543D01*
X1065568Y651067D01*
X1065224Y650620D01*
X1064881Y651067D01*
X1064261Y651543D01*
X1063539Y651842D01*
X1063264Y651878D01*
Y648950D01*
Y646022D01*
X1063539Y646058D01*
X1064261Y646357D01*
X1064881Y646833D01*
X1065224Y647281D01*
X1065568Y646833D01*
X1066188Y646357D01*
X1066910Y646058D01*
X1067685Y645956D01*
X1068460Y646058D01*
X1069182Y646357D01*
X1069802Y646833D01*
X1070146Y647281D01*
X1070489Y646833D01*
X1071109Y646357D01*
X1071831Y646058D01*
X1072606Y645956D01*
X1073381Y646058D01*
X1074103Y646357D01*
X1074724Y646833D01*
X1075199Y647453D01*
X1075498Y648175D01*
X1075600Y648950D01*
X1075498Y649725D01*
X1075199Y650447D01*
X1074724Y651067D01*
X1074103Y651543D01*
X1073381Y651842D01*
X1072606Y651944D01*
D02*
G37*
G36*
X1051000Y669550D02*
X1042400D01*
Y660950D01*
X1051000D01*
Y669550D01*
D02*
G37*
G36*
X1091759Y760059D02*
X1087437D01*
Y749988D01*
X1087814D01*
Y707887D01*
X1056961Y677034D01*
X1050615D01*
X1050456Y677419D01*
X1049767Y678317D01*
X1048868Y679006D01*
X1047822Y679439D01*
X1046700Y679587D01*
X1045578Y679439D01*
X1044532Y679006D01*
X1043633Y678317D01*
X1042944Y677419D01*
X1042511Y676372D01*
X1042363Y675250D01*
X1042511Y674127D01*
X1042944Y673081D01*
X1043633Y672183D01*
X1044532Y671494D01*
X1045578Y671061D01*
X1046700Y670913D01*
X1047822Y671061D01*
X1048868Y671494D01*
X1049767Y672183D01*
X1050456Y673081D01*
X1050615Y673466D01*
X1054628D01*
Y671925D01*
X1060172D01*
Y675198D01*
X1090860Y705886D01*
X1091247Y706465D01*
X1091382Y707148D01*
Y749988D01*
X1091759D01*
Y760059D01*
D02*
G37*
G36*
X966700Y679587D02*
X965578Y679439D01*
X964532Y679006D01*
X963633Y678317D01*
X962944Y677419D01*
X962511Y676372D01*
X962363Y675250D01*
X962511Y674127D01*
X962944Y673081D01*
X963633Y672183D01*
X964532Y671494D01*
X965578Y671061D01*
X966700Y670913D01*
X967822Y671061D01*
X968869Y671494D01*
X969767Y672183D01*
X970456Y673081D01*
X970889Y674127D01*
X971037Y675250D01*
X970889Y676372D01*
X970456Y677419D01*
X969767Y678317D01*
X968869Y679006D01*
X967822Y679439D01*
X966700Y679587D01*
D02*
G37*
G36*
X1105100Y643634D02*
X1103374Y643498D01*
X1101690Y643094D01*
X1100091Y642431D01*
X1098614Y641527D01*
X1097298Y640402D01*
X1096173Y639086D01*
X1095269Y637609D01*
X1094606Y636010D01*
X1094202Y634326D01*
X1094066Y632600D01*
X1094202Y630874D01*
X1094606Y629190D01*
X1095269Y627591D01*
X1096173Y626114D01*
X1097298Y624798D01*
X1098614Y623673D01*
X1100091Y622769D01*
X1101690Y622106D01*
X1103374Y621702D01*
X1105100Y621566D01*
X1106826Y621702D01*
X1108510Y622106D01*
X1110109Y622769D01*
X1111586Y623673D01*
X1112902Y624798D01*
X1114027Y626114D01*
X1114931Y627591D01*
X1115594Y629190D01*
X1115998Y630874D01*
X1116134Y632600D01*
X1115998Y634326D01*
X1115594Y636010D01*
X1114931Y637609D01*
X1114027Y639086D01*
X1112902Y640402D01*
X1111586Y641527D01*
X1110109Y642431D01*
X1108510Y643094D01*
X1106826Y643498D01*
X1105100Y643634D01*
D02*
G37*
G36*
X908200D02*
X906474Y643498D01*
X904790Y643094D01*
X903191Y642431D01*
X901714Y641527D01*
X900398Y640402D01*
X899273Y639086D01*
X898369Y637609D01*
X897706Y636010D01*
X897302Y634326D01*
X897166Y632600D01*
X897302Y630874D01*
X897706Y629190D01*
X898369Y627591D01*
X899273Y626114D01*
X900398Y624798D01*
X901714Y623673D01*
X903191Y622769D01*
X904790Y622106D01*
X906474Y621702D01*
X908200Y621566D01*
X909926Y621702D01*
X911610Y622106D01*
X913209Y622769D01*
X914686Y623673D01*
X916002Y624798D01*
X917127Y626114D01*
X918031Y627591D01*
X918694Y629190D01*
X919098Y630874D01*
X919234Y632600D01*
X919098Y634326D01*
X918694Y636010D01*
X918031Y637609D01*
X917127Y639086D01*
X916002Y640402D01*
X914686Y641527D01*
X913209Y642431D01*
X911610Y643094D01*
X909926Y643498D01*
X908200Y643634D01*
D02*
G37*
G36*
X950443Y651944D02*
X949668Y651842D01*
X948946Y651543D01*
X948325Y651067D01*
X947982Y650620D01*
X947638Y651067D01*
X947018Y651543D01*
X946296Y651842D01*
X945521Y651944D01*
X944746Y651842D01*
X944024Y651543D01*
X943404Y651067D01*
X943061Y650620D01*
X942717Y651067D01*
X942097Y651543D01*
X941375Y651842D01*
X940600Y651944D01*
X939825Y651842D01*
X939103Y651543D01*
X938483Y651067D01*
X938007Y650447D01*
X937708Y649725D01*
X937606Y648950D01*
X937708Y648175D01*
X938007Y647453D01*
X938483Y646833D01*
X939103Y646357D01*
X939825Y646058D01*
X940600Y645956D01*
X941375Y646058D01*
X942097Y646357D01*
X942717Y646833D01*
X943061Y647281D01*
X943404Y646833D01*
X944024Y646357D01*
X944746Y646058D01*
X945521Y645956D01*
X946296Y646058D01*
X947018Y646357D01*
X947638Y646833D01*
X947982Y647281D01*
X948325Y646833D01*
X948946Y646357D01*
X949668Y646058D01*
X950443Y645956D01*
X951217Y646058D01*
X951940Y646357D01*
X952560Y646833D01*
X952903Y647281D01*
X953247Y646833D01*
X953867Y646357D01*
X954589Y646058D01*
X954864Y646022D01*
Y648950D01*
Y651878D01*
X954589Y651842D01*
X953867Y651543D01*
X953247Y651067D01*
X952903Y650620D01*
X952560Y651067D01*
X951940Y651543D01*
X951217Y651842D01*
X950443Y651944D01*
D02*
G37*
G36*
X1060172Y670775D02*
X1054628D01*
Y666019D01*
X1056058D01*
Y651323D01*
X1055725Y651067D01*
X1055382Y650620D01*
X1055038Y651067D01*
X1054418Y651543D01*
X1053696Y651842D01*
X1052921Y651944D01*
X1052146Y651842D01*
X1051424Y651543D01*
X1050804Y651067D01*
X1050461Y650620D01*
X1050117Y651067D01*
X1049497Y651543D01*
X1048775Y651842D01*
X1048000Y651944D01*
X1047225Y651842D01*
X1046503Y651543D01*
X1045883Y651067D01*
X1045407Y650447D01*
X1045108Y649725D01*
X1045006Y648950D01*
X1045108Y648175D01*
X1045407Y647453D01*
X1045883Y646833D01*
X1046503Y646357D01*
X1047225Y646058D01*
X1048000Y645956D01*
X1048775Y646058D01*
X1049497Y646357D01*
X1050117Y646833D01*
X1050461Y647281D01*
X1050804Y646833D01*
X1051424Y646357D01*
X1052146Y646058D01*
X1052921Y645956D01*
X1053696Y646058D01*
X1054418Y646357D01*
X1055038Y646833D01*
X1055382Y647281D01*
X1055725Y646833D01*
X1056345Y646357D01*
X1057068Y646058D01*
X1057843Y645956D01*
X1058617Y646058D01*
X1059340Y646357D01*
X1059960Y646833D01*
X1060303Y647281D01*
X1060647Y646833D01*
X1061267Y646357D01*
X1061989Y646058D01*
X1062264Y646022D01*
Y648950D01*
Y651878D01*
X1061989Y651842D01*
X1061267Y651543D01*
X1060647Y651067D01*
X1060303Y650620D01*
X1059960Y651067D01*
X1059627Y651323D01*
Y666019D01*
X1060172D01*
Y670775D01*
D02*
G37*
G36*
X965206Y651944D02*
X964431Y651842D01*
X963709Y651543D01*
X963089Y651067D01*
X962746Y650620D01*
X962402Y651067D01*
X961782Y651543D01*
X961060Y651842D01*
X960285Y651944D01*
X959510Y651842D01*
X958788Y651543D01*
X958168Y651067D01*
X957824Y650620D01*
X957481Y651067D01*
X956861Y651543D01*
X956139Y651842D01*
X955864Y651878D01*
Y648950D01*
Y646022D01*
X956139Y646058D01*
X956861Y646357D01*
X957481Y646833D01*
X957824Y647281D01*
X958168Y646833D01*
X958788Y646357D01*
X959510Y646058D01*
X960285Y645956D01*
X961060Y646058D01*
X961782Y646357D01*
X962402Y646833D01*
X962746Y647281D01*
X963089Y646833D01*
X963709Y646357D01*
X964431Y646058D01*
X965206Y645956D01*
X965981Y646058D01*
X966703Y646357D01*
X967323Y646833D01*
X967799Y647453D01*
X968098Y648175D01*
X968200Y648950D01*
X968098Y649725D01*
X967799Y650447D01*
X967323Y651067D01*
X966703Y651543D01*
X965981Y651842D01*
X965206Y651944D01*
D02*
G37*
G36*
X966700Y689587D02*
X965578Y689439D01*
X964532Y689006D01*
X963633Y688317D01*
X962944Y687419D01*
X962511Y686373D01*
X962363Y685250D01*
X962511Y684128D01*
X962944Y683081D01*
X963633Y682183D01*
X964532Y681494D01*
X965578Y681061D01*
X966700Y680913D01*
X967822Y681061D01*
X968869Y681494D01*
X969767Y682183D01*
X970456Y683081D01*
X970889Y684128D01*
X971037Y685250D01*
X970889Y686373D01*
X970456Y687419D01*
X969767Y688317D01*
X968869Y689006D01*
X967822Y689439D01*
X966700Y689587D01*
D02*
G37*
G36*
X985940Y695750D02*
X984500D01*
Y694310D01*
X984780Y694366D01*
X985442Y694808D01*
X985884Y695470D01*
X985940Y695750D01*
D02*
G37*
G36*
X983500D02*
X982060D01*
X982116Y695470D01*
X982558Y694808D01*
X983220Y694366D01*
X983500Y694310D01*
Y695750D01*
D02*
G37*
G36*
X1111250Y698069D02*
X1110706Y697997D01*
X1109733Y697594D01*
X1108897Y696953D01*
X1108256Y696117D01*
X1107853Y695144D01*
X1107781Y694600D01*
X1111250D01*
Y698069D01*
D02*
G37*
G36*
X983500Y698190D02*
X983220Y698134D01*
X982558Y697692D01*
X982116Y697030D01*
X982060Y696750D01*
X983500D01*
Y698190D01*
D02*
G37*
G36*
X1112250Y698069D02*
Y694600D01*
X1115719D01*
X1115647Y695144D01*
X1115244Y696117D01*
X1114603Y696953D01*
X1113767Y697594D01*
X1112794Y697997D01*
X1112250Y698069D01*
D02*
G37*
G36*
X1111250Y693600D02*
X1107781D01*
X1107853Y693056D01*
X1108256Y692083D01*
X1108897Y691247D01*
X1109733Y690606D01*
X1110706Y690203D01*
X1111250Y690131D01*
Y693600D01*
D02*
G37*
G36*
X1086759Y760059D02*
X1082437D01*
Y749988D01*
X1082814D01*
Y709987D01*
X1059861Y687034D01*
X1050615D01*
X1050456Y687419D01*
X1049767Y688317D01*
X1048868Y689006D01*
X1047822Y689439D01*
X1046700Y689587D01*
X1045578Y689439D01*
X1044532Y689006D01*
X1043633Y688317D01*
X1042944Y687419D01*
X1042511Y686373D01*
X1042363Y685250D01*
X1042511Y684128D01*
X1042944Y683081D01*
X1043633Y682183D01*
X1044532Y681494D01*
X1045578Y681061D01*
X1046700Y680913D01*
X1047822Y681061D01*
X1048868Y681494D01*
X1049767Y682183D01*
X1050456Y683081D01*
X1050615Y683466D01*
X1060600D01*
X1061283Y683602D01*
X1061862Y683988D01*
X1085860Y707986D01*
X1085860Y707986D01*
X1086246Y708565D01*
X1086382Y709248D01*
Y749988D01*
X1086759D01*
Y760059D01*
D02*
G37*
G36*
X1115719Y693600D02*
X1112250D01*
Y690131D01*
X1112794Y690203D01*
X1113767Y690606D01*
X1114603Y691247D01*
X1115244Y692083D01*
X1115647Y693056D01*
X1115719Y693600D01*
D02*
G37*
G36*
X1046700Y699587D02*
X1045578Y699439D01*
X1044532Y699006D01*
X1043633Y698317D01*
X1042944Y697418D01*
X1042511Y696373D01*
X1042363Y695250D01*
X1042511Y694128D01*
X1042944Y693081D01*
X1043633Y692183D01*
X1044532Y691494D01*
X1045578Y691061D01*
X1046700Y690913D01*
X1047822Y691061D01*
X1048868Y691494D01*
X1049767Y692183D01*
X1050456Y693081D01*
X1050889Y694128D01*
X1051037Y695250D01*
X1050889Y696373D01*
X1050456Y697418D01*
X1049767Y698317D01*
X1048868Y699006D01*
X1047822Y699439D01*
X1046700Y699587D01*
D02*
G37*
G36*
X966700D02*
X965578Y699439D01*
X964532Y699006D01*
X963633Y698317D01*
X962944Y697418D01*
X962511Y696373D01*
X962363Y695250D01*
X962511Y694128D01*
X962944Y693081D01*
X963633Y692183D01*
X964532Y691494D01*
X965578Y691061D01*
X966700Y690913D01*
X967822Y691061D01*
X968869Y691494D01*
X969767Y692183D01*
X970456Y693081D01*
X970889Y694128D01*
X971037Y695250D01*
X970889Y696373D01*
X970456Y697418D01*
X969767Y698317D01*
X968869Y699006D01*
X967822Y699439D01*
X966700Y699587D01*
D02*
G37*
G36*
X1072931Y749822D02*
X1068175D01*
Y744278D01*
X1072931D01*
Y745266D01*
X1078670D01*
X1078820Y745166D01*
X1079600Y745011D01*
X1080380Y745166D01*
X1081042Y745608D01*
X1081484Y746270D01*
X1081639Y747050D01*
X1081484Y747830D01*
X1081042Y748492D01*
X1080380Y748934D01*
X1079600Y749089D01*
X1078820Y748934D01*
X1078670Y748834D01*
X1072931D01*
Y749822D01*
D02*
G37*
G36*
X1012700Y798034D02*
X1011656Y797897D01*
X1010683Y797494D01*
X1009847Y796853D01*
X1009206Y796017D01*
X1008803Y795044D01*
X1008665Y794000D01*
X1008803Y792956D01*
X1009206Y791983D01*
X1009847Y791147D01*
X1010683Y790506D01*
X1011656Y790103D01*
X1012700Y789965D01*
X1013744Y790103D01*
X1014717Y790506D01*
X1015553Y791147D01*
X1016194Y791983D01*
X1016597Y792956D01*
X1016735Y794000D01*
X1016597Y795044D01*
X1016194Y796017D01*
X1015553Y796853D01*
X1014717Y797494D01*
X1013744Y797897D01*
X1012700Y798034D01*
D02*
G37*
G36*
X1000900D02*
X999856Y797897D01*
X998883Y797494D01*
X998047Y796853D01*
X997406Y796017D01*
X997003Y795044D01*
X996865Y794000D01*
X997003Y792956D01*
X997406Y791983D01*
X998047Y791147D01*
X998883Y790506D01*
X999856Y790103D01*
X1000900Y789965D01*
X1001944Y790103D01*
X1002917Y790506D01*
X1003753Y791147D01*
X1004394Y791983D01*
X1004797Y792956D01*
X1004935Y794000D01*
X1004797Y795044D01*
X1004394Y796017D01*
X1003753Y796853D01*
X1002917Y797494D01*
X1001944Y797897D01*
X1000900Y798034D01*
D02*
G37*
G36*
X1024500D02*
X1023456Y797897D01*
X1022483Y797494D01*
X1021647Y796853D01*
X1021006Y796017D01*
X1020603Y795044D01*
X1020465Y794000D01*
X1020603Y792956D01*
X1021006Y791983D01*
X1021647Y791147D01*
X1022483Y790506D01*
X1023456Y790103D01*
X1024500Y789965D01*
X1025544Y790103D01*
X1026517Y790506D01*
X1027353Y791147D01*
X1027994Y791983D01*
X1028397Y792956D01*
X1028535Y794000D01*
X1028397Y795044D01*
X1027994Y796017D01*
X1027353Y796853D01*
X1026517Y797494D01*
X1025544Y797897D01*
X1024500Y798034D01*
D02*
G37*
G36*
X1094654Y802122D02*
X1092579D01*
Y799850D01*
X1094654D01*
Y802122D01*
D02*
G37*
G36*
X1046700Y799587D02*
X1045578Y799439D01*
X1044532Y799006D01*
X1043633Y798317D01*
X1042944Y797418D01*
X1042511Y796373D01*
X1042363Y795250D01*
X1042511Y794128D01*
X1042944Y793081D01*
X1043633Y792183D01*
X1044532Y791494D01*
X1045578Y791061D01*
X1046700Y790913D01*
X1047822Y791061D01*
X1048868Y791494D01*
X1049767Y792183D01*
X1050456Y793081D01*
X1050889Y794128D01*
X1051037Y795250D01*
X1050889Y796373D01*
X1050456Y797418D01*
X1049767Y798317D01*
X1048868Y799006D01*
X1047822Y799439D01*
X1046700Y799587D01*
D02*
G37*
G36*
X1077029Y802222D02*
X1071879D01*
Y796678D01*
X1072437D01*
Y786641D01*
X1076759D01*
Y796678D01*
X1076867D01*
Y796578D01*
X1077437D01*
Y786641D01*
X1081759D01*
Y796578D01*
X1082017D01*
Y802122D01*
X1077029D01*
Y802222D01*
D02*
G37*
G36*
X1047200Y789521D02*
Y785750D01*
X1050971D01*
X1050889Y786373D01*
X1050456Y787419D01*
X1049767Y788317D01*
X1048868Y789006D01*
X1047822Y789439D01*
X1047200Y789521D01*
D02*
G37*
G36*
X1092217Y802122D02*
X1082379D01*
Y796578D01*
X1082437D01*
Y786641D01*
X1086759D01*
Y796578D01*
X1087437D01*
Y786641D01*
X1091759D01*
Y796578D01*
X1092217D01*
Y802122D01*
D02*
G37*
G36*
X989100Y798034D02*
X988056Y797897D01*
X987083Y797494D01*
X986247Y796853D01*
X985606Y796017D01*
X985203Y795044D01*
X985065Y794000D01*
X985203Y792956D01*
X985606Y791983D01*
X986247Y791147D01*
X987083Y790506D01*
X988056Y790103D01*
X989100Y789965D01*
X990144Y790103D01*
X991117Y790506D01*
X991953Y791147D01*
X992594Y791983D01*
X992997Y792956D01*
X993134Y794000D01*
X992997Y795044D01*
X992594Y796017D01*
X991953Y796853D01*
X991117Y797494D01*
X990144Y797897D01*
X989100Y798034D01*
D02*
G37*
G36*
X1097729Y798850D02*
X1095154D01*
X1092579D01*
Y796712D01*
X1092437D01*
Y786641D01*
X1096759D01*
Y796578D01*
X1097437D01*
Y786641D01*
X1101759D01*
Y796712D01*
X1097729D01*
Y798850D01*
D02*
G37*
G36*
Y802122D02*
X1095654D01*
Y799850D01*
X1097729D01*
Y802122D01*
D02*
G37*
G36*
X989600Y809769D02*
Y806300D01*
X993069D01*
X992997Y806844D01*
X992594Y807817D01*
X991953Y808653D01*
X991117Y809294D01*
X990144Y809697D01*
X989600Y809769D01*
D02*
G37*
G36*
X988600D02*
X988056Y809697D01*
X987083Y809294D01*
X986247Y808653D01*
X985606Y807817D01*
X985203Y806844D01*
X985131Y806300D01*
X988600D01*
Y809769D01*
D02*
G37*
G36*
X1046700Y819587D02*
X1045578Y819439D01*
X1044532Y819006D01*
X1043633Y818317D01*
X1042944Y817418D01*
X1042511Y816372D01*
X1042363Y815250D01*
X1042511Y814128D01*
X1042944Y813081D01*
X1043633Y812183D01*
X1044532Y811494D01*
X1045578Y811061D01*
X1046700Y810913D01*
X1047822Y811061D01*
X1048868Y811494D01*
X1049767Y812183D01*
X1050456Y813081D01*
X1050889Y814128D01*
X1051037Y815250D01*
X1050889Y816372D01*
X1050456Y817418D01*
X1049767Y818317D01*
X1048868Y819006D01*
X1047822Y819439D01*
X1046700Y819587D01*
D02*
G37*
G36*
X1105100Y840534D02*
X1103374Y840398D01*
X1101690Y839994D01*
X1100091Y839331D01*
X1098614Y838427D01*
X1097298Y837302D01*
X1096173Y835986D01*
X1095269Y834509D01*
X1094606Y832910D01*
X1094202Y831226D01*
X1094066Y829500D01*
X1094202Y827774D01*
X1094606Y826090D01*
X1095269Y824491D01*
X1096173Y823014D01*
X1097298Y821698D01*
X1098614Y820573D01*
X1100091Y819669D01*
X1101690Y819006D01*
X1103374Y818602D01*
X1105100Y818466D01*
X1106826Y818602D01*
X1108510Y819006D01*
X1110109Y819669D01*
X1111586Y820573D01*
X1112902Y821698D01*
X1114027Y823014D01*
X1114931Y824491D01*
X1115594Y826090D01*
X1115998Y827774D01*
X1116134Y829500D01*
X1115998Y831226D01*
X1115594Y832910D01*
X1114931Y834509D01*
X1114027Y835986D01*
X1112902Y837302D01*
X1111586Y838427D01*
X1110109Y839331D01*
X1108510Y839994D01*
X1106826Y840398D01*
X1105100Y840534D01*
D02*
G37*
G36*
X908200D02*
X906474Y840398D01*
X904790Y839994D01*
X903191Y839331D01*
X901714Y838427D01*
X900398Y837302D01*
X899273Y835986D01*
X898369Y834509D01*
X897706Y832910D01*
X897302Y831226D01*
X897166Y829500D01*
X897302Y827774D01*
X897706Y826090D01*
X898369Y824491D01*
X899273Y823014D01*
X900398Y821698D01*
X901714Y820573D01*
X903191Y819669D01*
X904790Y819006D01*
X906474Y818602D01*
X908200Y818466D01*
X909926Y818602D01*
X911610Y819006D01*
X913209Y819669D01*
X914686Y820573D01*
X916002Y821698D01*
X917127Y823014D01*
X918031Y824491D01*
X918694Y826090D01*
X919098Y827774D01*
X919234Y829500D01*
X919098Y831226D01*
X918694Y832910D01*
X918031Y834509D01*
X917127Y835986D01*
X916002Y837302D01*
X914686Y838427D01*
X913209Y839331D01*
X911610Y839994D01*
X909926Y840398D01*
X908200Y840534D01*
D02*
G37*
G36*
X988600Y805300D02*
X985131D01*
X985203Y804756D01*
X985606Y803783D01*
X986247Y802947D01*
X987083Y802306D01*
X988056Y801903D01*
X988600Y801831D01*
Y805300D01*
D02*
G37*
G36*
X1024500Y809834D02*
X1023456Y809697D01*
X1022483Y809294D01*
X1021647Y808653D01*
X1021006Y807817D01*
X1020603Y806844D01*
X1020465Y805800D01*
X1020603Y804756D01*
X1021006Y803783D01*
X1021647Y802947D01*
X1022483Y802306D01*
X1023456Y801903D01*
X1024500Y801766D01*
X1025544Y801903D01*
X1026517Y802306D01*
X1027353Y802947D01*
X1027994Y803783D01*
X1028397Y804756D01*
X1028535Y805800D01*
X1028397Y806844D01*
X1027994Y807817D01*
X1027353Y808653D01*
X1026517Y809294D01*
X1025544Y809697D01*
X1024500Y809834D01*
D02*
G37*
G36*
X993069Y805300D02*
X989600D01*
Y801831D01*
X990144Y801903D01*
X991117Y802306D01*
X991953Y802947D01*
X992594Y803783D01*
X992997Y804756D01*
X993069Y805300D01*
D02*
G37*
G36*
X1036300Y812778D02*
X1035452Y812666D01*
X1034661Y812339D01*
X1033982Y811818D01*
X1033461Y811139D01*
X1033134Y810348D01*
X1033022Y809500D01*
X1033134Y808652D01*
X1033461Y807861D01*
X1033982Y807182D01*
X1034661Y806661D01*
X1035452Y806334D01*
X1036300Y806222D01*
X1037148Y806334D01*
X1037939Y806661D01*
X1038618Y807182D01*
X1039139Y807861D01*
X1039466Y808652D01*
X1039578Y809500D01*
X1039466Y810348D01*
X1039139Y811139D01*
X1038618Y811818D01*
X1037939Y812339D01*
X1037148Y812666D01*
X1036300Y812778D01*
D02*
G37*
G36*
X977300D02*
X976452Y812666D01*
X975661Y812339D01*
X974982Y811818D01*
X974461Y811139D01*
X974134Y810348D01*
X974022Y809500D01*
X974134Y808652D01*
X974461Y807861D01*
X974982Y807182D01*
X975661Y806661D01*
X976452Y806334D01*
X977300Y806222D01*
X978148Y806334D01*
X978939Y806661D01*
X979618Y807182D01*
X980139Y807861D01*
X980466Y808652D01*
X980578Y809500D01*
X980466Y810348D01*
X980139Y811139D01*
X979618Y811818D01*
X978939Y812339D01*
X978148Y812666D01*
X977300Y812778D01*
D02*
G37*
G36*
X1046700Y759587D02*
X1045578Y759439D01*
X1044532Y759006D01*
X1043633Y758317D01*
X1042944Y757418D01*
X1042511Y756372D01*
X1042363Y755250D01*
X1042511Y754128D01*
X1042944Y753081D01*
X1043633Y752183D01*
X1044532Y751494D01*
X1045578Y751061D01*
X1046700Y750913D01*
X1047822Y751061D01*
X1048868Y751494D01*
X1049767Y752183D01*
X1050456Y753081D01*
X1050889Y754128D01*
X1051037Y755250D01*
X1050889Y756372D01*
X1050456Y757418D01*
X1049767Y758317D01*
X1048868Y759006D01*
X1047822Y759439D01*
X1046700Y759587D01*
D02*
G37*
G36*
X966700D02*
X965578Y759439D01*
X964532Y759006D01*
X963633Y758317D01*
X962944Y757418D01*
X962511Y756372D01*
X962363Y755250D01*
X962511Y754128D01*
X962944Y753081D01*
X963633Y752183D01*
X964532Y751494D01*
X965578Y751061D01*
X966700Y750913D01*
X967822Y751061D01*
X968869Y751494D01*
X969767Y752183D01*
X970456Y753081D01*
X970889Y754128D01*
X971037Y755250D01*
X970889Y756372D01*
X970456Y757418D01*
X969767Y758317D01*
X968869Y759006D01*
X967822Y759439D01*
X966700Y759587D01*
D02*
G37*
G36*
X1057452Y754569D02*
X1055180D01*
Y752494D01*
X1057452D01*
Y754569D01*
D02*
G37*
G36*
X1069098Y760059D02*
X1067437D01*
Y755523D01*
X1069098D01*
Y760059D01*
D02*
G37*
G36*
X1060724Y754569D02*
X1058452D01*
Y752494D01*
X1060724D01*
Y754569D01*
D02*
G37*
G36*
X1101759Y760059D02*
X1097437D01*
Y749988D01*
X1101759D01*
Y760059D01*
D02*
G37*
G36*
X1057452Y751494D02*
X1055180D01*
Y749419D01*
X1057452D01*
Y751494D01*
D02*
G37*
G36*
X1096759Y760059D02*
X1092437D01*
Y749988D01*
X1092814D01*
Y747982D01*
X1092714Y747832D01*
X1092559Y747052D01*
X1092714Y746272D01*
X1093156Y745610D01*
X1093818Y745168D01*
X1094598Y745013D01*
X1095378Y745168D01*
X1096040Y745610D01*
X1096482Y746272D01*
X1096637Y747052D01*
X1096482Y747832D01*
X1096382Y747982D01*
Y749988D01*
X1096759D01*
Y760059D01*
D02*
G37*
G36*
X1060724Y751494D02*
X1058452D01*
Y749419D01*
X1060724D01*
Y751494D01*
D02*
G37*
G36*
X1071759Y754523D02*
X1070098D01*
Y749988D01*
X1071759D01*
Y754523D01*
D02*
G37*
G36*
X1069098D02*
X1067437D01*
Y749988D01*
X1069098D01*
Y754523D01*
D02*
G37*
G36*
X1046200Y784750D02*
X1042429D01*
X1042511Y784128D01*
X1042944Y783081D01*
X1043633Y782183D01*
X1044532Y781494D01*
X1045578Y781061D01*
X1046200Y780979D01*
Y784750D01*
D02*
G37*
G36*
X1080300Y834234D02*
X1027550D01*
X1026867Y834099D01*
X1026288Y833712D01*
X1002177Y809601D01*
X1001944Y809697D01*
X1000900Y809834D01*
X999856Y809697D01*
X998883Y809294D01*
X998047Y808653D01*
X997406Y807817D01*
X997003Y806844D01*
X996865Y805800D01*
X997003Y804756D01*
X997406Y803783D01*
X998047Y802947D01*
X998883Y802306D01*
X999856Y801903D01*
X1000900Y801766D01*
X1001944Y801903D01*
X1002917Y802306D01*
X1003753Y802947D01*
X1004394Y803783D01*
X1004797Y804756D01*
X1004935Y805800D01*
X1004797Y806844D01*
X1004700Y807077D01*
X1028289Y830666D01*
X1035119D01*
X1034888Y830512D01*
X1013977Y809601D01*
X1013744Y809697D01*
X1012700Y809834D01*
X1011656Y809697D01*
X1010683Y809294D01*
X1009847Y808653D01*
X1009206Y807817D01*
X1008803Y806844D01*
X1008665Y805800D01*
X1008803Y804756D01*
X1009206Y803783D01*
X1009847Y802947D01*
X1010683Y802306D01*
X1011656Y801903D01*
X1012700Y801766D01*
X1013744Y801903D01*
X1014717Y802306D01*
X1015553Y802947D01*
X1016194Y803783D01*
X1016597Y804756D01*
X1016735Y805800D01*
X1016597Y806844D01*
X1016500Y807077D01*
X1036889Y827466D01*
X1077061D01*
X1104916Y799611D01*
Y781289D01*
X1102061Y778434D01*
X1090500D01*
X1090500Y778434D01*
X1089817Y778298D01*
X1089528Y778105D01*
X1089238Y777912D01*
X1089238Y777912D01*
X1073336Y762010D01*
X1072950Y761431D01*
X1072814Y760748D01*
Y760059D01*
X1072437D01*
Y749988D01*
X1076759D01*
Y760059D01*
X1076432D01*
X1091239Y774866D01*
X1102800D01*
X1103483Y775001D01*
X1104062Y775388D01*
X1107962Y779288D01*
X1107962Y779288D01*
X1108348Y779867D01*
X1108484Y780550D01*
Y800350D01*
X1108348Y801033D01*
X1107962Y801612D01*
X1079062Y830512D01*
X1078831Y830666D01*
X1079561D01*
X1108916Y801311D01*
Y779589D01*
X1103861Y774534D01*
X1092500D01*
X1092500Y774534D01*
X1091817Y774398D01*
X1091528Y774205D01*
X1091238Y774012D01*
X1091238Y774012D01*
X1078336Y761110D01*
X1077950Y760531D01*
X1077856Y760059D01*
X1077437D01*
Y749988D01*
X1081759D01*
Y759486D01*
X1093239Y770966D01*
X1104600D01*
X1105283Y771102D01*
X1105862Y771488D01*
X1111962Y777588D01*
X1111962Y777588D01*
X1112348Y778167D01*
X1112484Y778850D01*
Y802050D01*
X1112348Y802733D01*
X1112193Y802965D01*
X1111962Y803312D01*
X1111962Y803312D01*
X1081562Y833712D01*
X1080983Y834099D01*
X1080300Y834234D01*
D02*
G37*
G36*
X1050971Y784750D02*
X1047200D01*
Y780979D01*
X1047822Y781061D01*
X1048868Y781494D01*
X1049767Y782183D01*
X1050456Y783081D01*
X1050889Y784128D01*
X1050971Y784750D01*
D02*
G37*
G36*
X1046200Y789521D02*
X1045578Y789439D01*
X1044532Y789006D01*
X1043633Y788317D01*
X1042944Y787419D01*
X1042511Y786373D01*
X1042429Y785750D01*
X1046200D01*
Y789521D01*
D02*
G37*
G36*
X1046700Y809587D02*
X1045578Y809439D01*
X1044532Y809006D01*
X1043633Y808317D01*
X1042944Y807419D01*
X1042511Y806373D01*
X1042363Y805250D01*
X1042511Y804128D01*
X1042670Y803743D01*
X1038538Y799612D01*
X1038151Y799033D01*
X1038016Y798350D01*
Y768489D01*
X1032311Y762784D01*
X1022146D01*
X1021997Y762884D01*
X1021216Y763039D01*
X1020436Y762884D01*
X1020062Y762634D01*
X1016716D01*
X1016034Y762498D01*
X1015455Y762112D01*
X1015455Y762112D01*
X1011577Y758234D01*
X1005929D01*
X1005780Y758334D01*
X1005000Y758489D01*
X1004220Y758334D01*
X1003558Y757892D01*
X1003116Y757230D01*
X1002961Y756450D01*
X1003116Y755670D01*
X1003558Y755008D01*
X1004220Y754566D01*
X1005000Y754411D01*
X1005780Y754566D01*
X1005929Y754666D01*
X1012267D01*
X1012308Y754658D01*
X1012991Y754793D01*
X1013570Y755180D01*
X1017455Y759066D01*
X1020689D01*
X1021216Y758961D01*
X1021997Y759116D01*
X1022146Y759216D01*
X1033050D01*
X1033733Y759351D01*
X1034312Y759738D01*
X1038016Y763442D01*
Y685584D01*
X1004360Y651929D01*
X1004243Y651944D01*
X1003468Y651842D01*
X1002746Y651543D01*
X1002125Y651067D01*
X1001782Y650620D01*
X1001438Y651067D01*
X1000818Y651543D01*
X1000096Y651842D01*
X999321Y651944D01*
X998546Y651842D01*
X997824Y651543D01*
X997204Y651067D01*
X996861Y650620D01*
X996517Y651067D01*
X995897Y651543D01*
X995175Y651842D01*
X994400Y651944D01*
X993625Y651842D01*
X992903Y651543D01*
X992283Y651067D01*
X991807Y650447D01*
X991508Y649725D01*
X991406Y648950D01*
X991508Y648175D01*
X991807Y647453D01*
X992283Y646833D01*
X992903Y646357D01*
X993625Y646058D01*
X994400Y645956D01*
X995175Y646058D01*
X995897Y646357D01*
X996517Y646833D01*
X996861Y647281D01*
X997204Y646833D01*
X997824Y646357D01*
X998546Y646058D01*
X999321Y645956D01*
X1000096Y646058D01*
X1000818Y646357D01*
X1001438Y646833D01*
X1001782Y647281D01*
X1002125Y646833D01*
X1002746Y646357D01*
X1003468Y646058D01*
X1004243Y645956D01*
X1005017Y646058D01*
X1005740Y646357D01*
X1006360Y646833D01*
X1006703Y647281D01*
X1007047Y646833D01*
X1007667Y646357D01*
X1008389Y646058D01*
X1008664Y646022D01*
Y648950D01*
X1009664D01*
Y646022D01*
X1009939Y646058D01*
X1010661Y646357D01*
X1011281Y646833D01*
X1011624Y647281D01*
X1011968Y646833D01*
X1012588Y646357D01*
X1013310Y646058D01*
X1014085Y645956D01*
X1014860Y646058D01*
X1015582Y646357D01*
X1016202Y646833D01*
X1016546Y647281D01*
X1016889Y646833D01*
X1017509Y646357D01*
X1018231Y646058D01*
X1019006Y645956D01*
X1019781Y646058D01*
X1020503Y646357D01*
X1021124Y646833D01*
X1021599Y647453D01*
X1021898Y648175D01*
X1022000Y648950D01*
X1021898Y649725D01*
X1021599Y650447D01*
X1021124Y651067D01*
X1020503Y651543D01*
X1019781Y651842D01*
X1019006Y651944D01*
X1018231Y651842D01*
X1017509Y651543D01*
X1016889Y651067D01*
X1016546Y650620D01*
X1016202Y651067D01*
X1015582Y651543D01*
X1014860Y651842D01*
X1014085Y651944D01*
X1013310Y651842D01*
X1012588Y651543D01*
X1011968Y651067D01*
X1011624Y650620D01*
X1011281Y651067D01*
X1010661Y651543D01*
X1009939Y651842D01*
X1009392Y651914D01*
X1041062Y683583D01*
X1041448Y684162D01*
X1041584Y684845D01*
Y767750D01*
X1041584Y767750D01*
X1041584Y767750D01*
Y797611D01*
X1045193Y801220D01*
X1045578Y801061D01*
X1046700Y800913D01*
X1047822Y801061D01*
X1048207Y801220D01*
X1051216Y798211D01*
Y762458D01*
X1051352Y761775D01*
X1051738Y761196D01*
X1055180Y757754D01*
Y754931D01*
X1060724D01*
Y755722D01*
X1062437D01*
Y749988D01*
X1062814D01*
Y749822D01*
X1062269D01*
Y744278D01*
X1067025D01*
Y749822D01*
X1066382D01*
Y749988D01*
X1066759D01*
Y760059D01*
X1062437D01*
Y759290D01*
X1060724D01*
Y760081D01*
X1057901D01*
X1054784Y763197D01*
Y794642D01*
X1055176Y794250D01*
Y792031D01*
X1055919D01*
X1055951Y791867D01*
X1056084Y791669D01*
X1055176D01*
Y786519D01*
X1056269D01*
X1056300Y786367D01*
X1056686Y785788D01*
X1059086Y783388D01*
X1059086Y783388D01*
X1059376Y783195D01*
X1059665Y783002D01*
X1060348Y782866D01*
X1060348Y782866D01*
X1066948D01*
X1067631Y783002D01*
X1068210Y783388D01*
X1070860Y786038D01*
X1070860Y786038D01*
X1071247Y786617D01*
X1071251Y786641D01*
X1071759D01*
Y796712D01*
X1071517D01*
Y802222D01*
X1066367D01*
Y799399D01*
X1063681Y796712D01*
X1062437D01*
Y786641D01*
X1066416D01*
X1066209Y786434D01*
X1061087D01*
X1060720Y786802D01*
Y791669D01*
X1059616D01*
X1059748Y791867D01*
X1059781Y792031D01*
X1060720D01*
Y797181D01*
X1057293D01*
X1054262Y800212D01*
X1054142Y800292D01*
X1054062Y800412D01*
X1050730Y803743D01*
X1050889Y804128D01*
X1051037Y805250D01*
X1050889Y806373D01*
X1050456Y807419D01*
X1049767Y808317D01*
X1048868Y809006D01*
X1047822Y809439D01*
X1046700Y809587D01*
D02*
G37*
G36*
Y769587D02*
X1045578Y769439D01*
X1044532Y769006D01*
X1043633Y768317D01*
X1042944Y767418D01*
X1042511Y766372D01*
X1042363Y765250D01*
X1042511Y764127D01*
X1042944Y763081D01*
X1043633Y762183D01*
X1044532Y761494D01*
X1045578Y761061D01*
X1046700Y760913D01*
X1047822Y761061D01*
X1048868Y761494D01*
X1049767Y762183D01*
X1050456Y763081D01*
X1050889Y764127D01*
X1051037Y765250D01*
X1050889Y766372D01*
X1050456Y767418D01*
X1049767Y768317D01*
X1048868Y769006D01*
X1047822Y769439D01*
X1046700Y769587D01*
D02*
G37*
G36*
X967200D02*
X966078Y769439D01*
X965032Y769006D01*
X964133Y768317D01*
X963444Y767418D01*
X963011Y766372D01*
X962863Y765250D01*
X963011Y764127D01*
X963444Y763081D01*
X964133Y762183D01*
X965032Y761494D01*
X966078Y761061D01*
X967200Y760913D01*
X968322Y761061D01*
X969368Y761494D01*
X970267Y762183D01*
X970956Y763081D01*
X971389Y764127D01*
X971537Y765250D01*
X971389Y766372D01*
X970956Y767418D01*
X970267Y768317D01*
X969368Y769006D01*
X968322Y769439D01*
X967200Y769587D01*
D02*
G37*
G36*
X1071759Y760059D02*
X1070098D01*
Y755523D01*
X1071759D01*
Y760059D01*
D02*
G37*
G36*
X971000Y779550D02*
X962400D01*
Y770950D01*
X971000D01*
Y779550D01*
D02*
G37*
G36*
X1046700Y779587D02*
X1045578Y779439D01*
X1044532Y779006D01*
X1043633Y778317D01*
X1042944Y777419D01*
X1042511Y776372D01*
X1042363Y775250D01*
X1042511Y774127D01*
X1042944Y773081D01*
X1043633Y772183D01*
X1044532Y771494D01*
X1045578Y771061D01*
X1046700Y770913D01*
X1047822Y771061D01*
X1048868Y771494D01*
X1049767Y772183D01*
X1050456Y773081D01*
X1050889Y774127D01*
X1051037Y775250D01*
X1050889Y776372D01*
X1050456Y777419D01*
X1049767Y778317D01*
X1048868Y779006D01*
X1047822Y779439D01*
X1046700Y779587D01*
D02*
G37*
%LPD*%
G36*
X1067437Y787662D02*
X1066759Y786985D01*
Y794744D01*
X1067437Y795421D01*
Y787662D01*
D02*
G37*
D11*
X1068942Y799450D02*
D03*
X1074454D02*
D03*
X1079442Y799350D02*
D03*
X1084954D02*
D03*
X1089642D02*
D03*
X1095154D02*
D03*
D12*
X1057400Y668397D02*
D03*
Y674303D02*
D03*
D13*
X1057948Y789094D02*
D03*
Y794606D02*
D03*
X1057952Y751994D02*
D03*
Y757506D02*
D03*
D20*
X1021066Y760850D02*
X1021216Y761000D01*
X1016716Y760850D02*
X1021066D01*
X1005000Y756450D02*
X1012300D01*
X1012308Y756442D01*
X1016716Y760850D01*
X1021216Y761000D02*
X1033050D01*
X1039800Y767750D01*
Y798350D01*
X1046700Y805250D01*
X1057948Y787050D02*
X1060348Y784650D01*
X1057948Y787050D02*
Y789094D01*
X1074454Y791821D02*
Y799450D01*
X1079442Y791833D02*
Y799350D01*
X1089642Y791721D02*
Y799350D01*
X1066948Y784650D02*
X1069598Y787300D01*
X1060348Y784650D02*
X1066948D01*
X1064598Y795106D02*
X1068942Y799450D01*
X1069598Y787300D02*
Y791677D01*
X1084954Y792033D02*
Y799350D01*
X1079598Y755023D02*
Y759848D01*
X1092500Y772750D01*
X1074598Y755023D02*
Y760748D01*
X1090500Y776650D01*
X1057892Y794550D02*
X1057948Y794606D01*
X1057952Y757506D02*
X1064556D01*
X1057600Y792550D02*
X1058100D01*
X1046700Y805250D02*
X1052800Y799150D01*
X1039800Y684845D02*
Y767750D01*
X1004243Y649288D02*
X1039800Y684845D01*
X1004243Y648950D02*
Y649288D01*
X1046700Y675250D02*
X1046700Y675250D01*
Y685250D02*
X1060600D01*
X1084598Y709248D01*
Y755023D01*
X1089598Y707148D02*
Y755023D01*
X1057700Y675250D02*
X1089598Y707148D01*
X1046700Y675250D02*
X1057700D01*
X1053000Y762458D02*
X1057952Y757506D01*
X1053000Y762458D02*
Y798950D01*
X1057600Y794350D01*
X1102800Y776650D02*
X1106700Y780550D01*
Y800350D01*
X1077800Y829250D02*
X1106700Y800350D01*
X1090500Y776650D02*
X1102800D01*
X1092500Y772750D02*
X1104600D01*
X1110700Y778850D01*
Y802050D01*
X1080300Y832450D02*
X1110700Y802050D01*
X1012700Y805800D02*
X1036150Y829250D01*
X1077800D01*
X1000900Y805800D02*
X1027550Y832450D01*
X1080300D01*
X1064598Y747099D02*
X1064647Y747050D01*
X1064598Y747099D02*
Y755023D01*
X1070553Y747050D02*
X1079600D01*
X1079600Y747050D01*
X1094598Y747052D02*
Y755023D01*
Y747052D02*
X1094600Y747050D01*
X1057843Y648950D02*
Y667955D01*
X1057400Y668397D02*
X1057843Y667955D01*
D21*
X1111750Y704100D02*
X1111800Y704050D01*
D22*
X1111750Y694100D02*
D03*
Y704100D02*
D03*
X1024500Y794000D02*
D03*
X989100D02*
D03*
X1012700D02*
D03*
X1000900D02*
D03*
Y805800D02*
D03*
X1012700D02*
D03*
X989100D02*
D03*
X1024500D02*
D03*
D23*
X1105100Y632600D02*
D03*
X908200D02*
D03*
Y829500D02*
D03*
X1105100D02*
D03*
D24*
X1036300Y809500D02*
D03*
X977300D02*
D03*
D25*
X1032016Y734900D02*
D03*
X1022016D02*
D03*
X1012016D02*
D03*
X1002016D02*
D03*
Y724500D02*
D03*
X1012016D02*
D03*
X1022016D02*
D03*
X1032016D02*
D03*
X994400Y648950D02*
D03*
X999321D02*
D03*
X1004243D02*
D03*
X1009164D02*
D03*
X1014085D02*
D03*
X1019006D02*
D03*
X1072606D02*
D03*
X1067685D02*
D03*
X1062764D02*
D03*
X1057843D02*
D03*
X1052921D02*
D03*
X1048000D02*
D03*
X940600D02*
D03*
X945521D02*
D03*
X950443D02*
D03*
X955364D02*
D03*
X960285D02*
D03*
X965206D02*
D03*
D26*
X1046700Y815250D02*
D03*
Y805250D02*
D03*
Y795250D02*
D03*
Y785250D02*
D03*
Y775250D02*
D03*
Y765250D02*
D03*
Y755250D02*
D03*
Y745250D02*
D03*
Y735250D02*
D03*
Y725250D02*
D03*
Y715250D02*
D03*
Y695250D02*
D03*
Y685250D02*
D03*
Y675250D02*
D03*
X966700Y665250D02*
D03*
Y675250D02*
D03*
Y685250D02*
D03*
Y695250D02*
D03*
Y705250D02*
D03*
Y715250D02*
D03*
Y725250D02*
D03*
Y735250D02*
D03*
Y745250D02*
D03*
Y755250D02*
D03*
X967200Y765250D02*
D03*
D27*
X1046700Y665250D02*
D03*
X966700Y775250D02*
D03*
D28*
X1021216Y761000D02*
D03*
X1005000Y756450D02*
D03*
X1079600Y747050D02*
D03*
X1094598Y747052D02*
D03*
X984000Y696250D02*
D03*
D29*
X1064598Y755023D02*
D03*
X1069598D02*
D03*
X1074598D02*
D03*
X1079598D02*
D03*
X1084598D02*
D03*
X1089598D02*
D03*
X1094598D02*
D03*
X1099598D02*
D03*
Y791677D02*
D03*
X1094598D02*
D03*
X1089598D02*
D03*
X1084598D02*
D03*
X1079598D02*
D03*
X1074598D02*
D03*
X1069598D02*
D03*
X1064598D02*
D03*
D30*
X1070553Y747050D02*
D03*
X1064647D02*
D03*
M02*
